<svg width="22" height="23" viewBox="0 0 22 23" fill="none" xmlns="http://www.w3.org/2000/svg">
  <mask id="path-1-inside-1" fill="white">
    <path fill-rule="evenodd" clip-rule="evenodd"
      d="M8.20173 2.67465L7.85147 2.51296C7.24798 2.23438 6.57364 2.07803 5.859 2.07803C3.24728 2.07803 1.15063 4.16909 1.15063 6.72328C1.15063 7.5771 1.38311 8.37455 1.78907 9.06075L1.99648 9.41133L1.92553 9.81244C1.83126 10.3454 1.78188 10.8952 1.78188 11.4579C1.78188 16.5251 5.78127 20.5856 10.6571 20.5856C11.1802 20.5856 11.6918 20.5392 12.1886 20.4504L12.5717 20.3819L12.9126 20.5696C13.5891 20.942 14.3689 21.155 15.2029 21.155C17.8145 21.155 19.9113 19.0639 19.9113 16.5097C19.9113 15.7362 19.7205 15.0096 19.3833 14.37L19.1916 14.0063L19.2854 13.606C19.4467 12.9182 19.5324 12.1991 19.5324 11.4579C19.5324 6.39067 15.533 2.33011 10.6571 2.33011C9.93927 2.33011 9.24268 2.41754 8.57626 2.58214L8.20173 2.67465ZM8.31249 1.51423C9.06444 1.3285 9.84958 1.23011 10.6571 1.23011C16.1663 1.23011 20.6324 5.80924 20.6324 11.4579C20.6324 12.2841 20.5368 13.0875 20.3564 13.857C20.7747 14.6506 21.0113 15.5528 21.0113 16.5097C21.0113 19.6827 18.4106 22.255 15.2029 22.255C14.1792 22.255 13.2173 21.9931 12.3821 21.5332C11.8218 21.6334 11.2454 21.6856 10.6571 21.6856C5.148 21.6856 0.681879 17.1065 0.681879 11.4579C0.681879 10.8307 0.736928 10.2168 0.842342 9.62084C0.339076 8.77017 0.0506287 7.78003 0.0506287 6.72328C0.0506287 3.55028 2.65113 0.978027 5.859 0.978027C6.73577 0.978027 7.56716 1.17018 8.31249 1.51423Z" />
  </mask>
  <path
    d="M7.85147 2.51296L8.27058 1.60503L8.27058 1.60503L7.85147 2.51296ZM8.20173 2.67465L7.78262 3.58258L8.10104 3.72957L8.44152 3.64547L8.20173 2.67465ZM1.78907 9.06075L2.64973 8.55158L1.78907 9.06075ZM1.99648 9.41133L2.98119 9.58551L3.04569 9.22086L2.85714 8.90215L1.99648 9.41133ZM1.92553 9.81244L2.91024 9.98662V9.98662L1.92553 9.81244ZM12.1886 20.4504L12.0126 19.466H12.0126L12.1886 20.4504ZM12.5717 20.3819L13.0539 19.5059L12.744 19.3353L12.3957 19.3975L12.5717 20.3819ZM12.9126 20.5696L12.4303 21.4456H12.4303L12.9126 20.5696ZM19.3833 14.37L18.4987 14.8364H18.4987L19.3833 14.37ZM19.1916 14.0063L18.218 13.778L18.1327 14.142L18.307 14.4726L19.1916 14.0063ZM19.2854 13.606L18.3118 13.3777V13.3777L19.2854 13.606ZM8.57626 2.58214L8.81605 3.55296H8.81605L8.57626 2.58214ZM8.31249 1.51423L7.89338 2.42217L8.2118 2.56915L8.55228 2.48506L8.31249 1.51423ZM20.3564 13.857L19.3828 13.6288L19.2975 13.9927L19.4718 14.3234L20.3564 13.857ZM12.3821 21.5332L12.8644 20.6572L12.5544 20.4866L12.2062 20.5488L12.3821 21.5332ZM0.842342 9.62084L1.82706 9.79502L1.89156 9.43038L1.70301 9.11167L0.842342 9.62084ZM7.43235 3.42089L7.78262 3.58258L8.62085 1.76671L8.27058 1.60503L7.43235 3.42089ZM5.859 3.07803C6.42626 3.07803 6.95783 3.20185 7.43235 3.42089L8.27058 1.60503C7.53814 1.26692 6.72102 1.07803 5.859 1.07803V3.07803ZM2.15063 6.72328C2.15063 4.73092 3.78997 3.07803 5.859 3.07803V1.07803C2.70459 1.07803 0.150629 3.60726 0.150629 6.72328H2.15063ZM2.64973 8.55158C2.33224 8.01492 2.15063 7.39265 2.15063 6.72328H0.150629C0.150629 7.76155 0.43397 8.73417 0.928409 9.56993L2.64973 8.55158ZM2.85714 8.90215L2.64973 8.55158L0.928409 9.56993L1.13581 9.92051L2.85714 8.90215ZM2.91024 9.98662L2.98119 9.58551L1.01176 9.23715L0.940814 9.63826L2.91024 9.98662ZM2.78188 11.4579C2.78188 10.9538 2.8261 10.4623 2.91024 9.98662L0.940814 9.63826C0.836413 10.2285 0.781879 10.8366 0.781879 11.4579H2.78188ZM10.6571 19.5856C6.35611 19.5856 2.78188 15.9956 2.78188 11.4579H0.781879C0.781879 17.0545 5.20643 21.5856 10.6571 21.5856V19.5856ZM12.0126 19.466C11.5736 19.5445 11.1209 19.5856 10.6571 19.5856V21.5856C11.2395 21.5856 11.81 21.5339 12.3645 21.4348L12.0126 19.466ZM12.3957 19.3975L12.0126 19.466L12.3645 21.4348L12.7476 21.3663L12.3957 19.3975ZM13.3949 19.6936L13.0539 19.5059L12.0894 21.258L12.4303 21.4456L13.3949 19.6936ZM15.2029 20.155C14.5413 20.155 13.927 19.9865 13.3949 19.6936L12.4303 21.4456C13.2511 21.8975 14.1964 22.155 15.2029 22.155V20.155ZM18.9113 16.5097C18.9113 18.5021 17.2718 20.155 15.2029 20.155V22.155C18.3572 22.155 20.9113 19.6257 20.9113 16.5097H18.9113ZM18.4987 14.8364C18.7621 15.3359 18.9113 15.903 18.9113 16.5097H20.9113C20.9113 15.5695 20.6789 14.6832 20.2679 13.9037L18.4987 14.8364ZM18.307 14.4726L18.4987 14.8364L20.2679 13.9037L20.0762 13.5399L18.307 14.4726ZM18.3118 13.3777L18.218 13.778L20.1652 14.2345L20.259 13.8342L18.3118 13.3777ZM18.5324 11.4579C18.5324 12.1218 18.4556 12.7643 18.3118 13.3777L20.259 13.8342C20.4377 13.0721 20.5324 12.2764 20.5324 11.4579H18.5324ZM10.6571 3.33011C14.9581 3.33011 18.5324 6.92013 18.5324 11.4579H20.5324C20.5324 5.86122 16.1078 1.33011 10.6571 1.33011V3.33011ZM8.81605 3.55296C9.40472 3.40756 10.0208 3.33011 10.6571 3.33011V1.33011C9.85773 1.33011 9.08065 1.42751 8.33647 1.61131L8.81605 3.55296ZM8.44152 3.64547L8.81605 3.55296L8.33647 1.61131L7.96194 1.70382L8.44152 3.64547ZM10.6571 0.230111C9.76804 0.230111 8.9024 0.338473 8.0727 0.543407L8.55228 2.48506C9.22648 2.31853 9.93112 2.23011 10.6571 2.23011V0.230111ZM21.6324 11.4579C21.6324 5.28066 16.742 0.230111 10.6571 0.230111V2.23011C15.5906 2.23011 19.6324 6.33781 19.6324 11.4579H21.6324ZM21.33 14.0853C21.5278 13.2414 21.6324 12.3615 21.6324 11.4579H19.6324C19.6324 12.2068 19.5458 12.9336 19.3828 13.6288L21.33 14.0853ZM22.0113 16.5097C22.0113 15.3861 21.7331 14.3242 21.241 13.3907L19.4718 14.3234C19.8163 14.9769 20.0113 15.7196 20.0113 16.5097H22.0113ZM15.2029 23.255C18.9526 23.255 22.0113 20.2453 22.0113 16.5097H20.0113C20.0113 19.1202 17.8687 21.255 15.2029 21.255V23.255ZM11.8998 22.4093C12.8794 22.9485 14.0067 23.255 15.2029 23.255V21.255C14.3516 21.255 13.5553 21.0376 12.8644 20.6572L11.8998 22.4093ZM10.6571 22.6856C11.3047 22.6856 11.94 22.6281 12.5581 22.5176L12.2062 20.5488C11.7036 20.6387 11.1861 20.6856 10.6571 20.6856V22.6856ZM-0.318121 11.4579C-0.318121 17.6351 4.5723 22.6856 10.6571 22.6856V20.6856C5.7237 20.6856 1.68188 16.5779 1.68188 11.4579H-0.318121ZM-0.142372 9.44666C-0.257917 10.0999 -0.318121 10.7721 -0.318121 11.4579H1.68188C1.68188 10.8894 1.73177 10.3337 1.82706 9.79502L-0.142372 9.44666ZM-0.949371 6.72328C-0.949371 7.96452 -0.610042 9.12983 -0.0183203 10.13L1.70301 9.11167C1.28819 8.41051 1.05063 7.59555 1.05063 6.72328H-0.949371ZM5.859 -0.0219727C2.10917 -0.0219727 -0.949371 2.98772 -0.949371 6.72328H1.05063C1.05063 4.11284 3.19309 1.97803 5.859 1.97803V-0.0219727ZM8.73161 0.606298C7.85733 0.202721 6.88316 -0.0219727 5.859 -0.0219727V1.97803C6.58838 1.97803 7.277 2.13764 7.89338 2.42217L8.73161 0.606298Z"
    fill="#303030" mask="url(#path-1-inside-1)" />
  <path fill-rule="evenodd" clip-rule="evenodd"
    d="M7.75886 4.76344C8.72348 4.22537 9.85221 4.04189 10.7911 4.0885L10.8491 4.09138L10.9067 4.09893C12.7983 4.3469 14.4288 5.1363 15.7929 6.5444C16.3453 7.11462 16.3309 8.02468 15.7607 8.57708C15.1904 9.12947 14.2804 9.11503 13.728 8.54481C12.844 7.63226 11.8343 7.13198 10.5937 6.95778C10.0987 6.94286 9.5526 7.05491 9.15939 7.27424C8.7974 7.47616 8.64436 7.70817 8.61856 8.01948C8.60038 8.35339 8.64318 8.5408 8.68452 8.64585C8.72144 8.73964 8.78133 8.83145 8.9149 8.93983C9.25122 9.21275 9.90642 9.48464 11.1999 9.81307L11.2046 9.81428L11.2094 9.81552C11.3359 9.84856 11.4678 9.88214 11.6037 9.91675C12.5354 10.154 13.6566 10.4394 14.5209 10.9292C15.0569 11.2331 15.5897 11.6614 15.9646 12.2894C16.3425 12.9226 16.4923 13.6456 16.4493 14.4239C16.4044 15.9345 15.6158 17.0614 14.5114 17.741C13.4584 18.3889 12.1563 18.6194 10.9237 18.5777L10.9151 18.5774L10.9066 18.577C8.31844 18.4584 6.6434 17.1259 5.67129 15.8776C5.1835 15.2512 5.29585 14.348 5.92223 13.8602C6.54861 13.3724 7.45183 13.4847 7.93962 14.1111C8.53092 14.8704 9.48545 15.6312 11.0296 15.7046C11.8813 15.7321 12.5729 15.5581 13.0048 15.2923C13.3804 15.0612 13.5652 14.773 13.5759 14.3286L13.5765 14.3022L13.5781 14.276C13.5968 13.9678 13.5356 13.8295 13.4959 13.763C13.4488 13.6841 13.348 13.5692 13.1032 13.4304C12.5997 13.145 11.9012 12.9644 10.9025 12.7061C10.7696 12.6717 10.6313 12.636 10.4875 12.5984C9.2144 12.275 7.98339 11.8864 7.10332 11.1723C6.62814 10.7867 6.24695 10.3026 6.00929 9.69882C5.77657 9.10756 5.71184 8.47894 5.74915 7.83961L5.74979 7.8285L5.75061 7.8174C5.86087 6.32566 6.75225 5.32493 7.75886 4.76344Z"
    stroke="#303030" stroke-width="1.1" stroke-linecap="round" />
</svg>