<svg width="22" height="23" viewBox="0 0 22 23" fill="none" xmlns="http://www.w3.org/2000/svg">
  <mask id="path-1-inside-1" fill="white">
    <path fill-rule="evenodd" clip-rule="evenodd"
      d="M8.20189 2.67513L7.85162 2.51345C7.24814 2.23487 6.57379 2.07852 5.85916 2.07852C3.24743 2.07852 1.15078 4.16958 1.15078 6.72377C1.15078 7.57759 1.38326 8.37503 1.78922 9.06124L1.99663 9.41182L1.92568 9.81293C1.83141 10.3459 1.78203 10.8957 1.78203 11.4584C1.78203 16.5255 5.78143 20.5861 10.6573 20.5861C11.1803 20.5861 11.6919 20.5397 12.1887 20.4509L12.5718 20.3824L12.9128 20.5701C13.5892 20.9425 14.369 21.1555 15.203 21.1555C17.8146 21.1555 19.9114 19.0644 19.9114 16.5102C19.9114 15.7367 19.7207 15.0101 19.3835 14.3705L19.1917 14.0068L19.2856 13.6064C19.4468 12.9187 19.5325 12.1996 19.5325 11.4584C19.5325 6.39116 15.5331 2.3306 10.6573 2.3306C9.93942 2.3306 9.24283 2.41802 8.57641 2.58263L8.20189 2.67513ZM8.31264 1.51472C9.06459 1.32899 9.84973 1.2306 10.6573 1.2306C16.1664 1.2306 20.6325 5.80973 20.6325 11.4584C20.6325 12.2846 20.537 13.088 20.3566 13.8575C20.7749 14.6511 21.0114 15.5533 21.0114 16.5102C21.0114 19.6832 18.4108 22.2555 15.203 22.2555C14.1793 22.2555 13.2175 21.9935 12.3823 21.5337C11.8219 21.6339 11.2456 21.6861 10.6573 21.6861C5.14816 21.6861 0.682031 17.107 0.682031 11.4584C0.682031 10.8312 0.737081 10.2173 0.842495 9.62133C0.339229 8.77066 0.0507812 7.78052 0.0507812 6.72377C0.0507812 3.55077 2.65128 0.978516 5.85916 0.978516C6.73592 0.978516 7.56732 1.17067 8.31264 1.51472Z" />
  </mask>
  <path
    d="M7.85162 2.51345L7.43251 3.42138L7.43251 3.42138L7.85162 2.51345ZM8.20189 2.67513L7.78277 3.58307L8.1012 3.73006L8.44168 3.64596L8.20189 2.67513ZM1.78922 9.06124L0.928562 9.57041H0.928562L1.78922 9.06124ZM1.99663 9.41182L2.98134 9.586L3.04584 9.22135L2.85729 8.90264L1.99663 9.41182ZM1.92568 9.81293L0.940967 9.63875H0.940967L1.92568 9.81293ZM12.1887 20.4509L12.0128 19.4665H12.0128L12.1887 20.4509ZM12.5718 20.3824L13.0541 19.5064L12.7442 19.3358L12.3959 19.398L12.5718 20.3824ZM12.9128 20.5701L12.4305 21.4461H12.4305L12.9128 20.5701ZM19.3835 14.3705L18.4989 14.8369L18.4989 14.8369L19.3835 14.3705ZM19.1917 14.0068L18.2181 13.7785L18.1328 14.1424L18.3071 14.4731L19.1917 14.0068ZM19.2856 13.6064L20.2592 13.8347V13.8347L19.2856 13.6064ZM8.57641 2.58263L8.81621 3.55345L8.57641 2.58263ZM8.31264 1.51472L7.89353 2.42265L8.21196 2.56964L8.55243 2.48554L8.31264 1.51472ZM20.3566 13.8575L19.383 13.6293L19.2976 13.9932L19.472 14.3239L20.3566 13.8575ZM12.3823 21.5337L12.8645 20.6577L12.5546 20.4871L12.2063 20.5493L12.3823 21.5337ZM0.842495 9.62133L1.82721 9.79551L1.89171 9.43087L1.70316 9.11216L0.842495 9.62133ZM7.43251 3.42138L7.78277 3.58307L8.621 1.7672L8.27073 1.60551L7.43251 3.42138ZM5.85916 3.07852C6.42641 3.07852 6.95798 3.20234 7.43251 3.42138L8.27073 1.60551C7.53829 1.26741 6.72117 1.07852 5.85916 1.07852V3.07852ZM2.15078 6.72377C2.15078 4.73141 3.79013 3.07852 5.85916 3.07852V1.07852C2.70474 1.07852 0.150781 3.60775 0.150781 6.72377H2.15078ZM2.64989 8.55206C2.3324 8.01541 2.15078 7.39314 2.15078 6.72377H0.150781C0.150781 7.76204 0.434123 8.73466 0.928562 9.57041L2.64989 8.55206ZM2.85729 8.90264L2.64989 8.55206L0.928562 9.57041L1.13597 9.92099L2.85729 8.90264ZM2.91039 9.98711L2.98134 9.586L1.01192 9.23764L0.940967 9.63875L2.91039 9.98711ZM2.78203 11.4584C2.78203 10.9543 2.82626 10.4628 2.91039 9.98711L0.940967 9.63875C0.836566 10.229 0.782031 10.8371 0.782031 11.4584H2.78203ZM10.6573 19.5861C6.35627 19.5861 2.78203 15.9961 2.78203 11.4584H0.782031C0.782031 17.055 5.20659 21.5861 10.6573 21.5861V19.5861ZM12.0128 19.4665C11.5738 19.545 11.121 19.5861 10.6573 19.5861V21.5861C11.2396 21.5861 11.8101 21.5344 12.3647 21.4353L12.0128 19.4665ZM12.3959 19.398L12.0128 19.4665L12.3647 21.4353L12.7478 21.3668L12.3959 19.398ZM13.395 19.6941L13.0541 19.5064L12.0896 21.2584L12.4305 21.4461L13.395 19.6941ZM15.203 20.1555C14.5415 20.1555 13.9271 19.987 13.395 19.6941L12.4305 21.4461C13.2513 21.898 14.1966 22.1555 15.203 22.1555V20.1555ZM18.9114 16.5102C18.9114 18.5026 17.272 20.1555 15.203 20.1555V22.1555C18.3573 22.1555 20.9114 19.6262 20.9114 16.5102H18.9114ZM18.4989 14.8369C18.7623 15.3364 18.9114 15.9034 18.9114 16.5102H20.9114C20.9114 15.57 20.6791 14.6837 20.2681 13.9042L18.4989 14.8369ZM18.3071 14.4731L18.4989 14.8369L20.2681 13.9042L20.0763 13.5404L18.3071 14.4731ZM18.312 13.3782L18.2181 13.7785L20.1653 14.235L20.2592 13.8347L18.312 13.3782ZM18.5325 11.4584C18.5325 12.1222 18.4558 12.7648 18.312 13.3782L20.2592 13.8347C20.4379 13.0726 20.5325 12.2769 20.5325 11.4584H18.5325ZM10.6573 3.3306C14.9583 3.3306 18.5325 6.92062 18.5325 11.4584H20.5325C20.5325 5.8617 16.108 1.3306 10.6573 1.3306V3.3306ZM8.81621 3.55345C9.40487 3.40805 10.021 3.3306 10.6573 3.3306V1.3306C9.85788 1.3306 9.0808 1.42799 8.33662 1.6118L8.81621 3.55345ZM8.44168 3.64596L8.81621 3.55345L8.33662 1.6118L7.96209 1.70431L8.44168 3.64596ZM10.6573 0.230599C9.76819 0.230599 8.90255 0.338962 8.07285 0.543895L8.55243 2.48554C9.22663 2.31902 9.93127 2.2306 10.6573 2.2306V0.230599ZM21.6325 11.4584C21.6325 5.28115 16.7421 0.230599 10.6573 0.230599V2.2306C15.5907 2.2306 19.6325 6.3383 19.6325 11.4584H21.6325ZM21.3302 14.0858C21.528 13.2419 21.6325 12.3619 21.6325 11.4584H19.6325C19.6325 12.2073 19.5459 12.9341 19.383 13.6293L21.3302 14.0858ZM22.0114 16.5102C22.0114 15.3866 21.7333 14.3247 21.2412 13.3912L19.472 14.3239C19.8165 14.9774 20.0114 15.7201 20.0114 16.5102H22.0114ZM15.203 23.2555C18.9527 23.2555 22.0114 20.2458 22.0114 16.5102H20.0114C20.0114 19.1207 17.8688 21.2555 15.203 21.2555V23.2555ZM11.9 22.4098C12.8796 22.949 14.0069 23.2555 15.203 23.2555V21.2555C14.3518 21.2555 13.5554 21.0381 12.8645 20.6577L11.9 22.4098ZM10.6573 22.6861C11.3049 22.6861 11.9401 22.6286 12.5582 22.5181L12.2063 20.5493C11.7038 20.6392 11.1863 20.6861 10.6573 20.6861V22.6861ZM-0.317969 11.4584C-0.317969 17.6356 4.57246 22.6861 10.6573 22.6861V20.6861C5.72386 20.6861 1.68203 16.5784 1.68203 11.4584H-0.317969ZM-0.142219 9.44715C-0.257765 10.1004 -0.317969 10.7726 -0.317969 11.4584H1.68203C1.68203 10.8898 1.73193 10.3342 1.82721 9.79551L-0.142219 9.44715ZM-0.949219 6.72377C-0.949219 7.96501 -0.609889 9.13031 -0.0181677 10.1305L1.70316 9.11216C1.28835 8.411 1.05078 7.59604 1.05078 6.72377H-0.949219ZM5.85916 -0.0214844C2.10933 -0.0214844 -0.949219 2.98821 -0.949219 6.72377H1.05078C1.05078 4.11332 3.19324 1.97852 5.85916 1.97852V-0.0214844ZM8.73176 0.606786C7.85748 0.203209 6.88332 -0.0214844 5.85916 -0.0214844V1.97852C6.58853 1.97852 7.27715 2.13813 7.89353 2.42265L8.73176 0.606786Z"
    fill="#303030" mask="url(#path-1-inside-1)" />
  <path fill-rule="evenodd" clip-rule="evenodd"
    d="M7.75816 4.76295C8.72277 4.22489 9.85151 4.04141 10.7904 4.08801L10.8484 4.09089L10.906 4.09844C12.7976 4.34641 14.4281 5.13581 15.7922 6.54391C16.3446 7.11413 16.3302 8.02419 15.76 8.57659C15.1897 9.12899 14.2797 9.11454 13.7273 8.54432C12.8433 7.63177 11.8335 7.13149 10.593 6.95729C10.098 6.94237 9.5519 7.05442 9.15869 7.27375C8.7967 7.47567 8.64366 7.70769 8.61786 8.01899C8.59967 8.3529 8.64247 8.54031 8.68382 8.64536C8.72074 8.73915 8.78062 8.83096 8.9142 8.93935C9.25052 9.21227 9.90571 9.48415 11.1992 9.81258L11.2039 9.81379L11.2087 9.81504C11.3352 9.84807 11.4671 9.88165 11.603 9.91626C12.5347 10.1535 13.6559 10.4389 14.5201 10.9288C15.0562 11.2326 15.589 11.6609 15.9639 12.289C16.3418 12.9222 16.4916 13.6451 16.4486 14.4234C16.4037 15.934 15.6151 17.061 14.5107 17.7405C13.4577 18.3884 12.1556 18.6189 10.923 18.5772L10.9144 18.5769L10.9059 18.5765C8.31774 18.4579 6.6427 17.1254 5.67059 15.8771C5.1828 15.2507 5.29515 14.3475 5.92153 13.8597C6.54791 13.3719 7.45112 13.4843 7.93891 14.1106C8.53022 14.8699 9.48475 15.6307 11.0289 15.7041C11.8806 15.7316 12.5722 15.5576 13.0041 15.2919C13.3797 15.0607 13.5645 14.7725 13.5752 14.3281L13.5758 14.3018L13.5774 14.2755C13.5961 13.9673 13.5349 13.829 13.4952 13.7625C13.4481 13.6837 13.3473 13.5687 13.1025 13.4299C12.599 13.1445 11.9005 12.9639 10.9018 12.7056C10.7689 12.6713 10.6306 12.6355 10.4868 12.5979C9.2137 12.2745 7.98269 11.8859 7.10262 11.1718C6.62744 10.7862 6.24625 10.3022 6.00859 9.69834C5.77587 9.10707 5.71113 8.47845 5.74844 7.83912L5.74909 7.82801L5.74991 7.81691C5.86016 6.32518 6.75155 5.32444 7.75816 4.76295Z"
    stroke="#303030" stroke-width="1.1" stroke-linecap="round" />
</svg>