<svg width="24" height="20" viewBox="0 0 24 20" fill="none" xmlns="http://www.w3.org/2000/svg">
  <path
    d="M22.3072 0.849946L22.3218 0.844324L22.3361 0.837882C22.653 0.694511 22.8617 0.767555 22.9641 0.866554C23.0739 0.972669 23.2237 1.26577 23.0714 1.87669L23.069 1.88611L23.067 1.89562L19.5448 18.4949L19.5444 18.4969C19.4367 19.0138 19.2603 19.1687 19.1628 19.2126C19.0644 19.2569 18.8446 19.2797 18.4329 19.0598L13.0981 15.1194L12.7226 14.842L12.3879 15.1675L9.80991 17.6744L9.80921 17.675C9.7788 17.7044 9.75111 17.7311 9.72556 17.7556L10.0177 13.3906L19.804 4.55843C19.8046 4.55788 19.8052 4.55732 19.8059 4.55676C19.9459 4.43201 20.1375 4.21673 20.1487 3.9197C20.1551 3.75104 20.0998 3.58842 19.9913 3.45922C19.8902 3.33871 19.7651 3.27276 19.6612 3.2371C19.4599 3.16799 19.2446 3.17849 19.0638 3.21595C18.8724 3.2556 18.6718 3.33499 18.4775 3.45325L18.4774 3.45319L18.4699 3.45796L6.39735 11.0749L1.32915 9.49389L1.32669 9.49314C1.08719 9.41965 0.958887 9.33785 0.902384 9.28441C0.901257 9.28335 0.900176 9.28231 0.899139 9.28131C0.914246 9.25925 0.941926 9.22567 0.991731 9.18163C1.10883 9.07808 1.31086 8.9519 1.62595 8.82502L22.3072 0.849946Z"
    stroke="#303030" stroke-width="1.1" />
</svg>