<svg width="24" height="20" viewBox="0 0 24 20" fill="none" xmlns="http://www.w3.org/2000/svg">
  <path
    d="M22.3072 0.849458L22.3218 0.843835L22.336 0.837394C22.6529 0.694022 22.8616 0.767067 22.964 0.866065C23.0738 0.972181 23.2237 1.26529 23.0713 1.8762L23.069 1.88563L23.0669 1.89513L19.5448 18.4945L19.5444 18.4964C19.4366 19.0133 19.2602 19.1682 19.1627 19.2121C19.0643 19.2564 18.8445 19.2792 18.4328 19.0593L13.0981 15.1189L12.7226 14.8415L12.3879 15.167L9.80985 17.6739L9.80914 17.6746C9.77874 17.7039 9.75105 17.7306 9.7255 17.7551L10.0176 13.3901L19.8039 4.55794C19.8046 4.55739 19.8052 4.55683 19.8058 4.55627C19.9459 4.43152 20.1375 4.21624 20.1486 3.91921C20.155 3.75055 20.0997 3.58793 19.9913 3.45873C19.8901 3.33823 19.765 3.27227 19.6611 3.23662C19.4598 3.1675 19.2445 3.178 19.0637 3.21546C18.8724 3.25511 18.6718 3.33451 18.4774 3.45276L18.4774 3.4527L18.4698 3.45747L6.39729 11.0744L1.32909 9.4934L1.32663 9.49265C1.08713 9.41916 0.958826 9.33736 0.902323 9.28393C0.901196 9.28286 0.900115 9.28183 0.899078 9.28082C0.914185 9.25876 0.941865 9.22518 0.99167 9.18114C1.10877 9.0776 1.31079 8.95141 1.62589 8.82453L22.3072 0.849458Z"
    stroke="#303030" stroke-width="1.1" />
</svg>