<svg width="19" height="20" viewBox="0 0 19 20" fill="none" xmlns="http://www.w3.org/2000/svg">
  <path
    d="M6.62545 20C5.16959 20 3.79655 19.5355 2.65475 18.6566C2.44147 18.4926 2.23639 18.3133 2.04498 18.1242C0.712172 16.807 0.0414685 15.0527 0.156703 13.1844C0.243812 11.7723 0.812562 10.4109 1.75905 9.35117C3.01256 7.94766 4.74069 7.17461 6.62584 7.17461C6.94967 7.17461 7.27663 7.19883 7.5985 7.24648L8.0985 7.3207V11.7578L7.32858 11.5035C7.10436 11.4293 6.87116 11.3918 6.63522 11.3918C6.03912 11.3918 5.48092 11.6254 5.06334 12.0492C4.64772 12.4711 4.42389 13.0289 4.43248 13.6207C4.44381 14.3836 4.84577 15.075 5.50748 15.4711C5.81217 15.6531 6.15905 15.7598 6.51139 15.7793C6.78952 15.7945 7.06412 15.7582 7.32819 15.6711C8.23092 15.373 8.83756 14.5355 8.83756 13.5875L8.84147 8.98594V0H13.0821L13.0872 0.580469C13.0895 0.843359 13.1165 1.10625 13.1672 1.36094C13.3665 2.3625 13.9282 3.25508 14.7489 3.87383C15.4774 4.42344 16.3469 4.71367 17.2626 4.71367C17.284 4.71367 17.284 4.71367 17.4797 4.72734L18.0247 4.76562V8.35938V8.94531L17.8294 8.94492H17.4399C17.4368 8.94492 17.4337 8.94492 17.4301 8.94492H17.243C17.2423 8.94492 17.2411 8.94492 17.2399 8.94492C16.1106 8.94492 15.0524 8.72969 14.0036 8.28711C13.6911 8.15508 13.3868 8.0043 13.093 7.83594L13.1063 13.6098C13.0993 15.3176 12.4243 16.9195 11.2059 18.1238C10.2172 19.1008 8.96959 19.725 7.59772 19.9281C7.2778 19.9758 6.95084 20 6.62545 20ZM6.62545 8.34648C5.07897 8.34648 3.661 8.98047 2.63287 10.1316C1.861 10.9961 1.39694 12.1059 1.32584 13.2562C1.23209 14.7816 1.77975 16.2145 2.86842 17.2902C3.02584 17.4457 3.1942 17.593 3.3692 17.7277C4.30436 18.4477 5.43053 18.8281 6.62545 18.8281C6.89342 18.8281 7.16256 18.8082 7.42623 18.7691C8.55006 18.6027 9.57233 18.0914 10.3825 17.2906C11.3778 16.307 11.929 14.9996 11.9348 13.609L11.9165 5.54688L12.863 6.27695C13.3516 6.65391 13.8891 6.96719 14.4598 7.2082C15.2399 7.5375 16.0262 7.72031 16.8524 7.76367V5.87109C15.8313 5.79453 14.8669 5.43164 14.043 4.81016C12.9922 4.01797 12.2731 2.87422 12.0176 1.59023C11.9903 1.45234 11.968 1.31289 11.9516 1.17227H10.013V8.98633L10.009 13.5879C10.009 15.0422 9.07936 16.3266 7.69537 16.7836C7.29186 16.9168 6.87194 16.9723 6.44694 16.9492C5.90553 16.9195 5.37272 16.7559 4.90553 16.4766C3.89264 15.8707 3.27741 14.8094 3.26022 13.6379C3.24694 12.7301 3.5903 11.8738 4.2278 11.2266C4.86725 10.5773 5.72194 10.2199 6.63444 10.2199C6.73209 10.2199 6.82897 10.2242 6.92584 10.2324V8.35469C6.82584 8.34922 6.72545 8.34648 6.62545 8.34648Z"
    fill="#303030" />
</svg>