<svg width="22" height="24" viewBox="0 0 22 24" fill="none" xmlns="http://www.w3.org/2000/svg">
  <path
    d="M19.1594 2.66559L19.166 2.67172L19.1728 2.67763C20.8633 4.14434 21.9498 7.57065 21.2188 13.342L21.2186 13.3439C20.8901 16.0146 19.7363 17.4219 18.6212 18.2036C17.6983 18.8505 16.8081 19.0804 16.2495 19.2246C16.12 19.258 16.0083 19.2869 15.9182 19.3152C13.726 19.8477 11.4606 20.0124 9.21438 19.8026L8.93007 19.776L8.74476 19.9932C8.34121 20.4664 7.79964 21.0843 7.41277 21.5058C7.28523 21.6421 7.16164 21.7818 7.05012 21.9079C7.00011 21.9645 6.95252 22.0183 6.90809 22.0678C6.7554 22.238 6.63079 22.3683 6.51532 22.4653C6.40092 22.5613 6.31972 22.6034 6.26075 22.6207C6.21244 22.6348 6.15614 22.6395 6.06847 22.6119C6.04744 22.6048 5.97444 22.5596 5.91419 22.3466C5.88862 22.2562 5.8748 22.1654 5.86774 22.095C5.8643 22.0607 5.86267 22.0333 5.8619 22.016L5.86131 21.9983C5.86129 21.9977 5.86129 21.9972 5.86128 21.9969V19.6626V19.2459L5.46021 19.1331C2.95163 18.4275 1.72943 16.7957 1.12215 14.9551C0.503285 13.0794 0.532102 11.0077 0.563868 9.49348C0.625955 6.53402 1.19881 4.28952 2.70221 2.77945C4.07451 1.53525 6.20648 0.963477 8.08035 0.718456C9.00638 0.597373 9.84278 0.559286 10.4476 0.551591C10.7496 0.547749 10.9929 0.551496 11.1594 0.556136C11.2427 0.558455 11.3067 0.560995 11.3493 0.562915L11.3967 0.565225L11.4078 0.565832L11.4101 0.565965L11.4101 0.56597L11.4103 0.565981L11.4104 0.565984L11.4257 0.566915L11.4413 0.566978C16.5001 0.587515 18.6934 2.23371 19.1594 2.66559Z"
    stroke="#303030" stroke-width="1.1" />
  <path fill-rule="evenodd" clip-rule="evenodd"
    d="M11.808 7.2441C12.0882 7.23027 12.3681 7.27639 12.629 7.37937C12.8899 7.48236 13.1259 7.63984 13.3211 7.84129C13.5163 8.04274 13.6662 8.28353 13.761 8.54757C13.8557 8.81161 13.893 9.09281 13.8703 9.37241C13.8572 9.53463 13.715 9.65548 13.5528 9.64235C13.3906 9.62921 13.2697 9.48706 13.2829 9.32484C13.2987 9.12882 13.2726 8.93168 13.2062 8.74657C13.1398 8.56146 13.0347 8.39265 12.8978 8.25142C12.761 8.11019 12.5955 7.99978 12.4126 7.92758C12.2297 7.85539 12.0335 7.82305 11.837 7.83275C11.6745 7.84077 11.5362 7.7155 11.5282 7.55295C11.5202 7.39039 11.6454 7.25212 11.808 7.2441Z"
    fill="#303030" stroke="#303030" stroke-width="0.2" stroke-linecap="round" stroke-linejoin="round" />
  <path fill-rule="evenodd" clip-rule="evenodd"
    d="M11.1139 5.95965C11.118 5.79695 11.2532 5.66837 11.4159 5.67246C12.5179 5.70015 13.5663 6.15408 14.3405 6.93881C14.3434 6.94174 14.3463 6.94473 14.349 6.94778C14.7041 7.33918 14.9775 7.79752 15.1532 8.29594C15.3289 8.79436 15.4033 9.32284 15.3721 9.8504C15.3625 10.0129 15.2231 10.1368 15.0606 10.1272C14.8981 10.1176 14.7742 9.9781 14.7838 9.81563C14.8104 9.36637 14.747 8.91632 14.5974 8.49187C14.4484 8.06935 14.217 7.68066 13.9167 7.34835C13.25 6.67492 12.3485 6.28544 11.4011 6.26164C11.2384 6.25755 11.1098 6.12235 11.1139 5.95965Z"
    fill="#303030" stroke="#303030" stroke-width="0.2" stroke-linecap="round" stroke-linejoin="round" />
  <path fill-rule="evenodd" clip-rule="evenodd"
    d="M10.8543 4.14994C11.6502 4.13205 12.4417 4.27368 13.182 4.56651C13.9223 4.85934 14.5965 5.29743 15.1648 5.85495L15.1702 5.86028L15.1701 5.86035C15.7598 6.46945 16.2187 7.19258 16.5189 7.98539C16.819 8.77821 16.9541 9.62399 16.9157 10.4708C16.9083 10.6334 16.7705 10.7593 16.6079 10.7519C16.4453 10.7445 16.3195 10.6067 16.3269 10.4441C16.3617 9.67749 16.2394 8.9118 15.9677 8.19407C15.6964 7.47752 15.2818 6.82385 14.7493 6.27301C14.2377 5.77185 13.6312 5.37798 12.9652 5.11456C12.298 4.85067 11.5848 4.72304 10.8675 4.73916C10.7048 4.74282 10.57 4.61389 10.5663 4.45118C10.5626 4.28847 10.6916 4.1536 10.8543 4.14994Z"
    fill="#303030" stroke="#303030" stroke-width="0.2" stroke-linecap="round" stroke-linejoin="round" />
  <path
    d="M11.8857 13.2779C12.002 13.2865 12.1188 13.2697 12.2278 13.2285C12.3369 13.1873 12.4357 13.1227 12.5172 13.0393L12.9522 12.492C13.1011 12.3281 13.3032 12.2221 13.5227 12.1926C13.7421 12.163 13.965 12.212 14.152 12.3307C14.5242 12.5454 14.8849 12.7796 15.2325 13.0323C15.5622 13.2779 16.2288 13.8322 16.2288 13.8392C16.3858 13.9662 16.4905 14.1466 16.5229 14.3459C16.5552 14.5453 16.513 14.7495 16.4042 14.9197C16.1654 15.3344 15.8623 15.7086 15.5061 16.0283C15.2491 16.2617 14.9298 16.4152 14.587 16.4703C14.5429 16.4779 14.4978 16.4779 14.4537 16.4703C14.3229 16.4723 14.1926 16.4533 14.0678 16.4142C13.1933 16.1118 12.3517 15.7216 11.5559 15.2495C10.8153 14.8431 10.111 14.3736 9.45106 13.8462C9.11951 13.5839 8.80326 13.3028 8.50387 13.0042H8.46878C8.17206 12.7007 7.89104 12.3822 7.62683 12.05C7.10179 11.3883 6.63243 10.6843 6.22358 9.94514C5.75127 9.15046 5.36327 8.30862 5.06589 7.43331C5.02444 7.30645 5.00313 7.17387 5.00275 7.0404C4.99851 6.99607 4.99851 6.95143 5.00275 6.90709C5.05672 6.56605 5.21053 6.24865 5.44477 5.99497C5.71466 5.58627 6.04872 5.22378 6.43407 4.92148C6.6053 4.81223 6.81071 4.76973 7.01123 4.80207C7.21176 4.83441 7.39339 4.93934 7.52159 5.09689C7.52159 5.09689 8.08289 5.79852 8.32144 6.0932C8.56 6.38789 8.85468 6.90008 9.02307 7.17371C9.13877 7.36335 9.18522 7.58719 9.15452 7.8072C9.12383 8.02721 9.01787 8.22979 8.85468 8.38051L8.30741 8.8085C8.22386 8.89135 8.15926 8.99134 8.11808 9.10156C8.07689 9.21179 8.0601 9.32964 8.06886 9.44698C8.33621 10.3526 8.82528 11.1773 9.49175 11.8462C10.1582 12.5151 10.9811 13.0072 11.8857 13.2779Z"
    stroke="#303030" stroke-width="1.1" />
</svg>