<svg width="22" height="24" viewBox="0 0 22 24" fill="none" xmlns="http://www.w3.org/2000/svg">
  <path
    d="M19.1594 2.66559L19.166 2.67172L19.1728 2.67763C20.8633 4.14434 21.9498 7.57065 21.2188 13.342L21.2186 13.3439C20.8901 16.0146 19.7363 17.4219 18.6212 18.2036C17.6983 18.8505 16.8081 19.0804 16.2495 19.2246C16.12 19.258 16.0083 19.2869 15.9182 19.3152C13.726 19.8477 11.4606 20.0124 9.21438 19.8026L8.93007 19.776L8.74476 19.9932C8.34121 20.4664 7.79964 21.0843 7.41277 21.5058C7.28523 21.6421 7.16164 21.7818 7.05012 21.9079C7.00011 21.9645 6.95252 22.0183 6.90809 22.0678C6.7554 22.238 6.63079 22.3683 6.51532 22.4653C6.40092 22.5613 6.31972 22.6034 6.26075 22.6207C6.21244 22.6348 6.15614 22.6395 6.06847 22.6119C6.04744 22.6048 5.97444 22.5596 5.91419 22.3466C5.88862 22.2562 5.8748 22.1654 5.86774 22.095C5.8643 22.0607 5.86267 22.0333 5.8619 22.016L5.86131 21.9983C5.86129 21.9977 5.86129 21.9972 5.86128 21.9969V19.6626V19.2459L5.46021 19.1331C2.95163 18.4275 1.72943 16.7957 1.12215 14.9551C0.503285 13.0794 0.532102 11.0077 0.563868 9.49348C0.625955 6.53402 1.19881 4.28952 2.70221 2.77945C4.07451 1.53525 6.20648 0.963477 8.08035 0.718456C9.00638 0.597373 9.84278 0.559286 10.4476 0.551591C10.7496 0.547749 10.9929 0.551496 11.1594 0.556136C11.2427 0.558455 11.3067 0.560995 11.3493 0.562915L11.3967 0.565225L11.4078 0.565832L11.4101 0.565965L11.4101 0.56597L11.4103 0.565981L11.4104 0.565984L11.4257 0.566915L11.4413 0.566978C16.5001 0.587515 18.6934 2.23371 19.1594 2.66559Z"
    stroke="#303030" stroke-width="1.1" />
  <path fill-rule="evenodd" clip-rule="evenodd"
    d="M11.8075 7.24361C12.0877 7.22978 12.3676 7.2759 12.6285 7.37888C12.8894 7.48187 13.1254 7.63935 13.3206 7.8408C13.5158 8.04225 13.6658 8.28304 13.7605 8.54708C13.8552 8.81112 13.8925 9.09233 13.8698 9.37192C13.8567 9.53414 13.7145 9.65499 13.5523 9.64186C13.3901 9.62872 13.2692 9.48657 13.2824 9.32435C13.2983 9.12833 13.2721 8.93119 13.2057 8.74608C13.1393 8.56097 13.0342 8.39216 12.8973 8.25093C12.7605 8.1097 12.5951 7.99929 12.4121 7.9271C12.2292 7.8549 12.033 7.82257 11.8366 7.83226C11.674 7.84028 11.5357 7.71501 11.5277 7.55246C11.5197 7.38991 11.645 7.25163 11.8075 7.24361Z"
    fill="#303030" stroke="#303030" stroke-width="0.2" stroke-linecap="round" stroke-linejoin="round" />
  <path fill-rule="evenodd" clip-rule="evenodd"
    d="M11.1134 5.95916C11.1175 5.79646 11.2527 5.66788 11.4154 5.67197C12.5174 5.69966 13.5658 6.15359 14.34 6.93832C14.3429 6.94125 14.3458 6.94424 14.3485 6.94729C14.7036 7.33869 14.977 7.79703 15.1527 8.29545C15.3284 8.79388 15.4028 9.32235 15.3717 9.84991C15.3621 10.0124 15.2226 10.1363 15.0601 10.1267C14.8976 10.1171 14.7737 9.97761 14.7833 9.81514C14.8099 9.36588 14.7465 8.91583 14.5969 8.49138C14.4479 8.06887 14.2166 7.68017 13.9162 7.34786C13.2495 6.67443 12.348 6.28496 11.4006 6.26115C11.2379 6.25706 11.1093 6.12186 11.1134 5.95916Z"
    fill="#303030" stroke="#303030" stroke-width="0.2" stroke-linecap="round" stroke-linejoin="round" />
  <path fill-rule="evenodd" clip-rule="evenodd"
    d="M10.8545 4.14994C11.6504 4.13205 12.4418 4.27368 13.1821 4.56651C13.9225 4.85934 14.5966 5.29743 15.165 5.85495L15.1704 5.86028L15.1703 5.86035C15.7599 6.46945 16.2189 7.19258 16.5191 7.98539C16.8192 8.77821 16.9542 9.62399 16.9158 10.4708C16.9085 10.6334 16.7707 10.7593 16.6081 10.7519C16.4455 10.7445 16.3197 10.6067 16.3271 10.4441C16.3618 9.67749 16.2396 8.9118 15.9679 8.19407C15.6966 7.47752 15.282 6.82385 14.7495 6.27301C14.2379 5.77185 13.6313 5.37798 12.9654 5.11456C12.2982 4.85067 11.585 4.72304 10.8677 4.73916C10.705 4.74282 10.5701 4.61389 10.5665 4.45118C10.5628 4.28847 10.6918 4.1536 10.8545 4.14994Z"
    fill="#303030" stroke="#303030" stroke-width="0.2" stroke-linecap="round" stroke-linejoin="round" />
  <path
    d="M11.8861 13.2774C12.0024 13.2861 12.1192 13.2692 12.2283 13.228C12.3374 13.1868 12.4361 13.1222 12.5176 13.0388L12.9526 12.4916C13.1016 12.3277 13.3036 12.2216 13.5231 12.1921C13.7426 12.1626 13.9654 12.2115 14.1524 12.3302C14.5246 12.5449 14.8853 12.7791 15.2329 13.0318C15.5627 13.2774 16.2292 13.8317 16.2292 13.8387C16.3862 13.9657 16.4909 14.1461 16.5233 14.3454C16.5557 14.5448 16.5134 14.7491 16.4046 14.9192C16.1659 15.3339 15.8627 15.7081 15.5065 16.0278C15.2495 16.2612 14.9302 16.4148 14.5874 16.4698C14.5433 16.4774 14.4982 16.4774 14.4541 16.4698C14.3233 16.4718 14.193 16.4528 14.0682 16.4137C13.1937 16.1113 12.3521 15.7211 11.5564 15.249C10.8157 14.8426 10.1115 14.3731 9.45149 13.8457C9.11993 13.5834 8.80368 13.3023 8.5043 13.0038H8.46921C8.17248 12.7002 7.89147 12.3818 7.62726 12.0495C7.10222 11.3878 6.63286 10.6838 6.224 9.94466C5.7517 9.14997 5.3637 8.30813 5.06632 7.43283C5.02486 7.30596 5.00356 7.17338 5.00317 7.03992C4.99894 6.99558 4.99894 6.95094 5.00317 6.9066C5.05714 6.56557 5.21096 6.24816 5.4452 5.99449C5.71508 5.58578 6.04914 5.22329 6.4345 4.921C6.60572 4.81174 6.81114 4.76924 7.01166 4.80158C7.21218 4.83392 7.39382 4.93885 7.52202 5.0964C7.52202 5.0964 8.08332 5.79803 8.32187 6.09271C8.56042 6.3874 8.85511 6.89959 9.0235 7.17323C9.1392 7.36286 9.18565 7.5867 9.15495 7.80671C9.12425 8.02672 9.0183 8.2293 8.85511 8.38002L8.30784 8.80801C8.22429 8.89086 8.15969 8.99085 8.1185 9.10108C8.07732 9.2113 8.06053 9.32915 8.06928 9.44649C8.33664 10.3521 8.8257 11.1768 9.49218 11.8457C10.1587 12.5146 10.9815 13.0067 11.8861 13.2774Z"
    stroke="#303030" stroke-width="1.1" />
</svg>