<svg width="22" height="22" viewBox="0 0 22 22" fill="none" xmlns="http://www.w3.org/2000/svg">
  <path fill-rule="evenodd" clip-rule="evenodd"
    d="M18.2577 3.94987C16.3587 2.04864 13.8333 1.00116 11.1427 1C5.59871 1 1.08652 5.5119 1.08429 11.0576C1.08361 12.8304 1.54668 14.5607 2.42694 16.0861L1 21.2982L6.33206 19.8995C7.80119 20.7008 9.45526 21.1232 11.1386 21.1238H11.1428C16.6862 21.1238 21.1988 16.6113 21.2011 11.0655C21.2021 8.37806 20.1567 5.851 18.2577 3.94987Z"
    stroke="#303030" stroke-width="1.1" stroke-miterlimit="2" stroke-linejoin="round" />
  <path fill-rule="evenodd" clip-rule="evenodd"
    d="M15.8294 13.2016C15.5736 13.0737 14.3164 12.455 14.082 12.3697C13.8476 12.2845 13.6771 12.2417 13.5066 12.4978C13.3362 12.7538 12.846 13.3297 12.6968 13.5005C12.5476 13.671 12.3984 13.6925 12.1428 13.5644C11.887 13.4365 11.0631 13.1664 10.0862 12.2951C9.32606 11.617 8.81283 10.7797 8.66364 10.5235C8.51446 10.2675 8.64769 10.1292 8.7758 10.0016C8.89082 9.88702 9.03153 9.70288 9.15944 9.5536C9.28736 9.40431 9.3299 9.29757 9.41517 9.12692C9.50045 8.95627 9.45781 8.80689 9.3938 8.67898C9.3299 8.55087 8.81844 7.29212 8.60535 6.78007C8.39777 6.28152 8.18695 6.34897 8.02999 6.34109C7.881 6.3337 7.71035 6.33203 7.5398 6.33203C7.36935 6.33203 7.09235 6.39604 6.85789 6.65206C6.62353 6.90808 5.96289 7.52678 5.96289 8.78553C5.96289 10.0443 6.87916 11.2602 7.00707 11.4309C7.13489 11.6016 8.81037 14.1846 11.3756 15.2924C11.9857 15.5559 12.4621 15.7131 12.8335 15.8311C13.4462 16.0258 14.0036 15.9982 14.4442 15.9324C14.9355 15.859 15.9572 15.3137 16.1703 14.7164C16.3833 14.119 16.3833 13.6069 16.3194 13.5003C16.2555 13.3938 16.0851 13.3297 15.8294 13.2016Z"
    stroke="#303030" stroke-width="1.1" stroke-miterlimit="2" stroke-linejoin="round" />
</svg>