<svg width="120" height="120" viewBox="0 0 120 120" fill="none" xmlns="http://www.w3.org/2000/svg">
  <g clip-path="url(#clip0)">
    <path
      d="M47.0519 107.695L45.5036 118.295L47.0922 118.531L52.2423 112.135L55.3496 119.761L56.9531 120L58.5313 109.405L56.688 109.13L55.6554 116.062L53.0608 109.828L52.1916 109.698L47.879 114.997L48.9102 107.972L47.0519 107.695Z"
      fill="#231F20" />
    <path
      d="M36.356 111.022L38.9954 112.316L37.3992 115.572L39.1406 116.426L43.8553 106.807L39.7601 104.8C37.352 103.619 35.3712 104.046 34.3138 106.203C33.3102 108.251 34.0839 109.908 36.356 111.022ZM34.5494 102.246L32.8079 101.392L28.0932 111.011L29.8347 111.864L34.5494 102.246ZM39.1682 106.214L41.4403 107.327L39.6622 110.955L37.3901 109.842C36.016 109.168 35.5032 108.252 36.0959 107.043C36.7021 105.806 37.8077 105.547 39.1682 106.214Z"
      fill="#231F20" />
    <path
      d="M18.6432 103.229L21.9575 100.273C24.2111 98.2681 25.6342 97.4539 26.5236 98.3853C26.6387 98.5059 26.7218 98.6151 26.7932 98.7564L28.138 97.6608C27.9219 97.3015 27.736 97.0181 27.5058 96.777C25.9258 95.1224 23.8477 96.2478 20.6988 99.066L18.6992 100.85L15.8112 97.8253L22.3412 91.59L21.0018 90.1873L13.2544 97.5851L18.6432 103.229Z"
      fill="#231F20" />
    <path
      d="M5.22109 84.2919C6.44021 86.8328 9.0673 87.9923 11.6653 87.2163L12.3994 88.7463L8.43963 90.6462L9.2786 92.3947L18.9366 87.7608L18.0976 86.0122L13.9999 87.9783L13.2789 86.4757C15.6051 84.9562 16.4004 82.121 15.155 79.5255C13.7917 76.6841 10.6852 75.5867 7.81537 76.9636C4.94556 78.3406 3.85777 81.4505 5.22109 84.2919ZM13.5822 80.2802C14.4342 82.0561 13.7165 84.0978 11.7021 85.0643C9.68775 86.0308 7.64604 85.3131 6.79396 83.5372C5.93533 81.7477 6.65961 79.7197 8.67399 78.7531C10.6884 77.7866 12.7235 78.4907 13.5822 80.2802Z"
      fill="#231F20" />
    <path
      d="M12.2172 72.3049L11.4602 67.5926C11.0349 64.9447 9.61603 63.638 7.51583 63.9754C5.52139 64.2958 4.64739 65.802 5.05111 68.3152L5.54855 71.4119L2.94973 71.8293L1.94764 65.5911L0.33094 65.8508L1.64062 74.0039L12.2172 72.3049ZM10.3987 70.6328L7.05949 71.1692L6.62693 68.4764C6.38181 66.9505 6.78808 66.1026 7.89107 65.9254C9.00916 65.7458 9.72579 66.444 9.9661 67.94L10.3987 70.6328Z"
      fill="#231F20" />
    <path
      d="M10.684 61.1273L10.8168 59.2988L3.65899 53.0671L11.2294 53.6168L11.3699 51.6825L0.685806 50.9067L0.553034 52.7352L7.72613 58.9681L0.140453 58.4173L0 60.3516L10.684 61.1273Z"
      fill="#231F20" />
    <path
      d="M15.9209 37.7188L5.84953 34.0693L5.29809 35.5777L10.5273 41.9096L2.43164 43.4187L1.875 44.9414L11.936 48.6194L12.5758 46.8691L5.9931 44.4626L12.6225 43.1757L12.9243 42.3503L8.60163 37.0597L15.2758 39.4834L15.9209 37.7188Z"
      fill="#231F20" />
    <path
      d="M16.4446 18.8255L10.7812 25.7812L12.0866 26.8441L14.2965 24.1299L21.2981 29.8306L22.5322 28.3149L15.5306 22.6142L17.75 19.8883L16.4446 18.8255Z"
      fill="#231F20" />
    <path
      d="M29.8078 21.497C32.3958 19.469 32.8693 16.1429 30.9059 13.6374C28.9426 11.132 25.5997 10.7964 23.0118 12.8244C20.4238 14.8524 19.9598 18.1906 21.9137 20.684C23.8675 23.1774 27.2199 23.525 29.8078 21.497ZM28.7318 20.1239C27.0502 21.4416 24.8258 21.1822 23.476 19.4597C22.1262 17.7372 22.4062 15.5153 24.0878 14.1976C25.7694 12.8798 27.9938 13.1392 29.3436 14.8617C30.6934 16.5842 30.4134 18.8061 28.7318 20.1239Z"
      fill="#231F20" />
    <path
      d="M35.2953 14.8208C34.6839 15.1555 34.4613 15.8531 34.8287 16.5243C35.0932 17.0075 35.5368 17.2183 35.9971 17.1756L36.5898 19.5204L37.6664 18.9311L37.308 16.6673C37.2092 15.9189 37.1434 15.6409 36.9817 15.3456C36.6216 14.6879 35.9199 14.4788 35.2953 14.8208Z"
      fill="#231F20" />
    <path
      d="M46.6691 1.6497L47.9766 6.4324C47.2736 7.0212 46.4598 7.43407 45.6121 7.66581C44.0482 8.09334 42.9721 7.54672 42.5725 6.08534L41.7291 3.0002L39.8438 3.51562L40.7437 6.80743C41.3934 9.18402 43.2141 10.0982 45.8302 9.38302C46.6779 9.15128 47.5502 8.72242 48.4286 8.08569L49.4939 11.9827L51.3793 11.4673L48.5545 1.13427L46.6691 1.6497Z"
      fill="#231F20" />
    <path
      d="M61.6942 0.104546L52.7344 0.527344L52.8137 2.20881L56.3099 2.04383L56.7354 11.0626L58.6878 10.9705L58.2622 1.9517L61.7735 1.78601L61.6942 0.104546Z"
      fill="#231F20" />
    <path
      d="M68.6192 11.8474C71.8564 12.4224 74.6501 10.5561 75.2067 7.42207C75.7634 4.28807 73.7832 1.5739 70.546 0.998922C67.3088 0.423946 64.5124 2.3053 63.9585 5.42423C63.4045 8.54316 65.3819 11.2724 68.6192 11.8474ZM68.9243 10.1297C66.8208 9.7561 65.53 7.92596 65.9127 5.77133C66.2954 3.61671 68.1375 2.34299 70.2409 2.71659C72.3444 3.0902 73.6351 4.92034 73.2524 7.07497C72.8698 9.22959 71.0277 10.5033 68.9243 10.1297Z"
      fill="#231F20" />
    <path
      d="M90.3802 21.0384L95.9118 11.8649L94.5387 11.0316L87.3138 14.9351L87.4016 6.70046L86.0156 5.85938L80.4582 15.0172L82.0514 15.984L85.6876 9.99221L85.6658 16.7454L86.417 17.2013L92.4449 13.9855L88.7741 20.0637L90.3802 21.0384Z"
      fill="#231F20" />
    <path
      d="M101.28 21.9962L99.3386 19.789L102.062 17.3938L100.781 15.9375L92.7374 23.0119L95.7492 26.4365C97.5203 28.4503 99.5133 28.8162 101.317 27.2295C103.03 25.7237 102.951 23.8963 101.28 21.9962ZM99.5816 30.7941L100.862 32.2504L108.906 25.176L107.625 23.7197L99.5816 30.7941ZM96.8383 25.3576L95.1673 23.4576L98.201 20.7895L99.872 22.6895C100.883 23.8387 101.005 24.8813 99.9936 25.7707C98.9594 26.6802 97.8389 26.4953 96.8383 25.3576Z"
      fill="#231F20" />
    <path
      d="M109.212 46.6127L117.685 43.4931L114.999 36.199L111.769 37.2591C108.789 38.2435 106.385 38.7572 105.83 37.4276L105.673 37.001L101.948 38.3563L102.582 40.0767L104.722 39.2889L107.533 46.9242L105.393 47.712L106.021 49.4182L109.741 48.0487L109.212 46.6127ZM112.194 38.9434L114.001 38.3589L115.435 42.2547L108.542 44.7927L106.683 39.7452C107.77 40.2169 109.879 39.6988 112.194 38.9434Z"
      fill="#231F20" />
    <path
      d="M110.292 52.3523L113.227 52.0257L113.793 57.1155L115.421 56.9344L114.854 51.8446L117.623 51.5366L118.261 57.274L119.919 57.0895L119.062 49.3945L108.416 50.5792L109.296 58.4849L110.954 58.3005L110.292 52.3523Z"
      fill="#231F20" />
    <path
      d="M119.763 63.0465L115.359 62.4799C112.367 62.0918 110.82 61.5505 110.94 60.2683C110.956 60.1023 110.984 59.968 111.044 59.8215L109.335 59.5237C109.205 59.9224 109.113 60.2485 109.082 60.5804C108.867 62.8582 111.079 63.6903 115.272 64.2218L117.929 64.5632L117.538 68.7267L108.548 67.8807L108.367 69.8116L119.032 70.8152L119.763 63.0465Z"
      fill="#231F20" />
    <path
      d="M104.811 80.4498L104.099 82.3835L115.806 81.5917L116.476 79.7718L108.073 71.5917L107.371 73.497L109.336 75.3346L107.504 80.3111L104.811 80.4498ZM110.571 76.4996L114.279 79.9802L109.194 80.239L110.571 76.4996Z"
      fill="#231F20" />
    <path
      d="M103.407 86.3459L105.868 87.9794L103.035 92.2461L104.399 93.1517L107.232 88.8851L109.552 90.4255L106.359 95.2349L107.749 96.1575L112.031 89.707L103.107 83.7823L98.7071 90.4095L100.097 91.332L103.407 86.3459Z"
      fill="#231F20" />
    <path
      d="M88.7373 100.181L95.9886 108.066L97.1738 106.982L95.4562 98.9514L103.335 101.348L104.531 100.254L97.3024 92.3486L95.9271 93.6062L100.657 98.7786L94.1815 96.8613L93.5329 97.4544L94.9267 104.143L90.1239 98.9128L88.7373 100.181Z"
      fill="#231F20" />
    <path
      d="M87.9746 104.583L86.6946 105.365L90.1053 111.674L92.0189 110.505L87.9746 104.583ZM85.4212 101.857C84.8265 102.22 84.6791 102.938 85.0221 103.499C85.3652 104.061 86.0632 104.244 86.6579 103.881C87.2656 103.509 87.4339 102.797 87.0908 102.235C86.7478 101.674 86.0289 101.485 85.4212 101.857Z"
      fill="#231F20" />
    <path
      d="M74.1721 109.75C73.3269 109.991 72.7868 110.86 73.055 111.802C73.319 112.73 74.2362 113.185 75.0814 112.944C75.9266 112.703 76.4521 111.838 76.1881 110.91C75.9199 109.968 75.0173 109.509 74.1721 109.75Z"
      fill="#231F20" />
    <path
      d="M68.4578 52.5913C67.9691 52.0868 67.3889 51.6866 66.7503 51.4136C66.1117 51.1405 65.4272 51 64.7359 51C64.0446 51 63.3601 51.1405 62.7215 51.4136C62.0829 51.6866 61.5026 52.0868 61.0139 52.5913L59.9997 53.6379L58.9855 52.5913C57.9984 51.5728 56.6596 51.0005 55.2636 51.0005C53.8676 51.0005 52.5288 51.5728 51.5417 52.5913C50.5546 53.6099 50 54.9914 50 56.4319C50 57.8723 50.5546 59.2538 51.5417 60.2724L52.5559 61.3189L59.9997 69L67.4436 61.3189L68.4578 60.2724C68.9467 59.7681 69.3346 59.1694 69.5992 58.5105C69.8638 57.8515 70 57.1452 70 56.4319C70 55.7186 69.8638 55.0123 69.5992 54.3533C69.3346 53.6943 68.9467 53.0956 68.4578 52.5913Z"
      fill="#303030" />
  </g>
  <defs>
    <clipPath id="clip0">
      <rect width="120" height="120" fill="white" />
    </clipPath>
  </defs>
</svg>