<svg width="120" height="120" viewBox="0 0 120 120" fill="none" xmlns="http://www.w3.org/2000/svg">
  <path
    d="M46.881 107.71L45.332 118.297L46.9213 118.533L52.0739 112.145L55.1828 119.761L56.7871 120L58.3661 109.418L56.5219 109.144L55.4888 116.067L52.8929 109.84L52.0232 109.711L47.7085 115.003L48.7402 107.987L46.881 107.71Z"
    fill="#231F20" />
  <path
    d="M43.9966 106.72L42.3243 105.968L34.0079 110.542L37.1276 103.63L35.3586 102.834L30.9557 112.589L32.628 113.341L40.9507 108.753L37.8247 115.678L39.5938 116.474L43.9966 106.72Z"
    fill="#231F20" />
  <path
    d="M21.4768 105.892L24.5873 102.726C26.7026 100.577 28.0687 99.6704 29.0189 100.539C29.1419 100.651 29.2322 100.755 29.313 100.891L30.582 99.7091C30.3422 99.3655 30.1376 99.0956 29.8917 98.8707C28.2036 97.3275 26.2045 98.5879 23.25 101.607L21.3733 103.518L18.2878 100.697L24.3886 94.0471L22.9576 92.7389L15.7194 100.629L21.4768 105.892Z"
    fill="#231F20" />
  <path
    d="M6.84622 88.0993C8.24208 90.5449 10.9457 91.5151 13.4838 90.5591L14.3243 92.0317L10.5064 94.2033L11.467 95.8862L20.779 90.5897L19.8184 88.9068L15.8674 91.154L15.0419 89.7077C17.2563 88.0302 17.8501 85.1497 16.4242 82.6515C14.8633 79.9167 11.6855 79.042 8.91855 80.6158C6.15157 82.1896 5.28526 85.3645 6.84622 88.0993ZM14.9077 83.5141C15.8833 85.2233 15.311 87.3079 13.3688 88.4126C11.4266 89.5173 9.33834 88.946 8.36274 87.2368C7.37963 85.5144 7.95945 83.4429 9.90166 82.3382C11.8439 81.2335 13.9246 81.7917 14.9077 83.5141Z"
    fill="#231F20" />
  <path
    d="M13.0481 75.7966L11.9439 71.159C11.3235 68.5532 9.81111 67.3566 7.74061 67.8478C5.77437 68.3143 5.01385 69.8791 5.60273 72.3525L6.32833 75.4L3.76626 76.0079L2.30456 69.8686L0.71072 70.2468L2.62109 78.2705L13.0481 75.7966ZM11.1099 74.2656L7.8179 75.0466L7.18695 72.3966C6.82941 70.8949 7.17199 70.0203 8.25938 69.7623C9.36166 69.5008 10.1284 70.1433 10.4789 71.6155L11.1099 74.2656Z"
    fill="#231F20" />
  <path
    d="M10.7467 64.9542L10.7409 63.1232L3.12887 57.4575L10.7229 57.4333L10.7168 55.4964L-0.000605259 55.5305L0.00518379 57.3615L7.63252 63.0271L0.0231729 63.0513L0.0292969 64.9883L10.7467 64.9542Z"
    fill="#231F20" />
  <path
    d="M14.169 41.3987L3.83387 38.5664L3.4041 40.112L9.1238 45.9999L1.17015 48.1463L0.736328 49.7065L11.0634 52.568L11.562 50.7745L4.80522 48.9023L11.3143 47.0937L11.5495 46.248L6.81686 41.3246L13.6663 43.2068L14.169 41.3987Z"
    fill="#231F20" />
  <path
    d="M18.0674 34.5992C19.7846 31.7983 19.0658 28.5204 16.3495 26.8609C13.6332 25.2014 10.3821 26.0538 8.66493 28.8547C6.94776 31.6556 7.67967 34.9414 10.3829 36.5929C13.0861 38.2445 16.3503 37.4 18.0674 34.5992ZM16.5787 33.6896C15.4629 35.5095 13.287 36.043 11.4195 34.9021C9.55209 33.7612 9.03789 31.5842 10.1537 29.7642C11.2694 27.9443 13.4454 27.4109 15.3128 28.5518C17.1803 29.6927 17.6945 31.8697 16.5787 33.6896Z"
    fill="#231F20" />
  <path
    d="M23.9969 12.0366L17.2207 17.9102L18.3249 19.1796L20.969 16.8878L26.8915 23.6967L28.3681 22.4168L22.4456 15.6079L25.1011 13.3061L23.9969 12.0366Z"
    fill="#231F20" />
  <path
    d="M33.2548 16.7798L31.8114 14.2058L36.2823 11.7074L35.482 10.2804L31.0112 12.7788L29.65 10.3516L34.6897 7.53531L33.8745 6.08164L27.1152 9.85889L32.3505 19.1944L39.2949 15.3136L38.4797 13.86L33.2548 16.7798Z"
    fill="#231F20" />
  <path
    d="M40.9728 12.172C40.3238 12.4268 40.015 13.09 40.2952 13.8012C40.4969 14.3132 40.9107 14.5778 41.3729 14.5934L41.666 16.9911L42.8087 16.5425L42.738 14.2545C42.7342 13.5005 42.7038 13.2168 42.5806 12.9039C42.306 12.207 41.6358 11.9117 40.9728 12.172Z"
    fill="#231F20" />
  <path
    d="M62.292 9.10119L61.6698 0.105085L59.7341 0.238482L60.3562 9.23459L56.4696 9.50243L55.8475 0.506319L53.9117 0.639716L54.5338 9.63582L50.6321 9.9047L50.01 0.908595L48.0742 1.04199L48.8123 11.7153L62.1206 10.7982L62.2777 13.0701L64.0925 12.9451L63.8194 8.99593L62.292 9.10119Z"
    fill="#231F20" />
  <path
    d="M70.5481 12.3828C73.7578 13.1021 76.6341 11.3658 77.3317 8.26393C78.0293 5.16209 76.1725 2.36499 72.9629 1.64568C69.7533 0.926366 66.8736 2.67764 66.1793 5.76457C65.4851 8.8515 67.3385 11.6635 70.5481 12.3828ZM70.9305 10.6828C68.845 10.2154 67.6374 8.33132 68.117 6.19881C68.5965 4.06629 70.495 2.87834 72.5805 3.34573C74.6661 3.81311 75.8737 5.69718 75.3941 7.82969C74.9145 9.96221 73.016 11.1502 70.9305 10.6828Z"
    fill="#231F20" />
  <path
    d="M91.6503 22.3546L97.5359 13.4134L96.1955 12.5287L88.8211 16.1449L89.228 7.93012L87.875 7.03711L81.9641 15.9616L83.5195 16.9882L87.3869 11.149L87.1034 17.8878L87.8368 18.3718L93.9877 15.3957L90.0823 21.3197L91.6503 22.3546Z"
    fill="#231F20" />
  <path
    d="M93.9062 24.4484L95.1078 25.8319L104.579 25.1649L98.8415 30.1309L100.113 31.5944L108.21 24.586L107.009 23.2025L97.5256 23.8795L103.275 18.9034L102.004 17.4399L93.9062 24.4484Z"
    fill="#231F20" />
  <path
    d="M115.419 37.5835L113.779 33.5444L103.847 37.5632L104.587 39.3863L107.453 38.2266L108.353 40.4425C109.401 43.023 111.398 44.0764 113.583 43.1923C115.782 42.3024 116.467 40.164 115.419 37.5835ZM109.88 39.7268L109.014 37.5951L112.959 35.9991L113.824 38.1308C114.473 39.7296 114.086 40.8499 112.837 41.3551C111.588 41.8603 110.529 41.3256 109.88 39.7268Z"
    fill="#231F20" />
  <path
    d="M108.233 52.559C108.735 55.8042 111.406 57.8421 114.553 57.3564C117.7 56.8707 119.63 54.123 119.127 50.8778C118.624 47.6325 115.939 45.597 112.807 46.0803C109.675 46.5637 107.73 49.3137 108.233 52.559ZM109.958 52.2928C109.631 50.1841 110.946 48.3734 113.11 48.0394C115.274 47.7055 117.076 49.0353 117.402 51.144C117.729 53.2526 116.413 55.0634 114.25 55.3973C112.086 55.7312 110.284 54.4014 109.958 52.2928Z"
    fill="#231F20" />
  <path
    d="M109.234 60.3794L108.777 65.1243C108.521 67.7905 109.564 69.4108 111.683 69.6141C113.694 69.8071 114.921 68.5717 115.164 66.0411L115.465 62.923L118.086 63.1745L117.481 69.4558L119.112 69.6123L119.902 61.4028L109.234 60.3794ZM110.572 62.4537L113.941 62.7768L113.68 65.4882C113.532 67.0246 112.924 67.7417 111.812 67.6349C110.684 67.5267 110.166 66.6714 110.311 65.165L110.572 62.4537Z"
    fill="#231F20" />
  <path
    d="M107.869 71.3634L107.279 73.0972L112.638 80.9223L105.447 78.4849L104.823 80.319L114.971 83.7589L115.561 82.0251L110.188 74.195L117.394 76.6373L118.018 74.8032L107.869 71.3634Z"
    fill="#231F20" />
  <path
    d="M97.1932 92.583L106.045 98.615L106.954 97.2928L103.463 89.8687L111.683 90.4197L112.602 89.085L103.767 83.0279L102.711 84.5622L108.492 88.5253L101.747 88.1235L101.249 88.847L104.122 95.0387L98.2573 91.0362L97.1932 92.583Z"
    fill="#231F20" />
  <path
    d="M91.0372 97.7234C88.5066 99.8213 88.1274 103.155 90.162 105.601C92.1966 108.047 95.5493 108.287 98.08 106.189C100.611 104.091 100.98 100.745 98.9552 98.3115C96.9304 95.8776 93.5679 95.6255 91.0372 97.7234ZM92.1523 99.0638C93.7967 97.7006 96.0287 97.8966 97.4275 99.578C98.8262 101.259 98.6092 103.486 96.9649 104.849C95.3205 106.212 93.0885 106.016 91.6897 104.335C90.291 102.653 90.508 100.427 92.1523 99.0638Z"
    fill="#231F20" />
  <path
    d="M86.7188 105.335L85.4179 106.082L88.6626 112.471L90.6072 111.354L86.7188 105.335ZM84.237 102.546C83.6326 102.893 83.4662 103.606 83.7945 104.176C84.1228 104.745 84.816 104.947 85.4205 104.6C86.038 104.245 86.2252 103.538 85.8969 102.968C85.5686 102.399 84.8546 102.191 84.237 102.546Z"
    fill="#231F20" />
  <path
    d="M73.2057 109.982C72.356 110.207 71.8005 111.066 72.0523 112.012C72.3001 112.942 73.2097 113.413 74.0594 113.187C74.9091 112.962 75.4499 112.106 75.2021 111.176C74.9503 110.23 74.0554 109.756 73.2057 109.982Z"
    fill="#231F20" />
</svg>