<svg width="140" height="142" viewBox="0 0 140 142" fill="none" xmlns="http://www.w3.org/2000/svg">
<path d="M62.42 140.517C65.6491 140.873 67.9186 139.372 68.2311 136.419C68.4472 134.377 67.6018 132.827 65.9116 131.977L69.0495 128.34L66.5641 128.065L63.8296 131.36L60.4372 130.985L60.8134 127.431L58.4913 127.174L57.1409 139.934L62.42 140.517ZM62.5596 138.504L59.6752 138.185L60.2327 132.917L63.2079 133.246C65.1127 133.456 66.0101 134.514 65.8326 136.191C65.6475 137.941 64.4826 138.716 62.5596 138.504Z" fill="#303030"/>
<path d="M42.9954 135.6L44.7828 130.634L51.0094 132.918L49.222 137.884L51.458 138.705L55.7874 126.677L53.5514 125.856L51.6959 131.011L45.4694 128.727L47.3248 123.572L45.0888 122.751L40.7594 134.78L42.9954 135.6Z" fill="#303030"/>
<path d="M34.6631 116.106L32.5958 114.727L30.3148 128.592L32.2605 129.89L44.1334 122.427L42.0964 121.068L39.408 122.834L34.0876 119.283L34.6631 116.106ZM37.7068 123.941L32.6185 127.271L33.709 121.273L37.7068 123.941Z" fill="#303030"/>
<path d="M28.9228 111.007L25.3367 106.559C23.3216 104.06 21.0652 103.551 19.0729 105.159C17.1809 106.686 17.1622 108.776 19.0748 111.148L21.4314 114.071L18.9661 116.061L14.2187 110.173L12.6851 111.411L18.8896 119.106L28.9228 111.007ZM26.0323 110.357L22.8647 112.914L20.8154 110.372C19.6542 108.932 19.5753 107.807 20.6216 106.962C21.6822 106.106 22.8446 106.403 23.983 107.815L26.0323 110.357Z" fill="#303030"/>
<path d="M17.0284 92.5791L15.9316 90.3784L6.91654 101.317L7.94884 103.388L22.0528 102.66L20.9721 100.492L17.7395 100.724L14.9168 95.0599L17.0284 92.5791ZM15.6997 100.86L9.58826 101.287L13.5786 96.6044L15.6997 100.86Z" fill="#303030"/>
<path d="M2.79965 90.7807L8.04131 89.6681C11.6029 88.9159 13.5776 88.911 13.9375 90.4059C13.9841 90.5993 14.0043 90.762 13.9928 90.9512L16.0569 90.6074C16.0501 90.1059 16.0287 89.7012 15.9355 89.3143C15.2961 86.6588 12.4511 86.5998 7.46468 87.6678L4.30176 88.3399L3.133 83.486L13.7109 80.8646L13.1689 78.6135L0.618814 81.7237L2.79965 90.7807Z" fill="#303030"/>
<path d="M12.9521 66.1796L12.9712 63.7061L0.0622212 69.3487L0.0442431 71.6768L12.8646 77.5107L12.8834 75.0735L9.91587 73.7943L9.96502 67.4286L12.9521 66.1796ZM8.04749 72.9788L2.44223 70.5504L8.08443 68.1954L8.04749 72.9788Z" fill="#303030"/>
<path d="M4.64438 45.4257L15.0932 48.5921L13.7736 53.0519L3.32477 49.8854L2.66753 52.1066L13.1164 55.2731L11.7916 59.7502L1.34278 56.5837L0.685547 58.8049L13.0825 62.5617L17.6985 46.9613L5.30162 43.2045L4.64438 45.4257Z" fill="#303030"/>
<path d="M22.5133 39.735C24.6833 36.4594 23.9467 32.4897 20.7491 30.3625C17.5516 28.2353 13.6149 29.0961 11.4449 32.3717C9.27483 35.6473 10.0268 39.6272 13.209 41.7442C16.3912 43.8611 20.3432 43.0106 22.5133 39.735ZM20.7608 38.5692C19.3508 40.6976 16.7173 41.2292 14.519 39.7667C12.3207 38.3043 11.7873 35.6659 13.1974 33.5375C14.6074 31.4091 17.2408 30.8775 19.4391 32.34C21.6374 33.8024 22.1708 36.4408 20.7608 38.5692Z" fill="#303030"/>
<path d="M29.1212 22.0768C29.6482 20.8985 29.5025 19.7134 28.5737 18.6975C27.137 17.1262 25.0807 17.4148 22.9838 19.3325L18.7764 23.1803L27.446 32.6623L31.9088 28.581C34.2478 26.4419 34.5669 24.3344 33.0683 22.6954C31.9784 21.5034 30.6014 21.3201 29.1212 22.0768ZM21.7355 22.9613L24.0744 20.8223C25.2036 19.7897 26.2296 19.6971 27.047 20.5911C27.852 21.4715 27.6682 22.4853 26.5391 23.5179L24.2001 25.6569L21.7355 22.9613ZM30.6165 27.2756L27.9281 29.7342L25.3767 26.9438L28.0652 24.4851C29.275 23.3788 30.3165 23.2221 31.1835 24.1703C32.0505 25.1185 31.8263 26.1692 30.6165 27.2756Z" fill="#303030"/>
<path d="M45.4203 19.3693L47.575 18.1253L36.2108 9.92445L34.1829 11.0953L35.5502 25.0682L37.6732 23.8424L37.2949 20.6444L42.8399 17.4428L45.4203 19.3693ZM37.0656 18.6257L36.3617 12.5789L41.2323 16.2199L37.0656 18.6257Z" fill="#303030"/>
<path d="M57.015 12.3216C58.0505 12.0924 58.7706 11.0904 58.5251 9.94635C58.2835 8.82021 57.2182 8.21343 56.1828 8.44266C55.1473 8.67188 54.4451 9.66993 54.6867 10.7961C54.9321 11.9401 55.9795 12.5508 57.015 12.3216Z" fill="#303030"/>
<path d="M75.1969 1.41209C71.9585 1.16315 69.7404 2.73946 69.526 5.70175C69.3777 7.74975 70.2737 9.27123 71.9908 10.0652L68.9758 13.8051L71.4683 13.9967L74.0917 10.6128L77.4938 10.8743L77.2357 14.44L79.5644 14.6191L80.4912 1.81906L75.1969 1.41209ZM75.124 3.42911L78.0168 3.65147L77.6342 8.93604L74.6504 8.70668C72.7401 8.55984 71.8083 7.53206 71.9301 5.84978C72.0572 4.09435 73.1955 3.28086 75.124 3.42911Z" fill="#303030"/>
<path d="M94.7024 5.70603L93.0832 10.7305L86.7851 8.65592L88.4043 3.63143L86.1426 2.88641L82.2206 15.0565L84.4824 15.8015L86.1632 10.5857L92.4612 12.6603L90.7804 17.8761L93.0421 18.6211L96.9641 6.45105L94.7024 5.70603Z" fill="#303030"/>
<path d="M103.639 24.885L105.752 26.197L107.564 12.2658L105.576 11.0309L93.9618 18.8749L96.0433 20.1676L98.6706 18.3147L104.107 21.6911L103.639 24.885ZM100.333 17.1534L105.306 13.6598L104.419 19.6905L100.333 17.1534Z" fill="#303030"/>
<path d="M109.64 29.815L113.373 34.147C115.471 36.5812 117.742 37.0175 119.678 35.3442C121.516 33.7552 121.464 31.6645 119.473 29.3541L117.02 26.5074L119.415 24.4369L124.356 30.1716L125.846 28.8836L119.388 21.3885L109.64 29.815ZM112.55 30.3715L115.627 27.7111L117.76 30.1866C118.969 31.5893 119.086 32.712 118.07 33.5908C117.039 34.4816 115.868 34.2222 114.683 32.847L112.55 30.3715Z" fill="#303030"/>
<path d="M122.068 47.8128L123.239 49.9759L131.88 38.7481L130.778 36.7122L116.705 37.9035L117.859 40.0349L121.082 39.6972L124.095 45.2641L122.068 47.8128ZM123.116 39.4933L129.21 38.866L125.38 43.6765L123.116 39.4933Z" fill="#303030"/>
<path d="M136.411 49.1047L131.209 50.3971C127.673 51.2715 125.699 51.3444 125.288 49.8635C125.235 49.6719 125.21 49.51 125.215 49.3206L123.163 49.7353C123.186 50.2361 123.222 50.6396 123.328 51.0229C124.058 53.6537 126.904 53.6145 131.853 52.3754L134.993 51.5949L136.326 56.4035L125.84 59.3875L126.458 61.6176L138.9 58.0773L136.411 49.1047Z" fill="#303030"/>
<path d="M127.074 74.0545L127.134 76.5264L139.861 70.4533L139.804 68.1268L126.798 62.7312L126.857 65.1667L129.866 66.3445L130.021 72.706L127.074 74.0545ZM131.76 67.0962L137.443 69.3331L131.877 71.8764L131.76 67.0962Z" fill="#303030"/>
<path d="M136.145 94.5451L125.601 91.7305L126.771 87.2274L137.315 90.042L137.898 87.7992L127.354 84.9846L128.528 80.464L139.072 83.2787L139.655 81.0359L127.145 77.6965L123.052 93.4485L135.562 96.7879L136.145 94.5451Z" fill="#303030"/>
<path d="M118.327 100.813C116.271 104.159 117.144 108.103 120.413 110.123C123.682 112.143 127.587 111.152 129.642 107.806C131.698 104.46 130.809 100.507 127.556 98.4968C124.303 96.4865 120.382 97.4676 118.327 100.813ZM120.118 101.921C121.454 99.7466 124.068 99.1279 126.315 100.517C128.562 101.905 129.186 104.525 127.851 106.699C126.515 108.873 123.901 109.491 121.654 108.103C119.407 106.714 118.782 104.095 120.118 101.921Z" fill="#303030"/>
<path d="M112.36 118.72C111.873 119.915 112.058 121.094 113.021 122.08C114.509 123.605 116.555 123.251 118.586 121.267L122.661 117.288L113.678 108.088L109.355 112.309C107.09 114.521 106.842 116.638 108.395 118.228C109.524 119.384 110.906 119.524 112.36 118.72ZM119.711 117.601L117.446 119.813C116.352 120.881 115.33 121.006 114.483 120.139C113.649 119.285 113.798 118.266 114.892 117.198L117.158 114.985L119.711 117.601ZM110.691 113.572L113.295 111.029L115.938 113.737L113.334 116.28C112.163 117.424 111.127 117.614 110.229 116.694C109.33 115.774 109.519 114.717 110.691 113.572Z" fill="#303030"/>
<path d="M96.2522 121.943L94.1411 123.257L105.78 131.079L107.767 129.842L105.923 115.922L103.843 117.217L104.33 120.401L98.8971 123.784L96.2522 121.943ZM104.628 122.411L105.538 128.431L100.546 124.953L104.628 122.411Z" fill="#303030"/>
<path d="M84.719 129.365C83.6912 129.629 83.0046 130.655 83.2881 131.789C83.5671 132.906 84.6524 133.476 85.6802 133.212C86.7079 132.948 87.3768 131.927 87.0978 130.81C86.8143 129.676 85.7467 129.101 84.719 129.365Z" fill="#303030"/>
</svg>
