<svg width="413" height="413" viewBox="0 0 413 413" fill="none" xmlns="http://www.w3.org/2000/svg">
  <path className="cyrcle__bg-1"
    d="M-6.44735e-05 206.5C-4.95181e-05 320.547 92.4532 413 206.5 413C320.547 413 413 320.547 413 206.5C413 92.4532 320.547 1.21238e-05 206.5 2.70792e-05C92.4531 4.20347e-05 -7.9429e-05 92.4532 -6.44735e-05 206.5Z"
    fill="#F3A100" />
  <path className="cyrcle__bg-2"
    d="M154.875 129.063C154.875 200.342 212.658 258.125 283.938 258.125C355.217 258.125 413 200.342 413 129.062C413 57.7832 355.217 7.57736e-06 283.937 1.69245e-05C212.658 2.62717e-05 154.875 57.7833 154.875 129.063Z"
    fill="#FFEB35" />
</svg>