<svg width="100" height="100" viewBox="0 0 100 100" fill="none" xmlns="http://www.w3.org/2000/svg">
  <path
    d="M42.4121 95.036C41.554 95.2909 40.9956 95.9041 40.8794 96.8544C40.6996 98.3241 41.7784 99.2794 43.7335 99.5191L47.6562 100L48.7414 91.1307L44.5805 90.6207C42.3998 90.3533 41.1462 91.1385 40.9586 92.6716C40.8222 93.7866 41.3464 94.5967 42.4121 95.036ZM46.2071 98.5363L44.0264 98.269C42.9737 98.1399 42.4624 97.64 42.5647 96.8038C42.6655 95.9802 43.2821 95.6185 44.3349 95.7476L46.5156 96.0149L46.2071 98.5363ZM44.4756 91.8938L46.9822 92.2011L46.6628 94.8112L44.1563 94.5039C43.0284 94.3657 42.4764 93.8865 42.5849 92.9995C42.6934 92.1126 43.3477 91.7556 44.4756 91.8938Z"
    fill="#303030" />
  <path
    d="M32.1768 92.0514C31.2832 92.1009 30.5983 92.5682 30.2658 93.4659C29.7515 94.8543 30.5805 96.0333 32.4273 96.7188L36.1328 98.0942L39.2365 89.7161L35.3061 88.2572C33.2462 87.4926 31.8452 87.9665 31.3087 89.4147C30.9185 90.4679 31.2415 91.3774 32.1768 92.0514ZM35.0609 96.3349L33.0009 95.5703C32.0065 95.2012 31.6245 94.5965 31.9172 93.8066C32.2054 93.0286 32.8888 92.8194 33.8833 93.1885L35.9432 93.9531L35.0609 96.3349ZM34.9101 89.4717L37.2778 90.3505L36.3644 92.8161L33.9967 91.9372C32.9312 91.5418 32.5049 90.9478 32.8152 90.11C33.1256 89.2722 33.8446 89.0762 34.9101 89.4717Z"
    fill="#303030" />
  <path
    d="M28.3193 86.4265L26.9773 88.4918L23.3998 86.1626L22.6558 87.3076L26.2333 89.6367L24.9679 91.5843L20.9352 88.9588L20.1773 90.1251L25.5859 93.6465L30.4532 86.156L24.8963 82.5382L24.1384 83.7045L28.3193 86.4265Z"
    fill="#303030" />
  <path
    d="M14.442 85.04L16.9922 87.6348L23.3559 81.3683L22.2048 80.1971L20.3684 82.0054L18.9693 80.5818C17.3401 78.924 15.467 78.7474 14.067 80.126C12.6579 81.5136 12.8128 83.3822 14.442 85.04ZM18.0225 81.6206L19.3684 82.9901L16.8411 85.4788L15.4952 84.1093C14.4857 83.0822 14.4269 82.094 15.2269 81.3063C16.0269 80.5185 17.013 80.5935 18.0225 81.6206Z"
    fill="#303030" />
  <path
    d="M10.2415 80.5248L12.2571 75.6412L17.8366 75.8252L16.8045 74.2355L12.8325 74.0912L14.307 70.3887L13.2474 68.7567L11.1028 73.9804L5.89308 73.8272L6.9389 75.438L10.5763 75.5589L9.20942 78.9352L10.2415 80.5248Z"
    fill="#303030" />
  <path
    d="M8.03018 60.2952C7.85584 59.5832 7.14819 59.1062 6.35549 59.3007C5.57517 59.4921 5.1681 60.2426 5.34244 60.9546C5.51678 61.6666 6.22143 62.1313 7.00174 61.9399C7.79444 61.7454 8.20452 61.0071 8.03018 60.2952Z"
    fill="#303030" />
  <path
    d="M4.88832 43.0229C4.62217 42.1676 4.00219 41.6169 3.05137 41.5133C1.58076 41.353 0.640929 42.4456 0.427741 44.4057L0 48.3384L8.87436 49.3055L9.32806 45.1341C9.56585 42.9479 8.76474 41.7037 7.23074 41.5365C6.11511 41.4149 5.31284 41.9504 4.88832 43.0229ZM1.44269 46.8683L1.68047 44.6821C1.79527 43.6267 2.2878 43.1082 3.12453 43.1994C3.94858 43.2892 4.31812 43.9016 4.20333 44.957L3.96554 47.1432L1.44269 46.8683ZM8.05483 45.0462L7.78151 47.5591L5.16992 47.2745L5.44324 44.7616C5.56623 43.6308 6.03751 43.0719 6.92494 43.1686C7.81238 43.2653 8.17782 43.9154 8.05483 45.0462Z"
    fill="#303030" />
  <path
    d="M7.7424 32.8139C7.68125 31.9201 7.20542 31.2407 6.30437 30.9196C4.91075 30.423 3.7438 31.2683 3.08322 33.1257L1.75781 36.8525L10.1676 39.8493L11.5735 35.8962C12.3103 33.8245 11.8186 32.4284 10.3649 31.9104C9.30768 31.5337 8.40337 31.8688 7.7424 32.8139ZM3.50123 35.7566L4.23804 33.6848C4.59374 32.6846 5.19277 32.2944 5.98569 32.5769C6.7666 32.8552 6.98453 33.5366 6.62883 34.5367L5.89202 36.6085L3.50123 35.7566ZM10.3551 35.5158L9.50823 37.8971L7.03335 37.0152L7.88025 34.6339C8.26136 33.5623 8.84907 33.1277 9.69005 33.4274C10.531 33.7271 10.7362 34.4442 10.3551 35.5158Z"
    fill="#303030" />
  <path
    d="M13.3029 28.8385L11.2222 27.5226L13.5019 23.9112L12.3483 23.1816L10.0687 26.793L8.10658 25.552L10.6762 21.4812L9.5011 20.738L6.05469 26.1978L13.6013 30.9708L17.1421 25.3614L15.967 24.6181L13.3029 28.8385Z"
    fill="#303030" />
  <path
    d="M14.4739 14.9611L11.9141 17.5464L18.2544 23.8365L19.4099 22.6695L17.5802 20.8544L18.9846 19.4361C20.62 17.7843 20.7728 15.9073 19.3779 14.5235C17.974 13.1307 16.1093 13.3094 14.4739 14.9611ZM17.9349 18.5015L16.5839 19.8659L14.0659 17.3679L15.4169 16.0034C16.4301 14.98 17.4165 14.9087 18.2135 15.6995C19.0106 16.4902 18.9481 17.4781 17.9349 18.5015Z"
    fill="#303030" />
  <path
    d="M18.918 10.7382L23.8221 12.6933L23.7096 18.2802L25.2843 17.2269L25.3778 13.2494L29.0952 14.6779L30.712 13.5966L25.4664 11.5168L25.5529 6.30043L23.9572 7.36775L23.8829 11.01L20.4927 9.68496L18.918 10.7382Z"
    fill="#303030" />
  <path
    d="M39.1106 8.25693C39.8196 8.07327 40.287 7.35884 40.0825 6.56793C39.8812 5.78938 39.1263 5.39159 38.4173 5.57525C37.7083 5.75891 37.2532 6.47017 37.4544 7.24872C37.6589 8.03963 38.4016 8.44058 39.1106 8.25693Z"
    fill="#303030" />
  <path
    d="M56.3478 4.82497C57.1989 4.54771 57.7413 3.92017 57.8328 2.96718C57.9745 1.49324 56.8712 0.56649 54.9105 0.378062L50.9766 0L50.1218 8.89449L54.2945 9.2955C56.4815 9.50567 57.7143 8.68802 57.8621 7.15054C57.9695 6.03238 57.4245 5.23622 56.3478 4.82497ZM52.4632 1.42525L54.6501 1.63542C55.7059 1.73688 56.23 2.22325 56.1494 3.06187C56.07 3.88779 55.4629 4.26546 54.4071 4.16399L52.2202 3.95383L52.4632 1.42525ZM54.3664 8.02003L51.8527 7.77846L52.1042 5.16094L54.6179 5.40251C55.7491 5.51122 56.3133 5.9758 56.2278 6.86525C56.1423 7.7547 55.4975 8.12874 54.3664 8.02003Z"
    fill="#303030" />
  <path
    d="M66.6106 7.50251C67.5027 7.42992 68.1752 6.94501 68.4845 6.03906C68.9628 4.63786 68.1036 3.48063 66.2397 2.8431L62.5 1.56396L59.6135 10.0195L63.5803 11.3763C65.6592 12.0874 67.0475 11.5775 67.5465 10.1159C67.9093 9.0529 67.5631 8.15205 66.6106 7.50251ZM63.617 3.295L65.696 4.00608C66.6996 4.34937 67.0971 4.94397 66.8249 5.7412C66.5569 6.52636 65.879 6.75316 64.8754 6.40987L62.7964 5.69879L63.617 3.295ZM63.9448 10.152L61.5552 9.33467L62.4047 6.84632L64.7943 7.66367C65.8696 8.03147 66.3112 8.61417 66.0225 9.45973C65.7339 10.3053 65.0202 10.5198 63.9448 10.152Z"
    fill="#303030" />
  <path
    d="M70.6969 13.0561L71.9849 10.9567L75.6216 13.1922L76.3357 12.0283L72.699 9.7928L73.9135 7.81305L78.0129 10.3329L78.7403 9.14723L73.2422 5.76758L68.5708 13.382L74.2195 16.8543L74.9469 15.6686L70.6969 13.0561Z"
    fill="#303030" />
  <path
    d="M84.4528 14.0621L81.8359 11.5347L75.6375 17.9649L76.8187 19.1058L78.6074 17.2502L80.043 18.6368C81.7149 20.2515 83.5919 20.3793 84.9556 18.9646C86.3281 17.5408 86.1246 15.6768 84.4528 14.0621ZM80.9625 17.5736L79.5814 16.2397L82.0431 13.686L83.4242 15.0199C84.46 16.0204 84.5445 17.0066 83.7653 17.815C82.9861 18.6234 81.9984 18.5741 80.9625 17.5736Z"
    fill="#303030" />
  <path
    d="M88.7862 18.4953L86.8958 23.4288L81.3134 23.3874L82.3857 24.9501L86.3601 24.993L84.9805 28.7319L86.0814 30.3363L88.0921 25.0595L93.304 25.0796L92.2174 23.496L88.5781 23.4681L89.8585 20.058L88.7862 18.4953Z"
    fill="#303030" />
  <path
    d="M91.4353 38.641C91.6279 39.3483 92.3476 39.8069 93.135 39.5921C93.9102 39.3806 94.2978 38.6199 94.1053 37.9127C93.9127 37.2054 93.1963 36.759 92.4212 36.9704C91.6337 37.1853 91.2428 37.9338 91.4353 38.641Z"
    fill="#303030" />
  <path
    d="M95.2475 55.8774C95.5351 56.7257 96.1688 57.2605 97.122 57.3401C98.5962 57.4631 99.5081 56.347 99.6717 54.3822L100 50.4399L91.104 49.6977L90.7558 53.8792C90.5733 56.0708 91.4056 57.2943 92.9433 57.4226C94.0617 57.5159 94.8502 56.9603 95.2475 55.8774ZM98.5949 51.9461L98.4124 54.1376C98.3243 55.1956 97.845 55.7263 97.0063 55.6563C96.1802 55.5874 95.7953 54.9846 95.8834 53.9266L96.0659 51.7351L98.5949 51.9461ZM92.0309 53.9349L92.2406 51.4159L94.8586 51.6343L94.6488 54.1533C94.5544 55.2869 94.0974 55.8575 93.2078 55.7833C92.3182 55.7091 91.9365 55.0685 92.0309 53.9349Z"
    fill="#303030" />
  <path
    d="M92.5593 66.1181C92.6435 67.01 93.1368 67.6768 94.0458 67.9744C95.4518 68.4348 96.5965 67.5596 97.2089 65.6857L98.4375 61.9258L89.953 59.1478L88.6498 63.1359C87.9668 65.2261 88.4944 66.6089 89.961 67.0891C91.0276 67.4383 91.923 67.0799 92.5593 66.1181ZM96.723 63.0665L96.04 65.1567C95.7102 66.1657 95.1215 66.5713 94.3215 66.3094C93.5337 66.0515 93.2982 65.376 93.628 64.3669L94.311 62.2768L96.723 63.0665ZM89.8776 63.4847L90.6627 61.0823L93.1595 61.8998L92.3744 64.3023C92.0212 65.3834 91.4449 65.833 90.5964 65.5552C89.748 65.2774 89.5243 64.5659 89.8776 63.4847Z"
    fill="#303030" />
  <path
    d="M87.2178 70.2246L89.3315 71.4868L87.145 75.1554L88.3168 75.8552L90.5033 72.1866L92.4965 73.3769L90.0319 77.5122L91.2256 78.2251L94.5312 72.6787L86.865 68.1007L83.4688 73.799L84.6626 74.5119L87.2178 70.2246Z"
    fill="#303030" />
  <path
    d="M86.3756 84.1273L88.8672 81.4761L82.3653 75.3534L81.2406 76.5502L83.1169 78.317L81.7499 79.7714C80.158 81.4653 80.0542 83.3456 81.4846 84.6926C82.9243 86.0483 84.7837 85.8211 86.3756 84.1273ZM82.8236 80.6783L84.1386 79.2791L86.7208 81.7107L85.4057 83.1099C84.4195 84.1593 83.4353 84.2564 82.6179 83.4867C81.8006 82.717 81.8373 81.7278 82.8236 80.6783Z"
    fill="#303030" />
  <path
    d="M81.8662 88.4843L76.9139 86.655L76.8841 81.0671L75.3366 82.1602L75.3445 86.1387L71.5919 84.8056L70.0033 85.9278L75.3001 87.8731L75.3465 93.09L76.9145 91.9823L76.896 88.3393L80.3188 89.5774L81.8662 88.4843Z"
    fill="#303030" />
  <path
    d="M61.8056 91.4543C61.1017 91.6564 60.653 92.3828 60.878 93.1681C61.0995 93.9411 61.8646 94.319 62.5685 94.117C63.2725 93.9149 63.709 93.192 63.4875 92.4189C63.2625 91.6336 62.5096 91.2522 61.8056 91.4543Z"
    fill="#303030" />
</svg>