<svg width="100" height="100" viewBox="0 0 100 100" fill="none" xmlns="http://www.w3.org/2000/svg">
  <path
    d="M42.4121 95.036C41.554 95.2909 40.9956 95.9041 40.8794 96.8544C40.6996 98.3241 41.7784 99.2794 43.7335 99.5191L47.6562 100L48.7414 91.1307L44.5805 90.6207C42.3998 90.3533 41.1462 91.1385 40.9586 92.6716C40.8222 93.7866 41.3464 94.5967 42.4121 95.036ZM46.2071 98.5363L44.0264 98.269C42.9737 98.1399 42.4624 97.64 42.5647 96.8038C42.6655 95.9802 43.2821 95.6185 44.3349 95.7476L46.5156 96.0149L46.2071 98.5363ZM44.4756 91.8938L46.9822 92.2011L46.6628 94.8112L44.1563 94.5039C43.0284 94.3657 42.4764 93.8865 42.5849 92.9995C42.6934 92.1126 43.3477 91.7556 44.4756 91.8938Z"
    fill="#303030" />
  <path
    d="M30.6687 96.1071L36.3281 98.0942L39.283 89.6624L37.7579 89.1269L35.2793 96.2379L31.145 94.7862L30.6687 96.1071Z"
    fill="#303030" />
  <path
    d="M29.5698 85.4061C27.1969 84.0349 24.4782 84.7042 23.152 87.0037C21.8258 89.3032 22.6062 91.9946 24.9791 93.3658C27.352 94.737 30.0771 94.0566 31.3969 91.7682C32.7167 89.4798 31.9426 86.7773 29.5698 85.4061ZM28.8429 86.6664C30.3847 87.5574 30.8762 89.3595 29.9644 90.9404C29.0527 92.5213 27.2478 92.9965 25.706 92.1055C24.1641 91.2145 23.6727 89.4124 24.5844 87.8315C25.4962 86.2506 27.3011 85.7754 28.8429 86.6664Z"
    fill="#303030" />
  <path
    d="M14.9859 85.6197L17.5781 88.1724L23.8384 81.8025L22.6683 80.6502L20.8618 82.4884L19.4396 81.088C17.7834 79.4571 15.9077 79.3112 14.5304 80.7125C13.1442 82.123 13.3297 83.9888 14.9859 85.6197ZM18.5099 82.1421L19.878 83.4894L17.3918 86.0191L16.0236 84.6719C14.9975 83.6615 14.9226 82.6744 15.7096 81.8736C16.4966 81.0729 17.4837 81.1317 18.5099 82.1421Z"
    fill="#303030" />
  <path
    d="M7.01834 75.405L12.8707 74.7307L9.96297 79.8197L10.9375 81.2808L14.5177 74.6482L14.7751 74.6433C15.4663 74.6221 15.9062 74.8448 16.1937 75.2757C16.3409 75.4965 16.4421 75.7632 16.5326 76.0826L17.8387 75.696C17.7524 75.2218 17.5813 74.8043 17.3499 74.4574C16.754 73.564 15.705 73.0948 14.2446 73.2502L6.12093 74.0595L7.01834 75.405Z"
    fill="#303030" />
  <path
    d="M8.2116 60.5716C8.03228 59.8608 7.32129 59.3888 6.52997 59.5889C5.75102 59.7858 5.34922 60.5391 5.52855 61.2499C5.70787 61.9606 6.41577 62.4204 7.19472 62.2234C7.98604 62.0234 8.39093 61.2823 8.2116 60.5716Z"
    fill="#303030" />
  <path
    d="M4.87154 43.154C4.60269 42.2995 3.98097 41.7508 3.02982 41.6502C1.55871 41.4945 0.622332 42.5901 0.41533 44.5509L0 48.4849L8.87739 49.4239L9.31793 45.2511C9.54882 43.0642 8.74378 41.8225 7.20926 41.6602C6.09325 41.5421 5.29267 42.0802 4.87154 43.154ZM1.43805 47.0102L1.66893 44.8233C1.78039 43.7675 2.27129 43.2475 3.1083 43.3361C3.93263 43.4233 4.30411 44.0345 4.19265 45.0902L3.96176 47.2772L1.43805 47.0102ZM8.04442 45.1672L7.77904 47.681L5.16655 47.4046L5.43194 44.8909C5.55136 43.7597 6.02088 43.1993 6.90861 43.2932C7.79635 43.3871 8.16385 44.0361 8.04442 45.1672Z"
    fill="#303030" />
  <path
    d="M3.65099 31.4491L1.75781 37.1455L10.2282 39.9661L10.7384 38.4311L3.59505 36.0657L4.97807 31.9043L3.65099 31.4491Z"
    fill="#303030" />
  <path
    d="M14.2444 30.2576C15.5747 27.8599 14.8609 25.15 12.5419 23.861C10.223 22.5719 7.54755 23.3977 6.21731 25.7954C4.88707 28.1931 5.61201 30.9092 7.9198 32.192C10.2276 33.4749 12.9142 32.6553 14.2444 30.2576ZM12.9735 29.5511C12.1091 31.109 10.3171 31.6308 8.72285 30.7446C7.12858 29.8584 6.62392 28.0598 7.48827 26.5019C8.35262 24.944 10.1446 24.4222 11.7389 25.3084C13.3331 26.1946 13.8378 27.9931 12.9735 29.5511Z"
    fill="#303030" />
  <path
    d="M13.8345 15.6914L11.3281 18.3286L17.7958 24.4875L18.9271 23.2971L17.0608 21.5198L18.4358 20.073C20.0371 18.3881 20.1515 16.5084 18.7286 15.1534C17.2964 13.7897 15.4358 14.0065 13.8345 15.6914ZM17.3672 19.1601L16.0444 20.552L13.4758 18.106L14.7986 16.7142C15.7908 15.6703 16.7754 15.5787 17.5885 16.353C18.4016 17.1272 18.3593 18.1162 17.3672 19.1601Z"
    fill="#303030" />
  <path
    d="M23.7718 7.41539L24.5441 13.2613L19.4117 10.437L17.9688 11.437L24.6544 14.9083L24.6636 15.1658C24.6964 15.8573 24.4814 16.3013 24.0558 16.5962C23.8378 16.7473 23.5731 16.8531 23.2555 16.949L23.6637 18.2497C24.136 18.1554 24.5501 17.977 24.8927 17.7396C25.7751 17.1281 26.226 16.0704 26.0461 14.6114L25.1006 6.49452L23.7718 7.41539Z"
    fill="#303030" />
  <path
    d="M38.7463 8.42947C39.4531 8.23781 39.9125 7.51814 39.6991 6.7296C39.489 5.95337 38.7296 5.56414 38.0228 5.7558C37.3159 5.94746 36.8688 6.66382 37.0788 7.44005C37.2922 8.22859 38.0394 8.62112 38.7463 8.42947Z"
    fill="#303030" />
  <path
    d="M55.9913 4.78666C56.8405 4.50334 57.3783 3.87196 57.4631 2.91835C57.5943 1.44343 56.4844 0.524548 54.5225 0.350071L50.5859 0L49.7944 8.90037L53.9699 9.27169C56.1583 9.4663 57.3853 8.6399 57.5221 7.1014C57.6216 5.9825 57.0709 5.19024 55.9913 4.78666ZM52.0827 1.41464L54.271 1.60925C55.3275 1.7032 55.855 2.18583 55.7804 3.02501C55.7069 3.85147 55.1025 4.23345 54.046 4.1395L51.8577 3.94489L52.0827 1.41464ZM54.0327 7.99574L51.5173 7.77205L51.7503 5.1528L54.2656 5.37648C55.3975 5.47714 55.965 5.9377 55.8859 6.82774C55.8067 7.71778 55.1646 8.0964 54.0327 7.99574Z"
    fill="#303030" />
  <path
    d="M67.6363 3.31291L61.9141 1.51514L59.2408 10.0406L60.7828 10.5251L63.0239 3.33552L67.2042 4.64884L67.6363 3.31291Z"
    fill="#303030" />
  <path
    d="M69.0165 13.9685C71.4336 15.2599 74.1286 14.5004 75.3776 12.158C76.6266 9.81565 75.7571 7.15173 73.34 5.86031C70.9229 4.56889 68.2219 5.33969 66.9789 7.67079C65.7359 10.0019 66.5993 12.6771 69.0165 13.9685ZM69.701 12.6847C68.1305 11.8456 67.5794 10.0608 68.4381 8.4504C69.2968 6.84003 71.0849 6.30498 72.6554 7.14411C74.226 7.98323 74.7771 9.76803 73.9184 11.3784C73.0597 12.9888 71.2716 13.5238 69.701 12.6847Z"
    fill="#303030" />
  <path
    d="M83.5356 13.2661L80.8594 10.8018L74.8157 17.378L76.0238 18.4904L77.7678 16.5927L79.236 17.9446C80.9458 19.519 82.8254 19.602 84.155 18.1552C85.4932 16.6991 85.2454 14.8405 83.5356 13.2661ZM80.13 16.8599L78.7175 15.5592L81.1177 12.9475L82.5302 14.2481C83.5895 15.2236 83.6974 16.2076 82.9377 17.0343C82.1779 17.861 81.1893 17.8353 80.13 16.8599Z"
    fill="#303030" />
  <path
    d="M92.0034 23.1904L86.1767 24.0597L88.9133 18.8764L87.8906 17.4487L84.5334 24.1972L84.2763 24.2106C83.5862 24.2549 83.1391 24.047 82.8375 23.6259C82.683 23.4102 82.5729 23.1471 82.4719 22.8308L81.1794 23.2608C81.2814 23.7319 81.4664 24.1434 81.7092 24.4824C82.3346 25.3554 83.3985 25.7893 84.8529 25.5852L92.9451 24.5051L92.0034 23.1904Z"
    fill="#303030" />
  <path
    d="M91.2711 38.0407C91.4743 38.7449 92.2009 39.1926 92.985 38.9659C93.7568 38.7426 94.1329 37.9761 93.9297 37.2719C93.7264 36.5676 93.0034 36.1321 92.2315 36.3553C91.4474 36.582 91.0678 37.3364 91.2711 38.0407Z"
    fill="#303030" />
  <path
    d="M95.3079 55.3921C95.605 56.2372 96.2445 56.765 97.1985 56.8339C98.6739 56.9406 99.5735 55.8145 99.7154 53.848L100 49.9023L91.0964 49.2588L90.7944 53.4439C90.6362 55.6373 91.482 56.8516 93.021 56.9628C94.1403 57.0437 94.9226 56.4794 95.3079 55.3921ZM98.6116 51.424L98.4534 53.6174C98.377 54.6763 97.9036 55.2123 97.0641 55.1516C96.2374 55.0918 95.8458 54.4933 95.9222 53.4344L96.0805 51.241L98.6116 51.424ZM92.07 53.4854L92.2519 50.9642L94.8721 51.1536L94.6902 53.6748C94.6084 54.8093 94.1577 55.385 93.2673 55.3206C92.377 55.2563 91.9882 54.6199 92.07 53.4854Z"
    fill="#303030" />
  <path
    d="M96.9347 66.9994L98.6328 61.2417L90.0713 58.7117L89.6137 60.2632L96.8334 62.3836L95.5929 66.5897L96.9347 66.9994Z"
    fill="#303030" />
  <path
    d="M86.3374 68.5724C85.0878 71.0132 85.8914 73.6977 88.252 74.9087C90.6126 76.1197 93.259 75.205 94.5087 72.7643C95.7583 70.3235 94.9433 67.6332 92.5941 66.428C90.2448 65.2229 87.587 66.1317 86.3374 68.5724ZM87.6312 69.2362C88.4432 67.6502 90.2168 67.0689 91.8397 67.9014C93.4626 68.734 94.0269 70.5147 93.2149 72.1006C92.4029 73.6865 90.6293 74.2678 89.0064 73.4353C87.3835 72.6027 86.8192 70.8221 87.6312 69.2362Z"
    fill="#303030" />
  <path
    d="M87.2307 83.1198L89.6484 80.4009L82.9805 74.4599L81.8892 75.6872L83.8133 77.4016L82.4869 78.8932C80.9423 80.6302 80.8902 82.5127 82.3572 83.8198C83.8336 85.1353 85.6861 84.8568 87.2307 83.1198ZM83.5851 79.7701L84.8612 78.3352L87.5093 80.6946L86.2333 82.1295C85.2763 83.2058 84.2951 83.3299 83.4569 82.583C82.6186 81.8362 82.6281 80.8463 83.5851 79.7701Z"
    fill="#303030" />
  <path
    d="M77.3403 91.6986L76.376 85.8813L81.5985 88.5348L83.0078 87.4878L76.2116 84.2388L76.1939 83.9817C76.1383 83.2918 76.3386 82.8409 76.7543 82.5321C76.9672 82.3739 77.2283 82.2594 77.5426 82.1531L77.0917 80.8665C76.6229 80.9764 76.2148 81.1683 75.8802 81.4169C75.0185 82.0572 74.6026 83.1292 74.8304 84.5815L76.0425 92.6628L77.3403 91.6986Z"
    fill="#303030" />
  <path
    d="M62.5446 91.2485C61.8446 91.4637 61.4095 92.1983 61.6491 92.9793C61.8849 93.748 62.6569 94.1117 63.3569 93.8965C64.057 93.6813 64.48 92.9504 64.2442 92.1816C64.0046 91.4006 63.2447 91.0333 62.5446 91.2485Z"
    fill="#303030" />
</svg>