<svg width="120" height="120" viewBox="0 0 120 120" fill="none" xmlns="http://www.w3.org/2000/svg">
  <path
    d="M54.1589 109.556C52.5857 109.397 51.1877 109.827 50.1921 110.785L51.2293 112.004C52.0053 111.302 52.9049 111.017 53.9036 111.118C55.8872 111.319 57.1808 112.87 56.9793 114.855C56.7778 116.84 55.1986 118.101 53.215 117.901C52.2164 117.8 51.3923 117.34 50.7716 116.512L49.5119 117.485C50.2948 118.622 51.578 119.323 53.1376 119.481C56.0788 119.778 58.4789 117.917 58.7714 115.036C59.0639 112.155 57.0864 109.852 54.1589 109.556Z"
    fill="white" />
  <path
    d="M38.8105 105.617L35.6967 114.806L37.0761 115.275L42.7184 110.418L44.2463 117.717L45.6387 118.191L48.7785 109.011L47.1779 108.466L45.1235 114.472L43.826 108.496L43.0713 108.239L38.3559 112.256L40.4241 106.167L38.8105 105.617Z"
    fill="white" />
  <path
    d="M32.7096 101.815C30.2077 100.193 27.2128 100.763 25.6387 103.18C24.0647 105.596 24.7591 108.558 27.2609 110.181C29.7627 111.803 32.7653 111.221 34.3318 108.816C35.8983 106.411 35.2114 103.438 32.7096 101.815ZM31.8469 103.14C33.4725 104.194 33.9036 106.176 32.8214 107.837C31.7393 109.498 29.7492 109.91 28.1236 108.856C26.498 107.802 26.0669 105.82 27.1491 104.159C28.2312 102.498 30.2213 102.086 31.8469 103.14Z"
    fill="white" />
  <path
    d="M15.2496 99.9244L21.082 105.59L22.1477 104.498L19.8718 102.287L25.5874 96.4293L24.3165 95.1948L18.6009 101.053L16.3152 98.8323L15.2496 99.9244Z"
    fill="white" />
  <path
    d="M10.865 94.123L13.1289 97.3647L21.1049 91.8196L20.083 90.3563L17.7814 91.9565L16.5394 90.178C15.093 88.1069 13.1144 87.5762 11.3597 88.7962C9.59357 90.024 9.41864 92.0518 10.865 94.123ZM15.3331 91.1169L16.528 92.8279L13.3604 95.0301L12.1655 93.3191C11.2694 92.0359 11.3867 90.9678 12.3894 90.2707C13.3921 89.5736 14.437 89.8337 15.3331 91.1169Z"
    fill="white" />
  <path
    d="M13.5612 82.802L11.1184 83.9025L9.20591 79.6762L7.8516 80.2863L9.76407 84.5126L7.46047 85.5504L5.30469 80.7864L3.92506 81.408L6.81641 87.7974L15.6764 83.806L12.7059 77.2415L11.3262 77.863L13.5612 82.802Z"
    fill="white" />
  <path
    d="M1.0287 71.0686L3.07422 78.9297L4.55283 78.5467L3.75466 75.4792L11.6854 73.4249L11.2396 71.7119L3.30893 73.7663L2.50731 70.6856L1.0287 71.0686Z"
    fill="white" />
  <path
    d="M3.50989 63.1728L3.67675 65.8291L0.391862 66.0345L0.501953 67.7871L10.2041 67.1804L9.94526 63.059C9.79303 60.6355 8.56617 59.2689 6.39011 59.405C4.32493 59.5341 3.36626 60.8862 3.50989 63.1728ZM8.56439 63.2278L8.70803 65.5145L5.04892 65.7433L4.90528 63.4567C4.81841 62.0737 5.30994 61.2595 6.52964 61.1832C7.77707 61.1052 8.47838 61.8586 8.56439 63.2278Z"
    fill="white" />
  <path
    d="M6.3713 46.4705C6.17495 45.5179 5.56238 44.8564 4.54317 44.6423C2.96679 44.3111 1.83074 45.3903 1.38876 47.4846L0.501953 51.6865L10.0146 53.6851L10.9552 49.2281C11.4482 46.8922 10.714 45.4621 9.06966 45.1166C7.87379 44.8654 6.94677 45.3576 6.3713 46.4705ZM2.22355 50.2537L2.71653 47.9178C2.95453 46.7901 3.54406 46.283 4.44097 46.4715C5.32428 46.6571 5.65883 47.3582 5.42084 48.4859L4.92785 50.8218L2.22355 50.2537ZM9.58493 48.9963L9.01828 51.6812L6.21885 51.0931L6.7855 48.4081C7.04049 47.1999 7.61135 46.6469 8.56261 46.8467C9.51387 47.0466 9.83992 47.7881 9.58493 48.9963Z"
    fill="white" />
  <path
    d="M12.4328 43.7646L13.1053 42.2462L8.89442 34.7501L15.1949 37.5279L15.9063 35.9217L7.01446 32.0014L6.342 33.5197L10.5656 41.0215L4.25238 38.238L3.54102 39.8442L12.4328 43.7646Z"
    fill="white" />
  <path
    d="M20.8071 26.2638L14.2168 21.4061L10.0255 27.0668L12.4398 28.9829C14.6725 30.748 16.2606 32.3109 15.5291 33.3921L15.284 33.7232L18.1688 35.8667L19.1574 34.5315L17.4931 33.3047L21.8805 27.3792L23.5449 28.6059L24.5253 27.2818L21.6323 25.1493L20.8071 26.2638ZM13.5053 27.8238L12.1611 26.7476L14.3997 23.7242L19.7613 27.6762L16.8608 31.5935C16.6765 30.5366 15.2323 29.1991 13.5053 27.8238Z"
    fill="white" />
  <path
    d="M24.3533 22.622L22.5758 20.6205L26.0542 17.5452L25.0687 16.4355L21.5903 19.5108L19.914 17.6234L23.8349 14.1568L22.831 13.0264L17.5723 17.6758L24.0194 24.9353L29.4222 20.1585L28.4183 19.0281L24.3533 22.622Z"
    fill="white" />
  <path
    d="M34.8024 16.8695C37.3808 15.3713 38.2197 12.4466 36.766 9.95607C35.3124 7.46549 32.3489 6.75009 29.7705 8.24826C27.1921 9.74643 26.3603 12.6831 27.8069 15.1617C29.2536 17.6403 32.224 18.3677 34.8024 16.8695ZM34.0057 15.5045C32.3303 16.4779 30.3629 15.9695 29.3635 14.2573C28.3641 12.545 28.8919 10.5868 30.5673 9.61329C32.2426 8.63983 34.2101 9.14822 35.2095 10.8605C36.2088 12.5728 35.6811 14.531 34.0057 15.5045Z"
    fill="white" />
  <path
    d="M48.6576 8.86373C49.4365 8.69307 49.974 7.93693 49.7833 7.07076C49.5957 6.21812 48.7902 5.75621 48.0112 5.92687C47.2323 6.09752 46.7082 6.85073 46.8959 7.70336C47.0865 8.56954 47.8786 9.03439 48.6576 8.86373Z"
    fill="white" />
  <path
    d="M64.4935 10.3464C66.07 10.4693 67.4573 10.0076 68.4299 9.02712L67.3642 7.83217C66.605 8.55131 65.7124 8.857 64.7117 8.77899C62.724 8.62406 61.394 7.10273 61.5484 5.11337C61.7028 3.12402 63.2516 1.82708 65.2393 1.98202C66.24 2.06002 67.0746 2.50035 67.7148 3.31467L68.951 2.31304C68.1414 1.19365 66.842 0.522515 65.2793 0.400701C62.332 0.170966 59.9768 2.08606 59.7527 4.9734C59.5286 7.86073 61.56 10.1178 64.4935 10.3464Z"
    fill="white" />
  <path
    d="M80.1303 13.8653L83.0224 4.60502L81.6321 4.16846L76.1082 9.15958L74.4053 1.89917L73.002 1.4585L70.0836 10.7106L71.6969 11.2171L73.6063 5.16364L75.047 11.107L75.8077 11.3459L80.4253 7.21772L78.504 13.3546L80.1303 13.8653Z"
    fill="white" />
  <path
    d="M86.1989 17.5068C88.7385 19.0695 91.7191 18.429 93.2353 15.9759C94.7516 13.5227 93.987 10.5778 91.4474 9.01515C88.9077 7.45249 85.9199 8.10478 84.4109 10.5461C82.902 12.9875 83.6592 15.9442 86.1989 17.5068ZM87.0299 16.1623C85.3797 15.147 84.9017 13.176 85.9441 11.4895C86.9865 9.80295 88.9662 9.3443 90.6164 10.3597C92.2665 11.375 92.7446 13.346 91.7022 15.0325C90.6598 16.719 88.6801 17.1777 87.0299 16.1623Z"
    fill="white" />
  <path
    d="M103.755 19.0638L97.793 13.5342L96.7529 14.6505L99.0792 16.8082L93.5006 22.796L94.7998 24.0009L100.378 18.0132L102.715 20.1802L103.755 19.0638Z"
    fill="white" />
  <path
    d="M108.318 24.7131L105.977 21.5264L98.136 27.2605L99.1928 28.699L101.455 27.0443L102.74 28.7925C104.235 30.8285 106.226 31.3117 107.951 30.0502C109.687 28.7804 109.813 26.749 108.318 24.7131ZM103.923 27.8251L102.687 26.1432L105.801 23.8659L107.037 25.5478C107.963 26.8092 107.872 27.8798 106.886 28.6006C105.901 29.3215 104.85 29.0865 103.923 27.8251Z"
    fill="white" />
  <path
    d="M105.666 36.13L108.083 34.9723L110.095 39.1522L111.434 38.5104L109.422 34.3304L111.7 33.2386L113.968 37.9504L115.333 37.2965L112.291 30.9771L103.528 35.1762L106.653 41.6688L108.018 41.0149L105.666 36.13Z"
    fill="white" />
  <path
    d="M118.732 47.538L116.5 39.7275L115.031 40.1455L115.902 43.1931L108.022 45.4347L108.509 47.1366L116.388 44.8951L117.263 47.9559L118.732 47.538Z"
    fill="white" />
  <path
    d="M116.413 55.4958L116.183 52.8442L119.462 52.561L119.311 50.8115L109.625 51.6478L109.982 55.7619C110.192 58.1811 111.451 59.5183 113.623 59.3307C115.685 59.1527 116.611 57.7783 116.413 55.4958ZM111.359 55.5604L111.161 53.2778L114.813 52.9624L115.011 55.245C115.131 56.6255 114.659 57.4512 113.442 57.5563C112.196 57.6638 111.477 56.9272 111.359 55.5604Z"
    fill="white" />
  <path
    d="M113.8 72.2667C114.019 73.2143 114.648 73.8609 115.672 74.0507C117.256 74.3442 118.365 73.2382 118.757 71.134L119.543 66.9121L109.985 65.141L109.152 69.6192C108.715 71.9662 109.483 73.3783 111.135 73.6845C112.337 73.9071 113.252 73.3929 113.8 72.2667ZM117.856 68.3856L117.419 70.7326C117.208 71.8657 116.631 72.3866 115.73 72.2196C114.843 72.0552 114.491 71.3621 114.702 70.2291L115.139 67.8821L117.856 68.3856ZM110.527 69.8182L111.029 67.1205L113.842 67.6417L113.34 70.3394C113.114 71.5534 112.556 72.1199 111.601 71.9428C110.645 71.7657 110.301 71.0322 110.527 69.8182Z"
    fill="white" />
  <path
    d="M107.984 75.1042L107.348 76.6381L111.736 84.0324L105.371 81.4045L104.698 83.0271L113.681 86.7359L114.317 85.202L109.916 77.8024L116.294 80.4356L116.967 78.813L107.984 75.1042Z"
    fill="white" />
  <path
    d="M100.003 92.7991L106.708 97.4979L110.763 91.7386L108.303 89.8808C106.028 88.1696 104.403 86.6451 105.109 85.5467L105.346 85.2099L102.41 83.1359L101.454 84.4944L103.147 85.681L98.9034 91.7097L97.2101 90.5231L96.2617 91.8703L99.2051 93.933L100.003 92.7991ZM107.266 91.0651L108.635 92.1087L106.47 95.1848L101.015 91.3621L103.82 87.3766C104.03 88.4288 105.506 89.7314 107.266 91.0651Z"
    fill="white" />
  <path
    d="M96.507 96.4893L98.3319 98.448L94.9279 101.605L95.9397 102.691L99.3436 99.534L101.064 101.381L97.2275 104.94L98.2581 106.046L103.404 101.273L96.7856 94.1688L91.4984 99.0727L92.529 100.179L96.507 96.4893Z"
    fill="white" />
  <path
    d="M86.0356 102.541C83.4936 104.1 82.7246 107.044 84.2371 109.499C85.7496 111.955 88.7292 112.6 91.2712 111.041C93.8132 109.482 94.5749 106.526 93.0697 104.083C91.5644 101.639 88.5776 100.982 86.0356 102.541ZM86.8645 103.887C88.5163 102.874 90.4953 103.336 91.5351 105.024C92.575 106.712 92.0939 108.682 90.4422 109.695C88.7905 110.708 86.8115 110.246 85.7717 108.558C84.7318 106.87 85.2128 104.9 86.8645 103.887Z"
    fill="white" />
  <path
    d="M72.4933 110.835C71.7187 111.024 71.1994 111.793 71.4107 112.654C71.6186 113.502 72.4349 113.945 73.2096 113.756C73.9842 113.567 74.4901 112.801 74.2822 111.953C74.0709 111.092 73.268 110.646 72.4933 110.835Z"
    fill="white" />
</svg>