<svg width="120" height="120" viewBox="0 0 120 120" fill="none" xmlns="http://www.w3.org/2000/svg">
  <path
    d="M50.4268 110.852L49.532 118.986L56.5555 119.754L57.0017 116.706C57.4084 113.89 57.9644 111.732 59.2711 111.819L59.6818 111.864L60.0883 108.295L58.4317 108.113L58.2057 110.168L50.8537 109.364L51.0797 107.31L49.4368 107.13L49.044 110.701L50.4268 110.852ZM55.4591 116.37L55.2026 118.072L51.4513 117.661L52.1792 111.044L57.0395 111.575C56.2153 112.266 55.7824 114.186 55.4591 116.37Z"
    fill="white" />
  <path
    d="M47.2855 108.627L45.7142 108.073L38.5325 112.839L40.8314 106.353L39.1692 105.767L35.9248 114.922L37.4961 115.475L44.6824 110.696L42.3788 117.196L44.041 117.781L47.2855 108.627Z"
    fill="white" />
  <path
    d="M28.5423 105.382C27.5777 105.232 26.7409 105.574 26.1823 106.452C25.3183 107.811 25.935 109.252 27.7497 110.399L31.3906 112.701L36.6044 104.501L32.7424 102.06C30.7184 100.78 29.1161 100.966 28.2149 102.384C27.5595 103.414 27.6975 104.454 28.5423 105.382ZM30.6465 110.588L28.6225 109.309C27.6454 108.691 27.3751 107.962 27.8667 107.189C28.3509 106.427 29.1276 106.36 30.1047 106.978L32.1287 108.257L30.6465 110.588ZM32.0441 103.26L34.3706 104.731L32.8363 107.144L30.5098 105.674C29.4629 105.012 29.1429 104.284 29.6643 103.464C30.1856 102.644 30.9972 102.599 32.0441 103.26Z"
    fill="white" />
  <path
    d="M27.8999 98.7595L26.7097 97.5964L18.1817 98.8953L23.0112 93.9821L21.7522 92.7517L14.9363 99.6856L16.1265 100.849L24.6642 99.5399L19.8249 104.463L21.084 105.693L27.8999 98.7595Z"
    fill="white" />
  <path
    d="M8.07215 90.1488L12.6504 96.876L13.9166 96.0193L12.1301 93.3944L18.9215 88.7995L17.9239 87.3336L11.1325 91.9285L9.33835 89.2922L8.07215 90.1488Z"
    fill="white" />
  <path
    d="M15.3118 83.1542L14.6704 81.6205L6.30911 79.5023L12.6774 76.8547L11.999 75.2324L3.01142 78.9688L3.65278 80.5025L12.0269 82.6154L5.64576 85.2682L6.32422 86.8906L15.3118 83.1542Z"
    fill="white" />
  <path
    d="M10.5983 68.1141C10.3205 66.5593 9.52233 65.334 8.32449 64.6398L7.4317 65.9699C8.32182 66.5233 8.84375 67.3095 9.02005 68.2964C9.37022 70.2568 8.22685 71.9242 6.25468 72.2741C4.28251 72.624 2.63198 71.4522 2.2818 69.4919C2.10551 68.5049 2.32314 67.5876 2.95324 66.7644L1.66842 65.8207C0.784532 66.8841 0.459684 68.3087 0.734995 69.85C1.25422 72.7567 3.70866 74.553 6.57105 74.0452C9.43343 73.5374 11.1151 71.0073 10.5983 68.1141Z"
    fill="white" />
  <path
    d="M0.0432104 59.334C0.0169597 61.7783 1.32144 63.3715 3.57485 63.3956C5.13277 63.4122 6.23976 62.6686 6.75482 61.342L9.73725 63.4338L9.75745 61.5526L7.06419 59.7385L7.09177 57.1706L9.8042 57.1996L9.82308 55.4419L0.0861258 55.338L0.0432104 59.334ZM1.57389 59.2954L1.59734 57.112L5.61731 57.1549L5.59313 59.4069C5.57764 60.8488 4.84621 61.5963 3.5665 61.5827C2.23115 61.5684 1.55826 60.751 1.57389 59.2954Z"
    fill="white" />
  <path
    d="M8.01992 41.1203C7.921 40.1519 7.37769 39.4315 6.38368 39.1155C4.84629 38.6268 3.60446 39.5869 2.95125 41.6278L1.64062 45.7227L10.918 48.6718L12.3082 44.3284C13.0368 42.0521 12.4503 40.554 10.8467 40.0442C9.68036 39.6734 8.70649 40.0701 8.01992 41.1203ZM3.50194 44.4694L4.23053 42.193C4.58226 41.0941 5.2213 40.6486 6.09603 40.9267C6.9575 41.2005 7.21969 41.9325 6.86796 43.0314L6.13937 45.3078L3.50194 44.4694ZM10.9661 43.9594L10.1286 46.576L7.39844 45.7081L8.2359 43.0915C8.61275 41.9141 9.23785 41.421 10.1656 41.7159C11.0933 42.0108 11.343 42.782 10.9661 43.9594Z"
    fill="white" />
  <path d="M6.39414 33.1053L5.62305 34.686L14.3797 38.9326L15.1508 37.3519L6.39414 33.1053Z" fill="white" />
  <path
    d="M19.795 27.2985L13.0611 22.6202L9.02179 28.4002L11.4926 30.2507C13.7772 31.9551 15.4108 33.475 14.7084 34.5771L14.4722 34.9151L17.4204 36.98L18.3731 35.6167L16.6725 34.4353L20.9008 28.3848L22.6014 29.5663L23.5463 28.2142L20.5902 26.1605L19.795 27.2985ZM12.5271 29.0614L11.1513 28.0218L13.3087 24.9346L18.7871 28.7407L15.9919 32.7405C15.7779 31.6881 14.2946 30.3897 12.5271 29.0614Z"
    fill="white" />
  <path
    d="M23.538 23.4213L21.7116 21.4594L25.1236 18.3017L24.111 17.2139L20.699 20.3716L18.9766 18.5215L22.8227 14.9621L21.7912 13.854L16.6328 18.6279L23.2573 25.7439L28.557 20.8392L27.5254 19.7311L23.538 23.4213Z"
    fill="white" />
  <path
    d="M34.0072 17.3403C36.5599 15.7905 37.3424 12.8471 35.8376 10.383C34.3328 7.91894 31.3509 7.26101 28.7982 8.81085C26.2455 10.3607 25.4702 13.3159 26.9678 15.7682C28.4654 18.2204 31.4545 18.8902 34.0072 17.3403ZM33.1824 15.9898C31.5238 16.9969 29.5434 16.5266 28.5088 14.8325C27.4743 13.1385 27.9643 11.1684 29.623 10.1613C31.2816 9.15431 33.262 9.62458 34.2966 11.3186C35.3311 13.0127 34.8411 14.9828 33.1824 15.9898Z"
    fill="white" />
  <path
    d="M48.2557 8.91653C49.0347 8.74024 49.5677 7.97959 49.3707 7.11394C49.1767 6.2618 48.3666 5.80511 47.5876 5.98141C46.8085 6.1577 46.2889 6.91531 46.4829 7.76744C46.68 8.6331 47.4767 9.09283 48.2557 8.91653Z"
    fill="white" />
  <path
    d="M68.7431 9.0013L69.4902 0.852011L62.4543 0.206396L62.0635 3.26267C61.7079 6.0854 61.1912 8.25262 59.8832 8.18831L59.4717 8.15055L59.13 11.7267L60.7896 11.879L60.9782 9.82093L68.3432 10.4968L68.1545 12.5548L69.8003 12.7058L70.1283 9.12841L68.7431 9.0013ZM63.6118 3.57189L63.8374 1.86545L67.5953 2.21028L66.9876 8.84021L62.1187 8.39344C62.9302 7.68791 63.3282 5.7605 63.6118 3.57189Z"
    fill="white" />
  <path
    d="M71.6531 11.1386L73.2343 11.6637L80.328 6.76861L78.1475 13.2955L79.8201 13.851L82.8974 4.63967L81.3163 4.11454L74.2182 9.02281L76.4031 2.48275L74.7305 1.92725L71.6531 11.1386Z"
    fill="white" />
  <path
    d="M90.5957 14.0397C91.5629 14.1722 92.3933 13.8158 92.9359 12.9273C93.7752 11.5531 93.1324 10.1236 91.2973 9.0094L87.6152 6.77393L82.5509 15.0665L86.4565 17.4376C88.5034 18.6804 90.102 18.4655 90.9774 17.0321C91.614 15.9896 91.4572 14.9525 90.5957 14.0397ZM88.3975 8.87276L90.4444 10.1155C91.4326 10.7154 91.7159 11.4396 91.2384 12.2215C90.7682 12.9915 89.9928 13.0729 89.0047 12.4729L86.9578 11.2302L88.3975 8.87276ZM87.1329 16.2244L84.7801 14.796L86.2705 12.3556L88.6232 13.7841C89.682 14.4268 90.0151 15.1487 89.5087 15.978C89.0023 16.8073 88.1916 16.8672 87.1329 16.2244Z"
    fill="white" />
  <path
    d="M91.2339 20.6627L92.4452 21.8039L100.948 20.3501L96.2092 25.3503L97.4905 26.5576L104.178 19.5009L102.967 18.3596L94.4548 19.8235L99.2032 14.8132L97.9219 13.606L91.2339 20.6627Z"
    fill="white" />
  <path
    d="M111.291 28.8902L106.59 22.248L105.34 23.1278L107.174 25.7196L100.469 30.438L101.493 31.8854L108.199 27.1669L110.041 29.77L111.291 28.8902Z"
    fill="white" />
  <path
    d="M104.233 36.0171L104.903 37.5388L113.302 39.5035L106.983 42.2672L107.691 43.8769L116.609 39.9765L115.939 38.4549L107.527 36.4957L113.859 33.7264L113.15 32.1167L104.233 36.0171Z"
    fill="white" />
  <path
    d="M109.235 50.9961C109.541 52.5457 110.361 53.7564 111.571 54.4288L112.44 53.0828C111.54 52.5455 111.004 51.7689 110.81 50.7853C110.424 48.8315 111.537 47.1436 113.503 46.7581C115.468 46.3727 117.14 47.5144 117.525 49.4682C117.719 50.4518 117.518 51.373 116.903 52.2074L118.205 53.1278C119.069 52.0485 119.368 50.6183 119.065 49.0822C118.494 46.1852 116.007 44.4335 113.155 44.993C110.302 45.5525 108.666 48.1126 109.235 50.9961Z"
    fill="white" />
  <path
    d="M119.972 59.5563C119.955 57.1119 118.622 55.5421 116.368 55.5581C114.81 55.5692 113.717 56.3323 113.226 57.6679L110.206 55.6295L110.22 57.5108L112.945 59.2767L112.963 61.8446L110.251 61.8639L110.263 63.6216L120.001 63.5523L119.972 59.5563ZM118.442 59.6221L118.458 61.8055L114.438 61.8341L114.422 59.582C114.411 58.1401 115.129 57.3797 116.409 57.3706C117.745 57.3611 118.432 58.1665 118.442 59.6221Z"
    fill="white" />
  <path
    d="M112.246 77.8875C112.363 78.8539 112.92 79.5643 113.919 79.8619C115.465 80.3222 116.689 79.3393 117.304 77.2866L118.537 73.168L109.207 70.3901L107.898 74.7587C107.213 77.0483 107.827 78.5354 109.44 79.0156C110.613 79.3648 111.579 78.9502 112.246 77.8875ZM116.7 74.4554L116.014 76.745C115.683 77.8503 115.053 78.3075 114.173 78.0456C113.306 77.7876 113.031 77.0606 113.362 75.9553L114.047 73.6657L116.7 74.4554ZM109.247 75.1029L110.035 72.4712L112.781 73.2887L111.993 75.9204C111.638 77.1047 111.023 77.6093 110.089 77.3315C109.156 77.0537 108.892 76.2872 109.247 75.1029Z"
    fill="white" />
  <path d="M114.047 85.9158L114.789 84.3213L105.956 80.235L105.214 81.8296L114.047 85.9158Z" fill="white" />
  <path
    d="M100.672 91.9249L107.49 96.4816L111.424 90.63L108.92 88.8242C106.605 87.1611 104.944 85.6707 105.627 84.5562L105.857 84.214L102.872 82.2023L101.944 83.5825L103.665 84.7333L99.5471 90.8586L97.8254 89.7079L96.9051 91.0767L99.8978 93.077L100.672 91.9249ZM107.907 90.0319L109.302 91.0466L107.2 94.172L101.654 90.4649L104.377 86.4155C104.61 87.464 106.116 88.7354 107.907 90.0319Z"
    fill="white" />
  <path
    d="M97.2563 95.8876L99.1183 97.8161L95.7647 101.035L96.797 102.104L100.151 98.8852L101.907 100.704L98.1262 104.333L99.1779 105.422L104.248 100.555L97.4945 93.5603L92.2854 98.5606L93.3371 99.6498L97.2563 95.8876Z"
    fill="white" />
  <path
    d="M86.7695 102.192C84.2452 103.787 83.5162 106.744 85.0654 109.181C86.6147 111.617 89.608 112.222 92.1322 110.626C94.6564 109.03 95.378 106.062 93.8362 103.637C92.2944 101.212 89.2937 100.596 86.7695 102.192ZM87.6186 103.527C89.2587 102.49 91.2473 102.925 92.3124 104.6C93.3775 106.275 92.9232 108.254 91.2831 109.291C89.6429 110.327 87.6544 109.893 86.5893 108.218C85.5242 106.543 85.9784 104.564 87.6186 103.527Z"
    fill="white" />
  <path
    d="M72.5775 110.889C71.8018 111.08 71.2829 111.85 71.4959 112.712C71.7055 113.56 72.5239 114.002 73.2995 113.811C74.0752 113.621 74.5807 112.854 74.3711 112.005C74.1582 111.144 73.3531 110.699 72.5775 110.889Z"
    fill="white" />
</svg>