<svg width="140" height="142" viewBox="0 0 140 142" fill="none" xmlns="http://www.w3.org/2000/svg">
<path d="M62.41 140.524C65.6327 140.875 67.9009 139.367 68.2183 136.41C68.4377 134.365 67.5967 132.815 65.9109 131.966L69.0499 128.319L66.5694 128.049L63.8338 131.353L60.448 130.984L60.83 127.424L58.5125 127.172L57.1413 139.95L62.41 140.524ZM62.553 138.508L59.6743 138.195L60.2404 132.919L63.2097 133.242C65.1107 133.449 66.0047 134.507 65.8245 136.186C65.6364 137.939 64.4722 138.717 62.553 138.508Z" fill="#303030"/>
<path d="M42.9865 135.63L44.7912 130.647L50.9934 132.908L49.1887 137.891L51.416 138.702L55.7873 126.634L53.5599 125.822L51.6866 130.994L45.4843 128.733L47.3577 123.561L45.1304 122.749L40.7592 134.818L42.9865 135.63Z" fill="#303030"/>
<path d="M34.6881 116.099L32.6261 114.724L30.3029 128.607L32.2436 129.901L44.1339 122.394L42.1022 121.04L39.4096 122.817L34.1029 119.28L34.6881 116.099ZM37.7058 123.93L32.6096 127.279L33.7182 121.272L37.7058 123.93Z" fill="#303030"/>
<path d="M28.9234 111.02L25.3293 106.564C23.3098 104.061 21.0525 103.547 19.0632 105.152C17.174 106.676 17.1591 108.767 19.0759 111.143L21.4378 114.071L18.9762 116.058L14.2183 110.159L12.6869 111.395L18.9053 119.104L28.9234 111.02ZM26.0318 110.364L22.8689 112.917L20.8151 110.37C19.6513 108.927 19.5703 107.802 20.6151 106.959C21.6742 106.104 22.837 106.404 23.978 107.818L26.0318 110.364Z" fill="#303030"/>
<path d="M16.9934 92.5844L15.889 90.3761L6.93386 101.29L7.97329 103.368L22.0525 102.7L20.9643 100.524L17.7377 100.742L14.8955 95.0592L16.9934 92.5844ZM15.7016 100.87L9.60135 101.271L13.5659 96.6L15.7016 100.87Z" fill="#303030"/>
<path d="M2.82768 90.7687L8.05473 89.6727C11.6064 88.9318 13.5771 88.9342 13.9416 90.4339C13.9888 90.628 14.0095 90.7912 13.9988 90.9808L16.0574 90.6438C16.0489 90.1411 16.026 89.7354 15.9317 89.3472C15.284 86.6829 12.4446 86.6133 7.47211 87.6656L4.318 88.3276L3.13423 83.4578L13.6813 80.869L13.1323 78.6106L0.618827 81.682L2.82768 90.7687Z" fill="#303030"/>
<path d="M12.9518 66.1757L12.9712 63.7018L0.063326 69.3471L0.0450286 71.6755L12.8627 77.5083L12.8819 75.0708L9.91493 73.7919L9.96497 67.4253L12.9518 66.1757ZM8.04694 72.9765L2.44282 70.5486L8.08454 68.1924L8.04694 72.9765Z" fill="#303030"/>
<path d="M4.68707 45.4297L15.094 48.5583L13.7601 53.0309L3.35323 49.9023L2.68891 52.1299L13.0958 55.2585L11.7568 59.7485L1.34987 56.6199L0.685547 58.8475L13.0327 62.5594L17.6985 46.914L5.3514 43.2021L4.68707 45.4297Z" fill="#303030"/>
<path d="M22.4979 39.7171C24.6768 36.4326 23.9531 32.4628 20.7644 30.3446C17.5758 28.2264 13.639 29.1002 11.4602 32.3848C9.28133 35.6693 10.0203 39.6492 13.1937 41.7573C16.367 43.8653 20.3191 43.0017 22.4979 39.7171ZM20.7503 38.5562C19.3345 40.6904 16.7012 41.2307 14.509 39.7744C12.3168 38.3182 11.7921 35.6799 13.2078 33.5457C14.6236 31.4115 17.2569 30.8712 19.4491 32.3274C21.6413 33.7837 22.1661 36.422 20.7503 38.5562Z" fill="#303030"/>
<path d="M29.1193 22.0761C29.6453 20.8982 29.4988 19.7131 28.5692 18.6964C27.1314 17.124 25.0756 17.411 22.9803 19.327L18.7764 23.1713L27.4526 32.6599L31.9117 28.5823C34.2488 26.4452 34.5662 24.338 33.0665 22.6978C31.9757 21.505 30.5987 21.3206 29.1193 22.0761ZM21.735 22.9547L24.0721 20.8176C25.2003 19.7859 26.2261 19.6941 27.0441 20.5888C27.8498 21.4698 27.6668 22.4834 26.5386 23.5151L24.2015 25.6522L21.735 22.9547ZM30.6186 27.2759L27.9323 29.7323L25.379 26.9399L28.0653 24.4835C29.2741 23.3781 30.3154 23.2223 31.183 24.1712C32.0506 25.1201 31.8274 26.1705 30.6186 27.2759Z" fill="#303030"/>
<path d="M45.4269 19.3984L47.575 18.1613L36.1893 9.90612L34.1676 11.0705L35.5871 25.0658L37.7035 23.8468L37.3134 20.6434L42.8414 17.4595L45.4269 19.3984ZM37.0766 18.6214L36.3502 12.5644L41.2305 16.2289L37.0766 18.6214Z" fill="#303030"/>
<path d="M57.0206 12.3248C58.0531 12.0986 58.7683 11.0969 58.5196 9.94957C58.2747 8.82016 57.2098 8.20844 56.1772 8.43464C55.1447 8.66083 54.4473 9.65865 54.6922 10.7881C54.9409 11.9354 55.9881 12.551 57.0206 12.3248Z" fill="#303030"/>
<path d="M75.204 1.40298C71.9701 1.15813 69.753 2.7389 69.5351 5.70429C69.3844 7.75443 70.2773 9.27617 71.9912 10.0686L68.9754 13.8161L71.4644 14.0045L74.0885 10.6139L77.4859 10.8711L77.2236 14.4406L79.549 14.6167L80.4908 1.80327L75.204 1.40298ZM75.1287 3.42202L78.0174 3.64073L77.6285 8.93083L74.649 8.70524C72.7414 8.56081 71.8121 7.5333 71.9359 5.84925C72.0651 4.09199 73.2029 3.27621 75.1287 3.42202Z" fill="#303030"/>
<path d="M94.7108 5.67239L93.0746 10.7132L86.8005 8.66167L88.4367 3.62084L86.1836 2.88409L82.2204 15.0937L84.4736 15.8305L86.1721 10.5978L92.4461 12.6493L90.7476 17.882L93.0008 18.6188L96.9639 6.40914L94.7108 5.67239Z" fill="#303030"/>
<path d="M103.611 24.889L105.718 26.1947L107.578 12.2431L105.595 11.0142L93.9614 18.9075L96.037 20.194L98.669 18.3298L104.09 21.6902L103.611 24.889ZM100.335 17.1614L105.317 13.6466L104.408 19.6865L100.335 17.1614Z" fill="#303030"/>
<path d="M109.64 29.8018L113.379 34.1396C115.48 36.577 117.751 37.0164 119.685 35.3453C121.521 33.7583 121.466 31.6671 119.472 29.3536L117.015 26.5031L119.408 24.4352L124.357 30.1776L125.845 28.8912L119.377 21.3862L109.64 29.8018ZM112.55 30.3623L115.624 27.7053L117.761 30.184C118.971 31.5887 119.09 32.7117 118.074 33.5894C117.045 34.479 115.874 34.2181 114.687 32.841L112.55 30.3623Z" fill="#303030"/>
<path d="M122.101 47.8032L123.278 49.9735L131.863 38.7689L130.754 36.7263L116.705 37.8614L117.866 39.9998L121.083 39.6748L124.114 45.2602L122.101 47.8032ZM123.114 39.4791L129.197 38.876L125.392 43.6761L123.114 39.4791Z" fill="#303030"/>
<path d="M136.381 49.1125L131.194 50.3873C127.669 51.2496 125.699 51.3149 125.284 49.8287C125.23 49.6364 125.204 49.4741 125.208 49.2842L123.162 49.6917C123.187 50.1938 123.224 50.5984 123.332 50.9831C124.07 53.6231 126.911 53.5952 131.845 52.3729L134.975 51.6031L136.325 56.4286L125.871 59.3778L126.497 61.6158L138.9 58.1167L136.381 49.1125Z" fill="#303030"/>
<path d="M127.078 74.0511L127.139 76.524L139.858 70.4542L139.8 68.1268L126.797 62.7231L126.858 65.1597L129.865 66.3393L130.023 72.7033L127.078 74.0511ZM131.759 67.0921L137.44 69.3325L131.877 71.8743L131.759 67.0921Z" fill="#303030"/>
<path d="M136.104 94.5367L125.6 91.7579L126.784 87.2427L137.288 90.0215L137.877 87.7726L127.373 84.9939L128.562 80.4611L139.066 83.2399L139.655 80.991L127.193 77.6942L123.052 93.4887L135.515 96.7855L136.104 94.5367Z" fill="#303030"/>
<path d="M118.344 100.829C116.278 104.185 117.137 108.128 120.396 110.138C123.655 112.148 127.559 111.142 129.625 107.786C131.691 104.43 130.817 100.477 127.573 98.4769C124.33 96.4767 120.41 97.4727 118.344 100.829ZM120.13 101.93C121.472 99.7497 124.086 99.1211 126.326 100.503C128.567 101.885 129.181 104.504 127.839 106.684C126.497 108.865 123.883 109.494 121.643 108.112C119.402 106.73 118.788 104.111 120.13 101.93Z" fill="#303030"/>
<path d="M112.36 118.717C111.874 119.912 112.059 121.091 113.022 122.077C114.511 123.602 116.556 123.249 118.587 121.266L122.661 117.287L113.676 108.085L109.355 112.305C107.09 114.517 106.842 116.634 108.395 118.224C109.525 119.381 110.907 119.521 112.36 118.717ZM119.711 117.599L117.446 119.811C116.353 120.879 115.331 121.004 114.484 120.137C113.649 119.282 113.799 118.263 114.892 117.195L117.157 114.984L119.711 117.599ZM110.69 113.569L113.294 111.027L115.938 113.735L113.334 116.277C112.163 117.421 111.127 117.611 110.229 116.69C109.33 115.77 109.519 114.713 110.69 113.569Z" fill="#303030"/>
<path d="M96.2462 121.912L94.1411 123.22L105.799 131.091L107.78 129.86L105.889 115.92L103.815 117.209L104.313 120.397L98.8957 123.764L96.2462 121.912ZM104.618 122.41L105.549 128.44L100.547 124.94L104.618 122.41Z" fill="#303030"/>
<path d="M84.7129 129.357C83.6884 129.618 83.0071 130.643 83.2941 131.781C83.5766 132.901 84.6616 133.477 85.6861 133.216C86.7106 132.955 87.3744 131.934 87.0918 130.814C86.8048 129.676 85.7374 129.096 84.7129 129.357Z" fill="#303030"/>
</svg>
