<svg width="913" height="913" viewBox="0 0 913 913" fill="none" xmlns="http://www.w3.org/2000/svg">
<g filter="url(#filter0_f)">
<path d="M250 456.5C250 570.547 342.453 663 456.5 663C570.547 663 663 570.547 663 456.5C663 342.453 570.547 250 456.5 250C342.453 250 250 342.453 250 456.5Z" fill="#F3A100"/>
</g>
<g filter="url(#filter1_f)">
<path d="M404.875 379.063C404.875 450.342 462.658 508.125 533.938 508.125C605.217 508.125 663 450.342 663 379.062C663 307.783 605.217 250 533.937 250C462.658 250 404.875 307.783 404.875 379.063Z" fill="#FFEB35"/>
</g>
<defs>
<filter id="filter0_f" x="0" y="0" width="913" height="913" filterUnits="userSpaceOnUse" color-interpolation-filters="sRGB">
<feFlood flood-opacity="0" result="BackgroundImageFix"/>
<feBlend mode="normal" in="SourceGraphic" in2="BackgroundImageFix" result="shape"/>
<feGaussianBlur stdDeviation="125" result="effect1_foregroundBlur"/>
</filter>
<filter id="filter1_f" x="254.875" y="100" width="558.125" height="558.125" filterUnits="userSpaceOnUse" color-interpolation-filters="sRGB">
<feFlood flood-opacity="0" result="BackgroundImageFix"/>
<feBlend mode="normal" in="SourceGraphic" in2="BackgroundImageFix" result="shape"/>
<feGaussianBlur stdDeviation="75" result="effect1_foregroundBlur"/>
</filter>
</defs>
</svg>
