<svg width="130" height="30" viewBox="0 0 130 30" fill="none" xmlns="http://www.w3.org/2000/svg">
  <path fill-rule="evenodd" clip-rule="evenodd"
    d="M54.9031 1.49969C54.9031 1.10175 54.7447 0.720738 54.463 0.439216C54.1824 0.157695 53.8008 0 53.4023 0C45.5614 0 9.34164 0 1.49971 0C1.10113 0 0.720632 0.157695 0.438969 0.439216C0.157306 0.720738 -0.00105756 1.10175 5.31594e-06 1.49969C5.31594e-06 6.62105 5.31594e-06 23.379 5.31594e-06 28.5003C-0.00105756 28.8983 0.157306 29.2803 0.438969 29.5608C0.720632 29.8423 1.10113 30 1.49971 30C9.34164 30 45.5614 30 53.4023 30C53.8008 30 54.1824 29.8423 54.463 29.5608C54.7447 29.2803 54.9031 28.8983 54.9031 28.5003C54.9031 23.379 54.9031 6.62105 54.9031 1.49969Z"
    fill="#303030" />
  <path
    d="M7.37415 22.5007V7.50049H10.2889V19.9451H14.8734V7.50049H17.7881V19.9451H22.3726V7.50049H25.2891V22.5007H7.37415Z"
    fill="white" />
  <path
    d="M46.937 8.25968C46.6406 7.66514 46.257 7.15953 45.7514 6.77596C45.2632 6.39413 44.7227 6.09773 44.1125 5.9042C43.5023 5.7316 42.892 5.62524 42.2644 5.62524C41.5321 5.62524 40.8173 5.74903 40.1373 5.99138C39.4573 6.23721 38.8471 6.60335 38.3415 7.07235C37.8184 7.56228 37.4174 8.13763 37.121 8.80016L39.2655 10.2804C39.4399 9.96657 39.6666 9.67192 39.9281 9.37552C40.1896 9.07913 40.5034 8.81586 40.887 8.62581C41.2706 8.41659 41.689 8.31024 42.1598 8.31024C42.5782 8.31024 42.9618 8.39742 43.3105 8.55607C43.6592 8.71299 43.9556 8.95534 44.1648 9.25173C44.3914 9.56731 44.4961 9.95088 44.4961 10.4024C44.4961 10.8558 44.3914 11.2585 44.1474 11.6072C43.9033 11.9542 43.6243 12.2506 43.2756 12.5121C42.9269 12.7562 42.5782 12.9846 42.1946 13.1746C41.8285 13.3838 41.5321 13.5408 41.3054 13.6977C40.765 13.9941 40.3465 14.3428 40.0501 14.7455C39.7537 15.1273 39.5445 15.5632 39.4399 16.0165C39.3353 16.489 39.283 16.9772 39.283 17.4811H41.9854C41.9854 16.9406 42.1423 16.489 42.4213 16.156C42.7177 15.8265 43.0664 15.5301 43.5023 15.2843C43.9381 15.0576 44.374 14.7978 44.7925 14.5363C45.176 14.2922 45.5247 14.0464 45.856 13.7866C46.1873 13.5251 46.4662 13.2287 46.6754 12.9148C46.9021 12.5993 47.0764 12.2331 47.1985 11.8339C47.3205 11.4154 47.3903 10.9621 47.3903 10.4391C47.3903 9.58474 47.2334 8.8699 46.937 8.25968Z"
    fill="white" />
  <path
    d="M42.2069 20.8011C42.2069 21.7391 41.4467 22.4993 40.5105 22.4993C39.5725 22.4993 38.8141 21.7391 38.8141 20.8011C38.8141 19.8631 39.5725 19.1029 40.5105 19.1029C41.4467 19.1029 42.2069 19.8631 42.2069 20.8011Z"
    fill="white" />
  <path
    d="M29.334 16.8869C29.334 17.5171 29.4597 18.0757 29.7111 18.5609C29.9624 19.0479 30.3046 19.4285 30.7375 19.7008C31.1704 19.9766 31.6591 20.1127 32.2037 20.1127C32.7344 20.1127 33.2162 19.9731 33.6491 19.6903C34.082 19.4093 34.4258 19.0287 34.6859 18.54C34.9443 18.0547 35.0734 17.4979 35.0734 16.866C35.0734 16.2498 34.9443 15.6947 34.6859 15.2007C34.4258 14.7085 34.082 14.3244 33.6491 14.0504C33.2162 13.7781 32.7344 13.6402 32.2037 13.6402C31.6591 13.6402 31.1704 13.7816 30.7375 14.0609C30.3046 14.3419 29.9624 14.7259 29.7111 15.2112C29.4597 15.6982 29.334 16.2568 29.334 16.8869ZM32.2037 22.5007C31.31 22.5007 30.507 22.3523 29.7949 22.0556C29.0827 21.7588 28.4787 21.3486 27.983 20.8232C27.4872 20.2978 27.1067 19.6973 26.8413 19.0218C26.576 18.3445 26.4434 17.6323 26.4434 16.8869C26.4434 16.1276 26.576 15.4084 26.8413 14.7329C27.1067 14.0556 27.4872 13.4551 27.983 12.9297C28.4787 12.4061 29.0827 11.9941 29.7949 11.6974C30.507 11.4006 31.31 11.2505 32.2037 11.2505C33.0975 11.2505 33.8969 11.4006 34.6021 11.6974C35.3074 11.9941 35.9113 12.4061 36.414 12.9297C36.9168 13.4551 37.2973 14.0556 37.5556 14.7329C37.814 15.4084 37.9432 16.1276 37.9432 16.8869C37.9432 17.6323 37.814 18.3445 37.5556 19.0218C37.2973 19.6973 36.9203 20.2978 36.4245 20.8232C35.9288 21.3486 35.3248 21.7588 34.6126 22.0556C33.9004 22.3523 33.0975 22.5007 32.2037 22.5007Z"
    fill="white" />
  <path
    d="M101.287 16.8871C101.287 17.5172 101.413 18.0758 101.664 18.5611C101.916 19.0481 102.258 19.4286 102.691 19.7009C103.124 19.9767 103.612 20.1129 104.157 20.1129C104.688 20.1129 105.169 19.9732 105.602 19.6905C106.035 19.4094 106.379 19.0289 106.639 18.5401C106.898 18.0549 107.027 17.498 107.027 16.8662C107.027 16.25 106.898 15.6949 106.639 15.2009C106.379 14.7087 106.035 14.3246 105.602 14.0506C105.169 13.7783 104.688 13.6404 104.157 13.6404C103.612 13.6404 103.124 13.7818 102.691 14.0611C102.258 14.3421 101.916 14.7261 101.664 15.2114C101.413 15.6984 101.287 16.257 101.287 16.8871ZM104.157 22.5008C103.263 22.5008 102.46 22.3524 101.748 22.0557C101.036 21.7589 100.432 21.3487 99.9363 20.8233C99.4406 20.2979 99.06 19.6974 98.7947 19.0219C98.5294 18.3446 98.3967 17.6325 98.3967 16.8871C98.3967 16.1278 98.5294 15.4086 98.7947 14.7331C99.06 14.0558 99.4406 13.4554 99.9363 12.9299C100.432 12.4063 101.036 11.9943 101.748 11.6976C102.46 11.4008 103.263 11.2507 104.157 11.2507C105.051 11.2507 105.85 11.4008 106.555 11.6976C107.261 11.9943 107.865 12.4063 108.367 12.9299C108.87 13.4554 109.251 14.0558 109.509 14.7331C109.767 15.4086 109.896 16.1278 109.896 16.8871C109.896 17.6325 109.767 18.3446 109.509 19.0219C109.251 19.6974 108.873 20.2979 108.378 20.8233C107.882 21.3487 107.278 21.7589 106.566 22.0557C105.854 22.3524 105.051 22.5008 104.157 22.5008Z"
    fill="#303030" />
  <path
    d="M114 16.8871C114 17.5172 114.125 18.0758 114.377 18.5611C114.628 19.0481 114.97 19.4286 115.403 19.7009C115.836 19.9767 116.325 20.1129 116.87 20.1129C117.4 20.1129 117.882 19.9732 118.315 19.6905C118.748 19.4094 119.092 19.0289 119.352 18.5401C119.61 18.0549 119.739 17.498 119.739 16.8662C119.739 16.25 119.61 15.6949 119.352 15.2009C119.092 14.7087 118.748 14.3246 118.315 14.0506C117.882 13.7783 117.4 13.6404 116.87 13.6404C116.325 13.6404 115.836 13.7818 115.403 14.0611C114.97 14.3421 114.628 14.7261 114.377 15.2114C114.125 15.6984 114 16.257 114 16.8871ZM116.87 22.5008C115.976 22.5008 115.173 22.3524 114.461 22.0557C113.748 21.7589 113.145 21.3487 112.649 20.8233C112.153 20.2979 111.773 19.6974 111.507 19.0219C111.242 18.3446 111.109 17.6325 111.109 16.8871C111.109 16.1278 111.242 15.4086 111.507 14.7331C111.773 14.0558 112.153 13.4554 112.649 12.9299C113.145 12.4063 113.748 11.9943 114.461 11.6976C115.173 11.4008 115.976 11.2507 116.87 11.2507C117.763 11.2507 118.563 11.4008 119.268 11.6976C119.973 11.9943 120.577 12.4063 121.08 12.9299C121.582 13.4554 121.963 14.0558 122.221 14.7331C122.48 15.4086 122.609 16.1278 122.609 16.8871C122.609 17.6325 122.48 18.3446 122.221 19.0219C121.963 19.6974 121.586 20.2979 121.09 20.8233C120.595 21.3487 119.991 21.7589 119.278 22.0557C118.566 22.3524 117.763 22.5008 116.87 22.5008Z"
    fill="#303030" />
  <path
    d="M72.1867 11.4806C72.0883 11.3822 71.9121 11.251 71.6549 11.0852C71.3976 10.9194 71.0868 10.7571 70.7172 10.6052C70.3495 10.4515 69.9506 10.3168 69.5206 10.2011C69.0907 10.0802 68.6521 10.0215 68.2083 10.0215C67.4295 10.0215 66.8442 10.1683 66.4487 10.4567C66.0533 10.7468 65.8547 11.1577 65.8547 11.6792C65.8547 12.0815 65.9791 12.3975 66.2294 12.6341C66.4781 12.8689 66.8545 13.0692 67.3553 13.235C67.8543 13.4008 68.4794 13.5803 69.2288 13.7737C70.201 14.0086 71.0436 14.2952 71.7585 14.6337C72.4751 14.9704 73.0224 15.4141 73.4058 15.9598C73.7857 16.5054 73.9791 17.2272 73.9791 18.1269C73.9791 18.9142 73.8323 19.5877 73.5405 20.1471C73.2486 20.7066 72.8463 21.159 72.3317 21.5061C71.8189 21.8514 71.2353 22.1001 70.5826 22.2607C69.9299 22.4195 69.2357 22.5007 68.5001 22.5007C67.7628 22.5007 67.0272 22.423 66.2916 22.271C65.556 22.1174 64.8481 21.8981 64.1677 21.6131C63.4874 21.33 62.8623 20.9863 62.2925 20.5823L63.5634 18.1044C63.6877 18.2287 63.9104 18.3928 64.2299 18.5948C64.5493 18.7951 64.9378 18.9971 65.3954 19.1974C65.8547 19.3995 66.3538 19.5704 66.896 19.7086C67.4382 19.8467 67.9855 19.9175 68.5416 19.9175C69.3186 19.9175 69.9091 19.7863 70.3115 19.5255C70.7138 19.2648 70.9158 18.8953 70.9158 18.4135C70.9158 17.9714 70.757 17.6261 70.4375 17.3757C70.1181 17.1271 69.6726 16.9095 69.1027 16.723C68.5346 16.5348 67.8612 16.3328 67.0825 16.1117C66.1517 15.8476 65.3747 15.5523 64.7514 15.2294C64.1263 14.903 63.6601 14.4921 63.3544 13.9948C63.0488 13.4975 62.8968 12.8758 62.8968 12.1282C62.8968 11.1197 63.1369 10.2719 63.6152 9.58639C64.0935 8.90433 64.7427 8.38458 65.5629 8.03232C66.3831 7.67834 67.2914 7.50049 68.2912 7.50049C68.9853 7.50049 69.6415 7.57819 70.2597 7.73014C70.8778 7.88555 71.458 8.08413 71.9985 8.33623C72.5407 8.58488 73.0259 8.85598 73.4559 9.14607L72.1867 11.4806Z"
    fill="#303030" />
  <path
    d="M81.0619 22.5009C80.1681 22.5009 79.365 22.3525 78.6527 22.0557C77.9404 21.7589 77.3328 21.3451 76.83 20.8127C76.3272 20.2819 75.9397 19.6779 75.6673 18.9987C75.395 18.3214 75.2588 17.6108 75.2588 16.8653C75.2588 15.844 75.4927 14.9065 75.9606 14.058C76.4285 13.2096 77.0954 12.5287 77.9613 12.0172C78.8273 11.5056 79.8538 11.2507 81.041 11.2507C82.2264 11.2507 83.2477 11.5091 84.0997 12.0259C84.9516 12.5426 85.5871 13.2218 86.0061 14.058L83.2617 14.8978C83.0242 14.491 82.71 14.1802 82.3189 13.9638C81.9279 13.7473 81.4949 13.639 81.02 13.639C80.4893 13.639 80.004 13.7735 79.564 14.0388C79.1241 14.3077 78.7784 14.683 78.527 15.1701C78.2756 15.6572 78.1499 16.2211 78.1499 16.8653C78.1499 17.4973 78.2791 18.0542 78.5375 18.5396C78.7958 19.0284 79.1415 19.409 79.5745 19.6918C80.0075 19.9729 80.4893 20.1126 81.02 20.1126C81.3552 20.1126 81.673 20.0585 81.9733 19.945C82.2735 19.835 82.5424 19.6796 82.7798 19.4841C83.0173 19.2885 83.1918 19.0651 83.3036 18.8137L86.048 19.6517C85.7966 20.1964 85.43 20.6852 84.9482 21.1182C84.4663 21.5511 83.9007 21.8898 83.2512 22.1343C82.6018 22.3787 81.872 22.5009 81.0619 22.5009Z"
    fill="#303030" />
  <path
    d="M97.3 22.5007H94.5234V16.4968C94.5234 15.6662 94.3611 15.0481 94.0365 14.6388C93.7118 14.2313 93.2663 14.0258 92.7 14.0258C92.3684 14.0258 92.0162 14.1208 91.6432 14.309C91.2702 14.499 90.9352 14.7597 90.6382 15.0878C90.3412 15.4176 90.1237 15.7992 89.9855 16.2309V22.5007H87.2089V7.50049H89.9855V13.753C90.3861 13.0692 90.9318 12.5374 91.6225 12.1558C92.3132 11.7724 93.066 11.5808 93.881 11.5808C94.5856 11.5808 95.1588 11.7016 95.6009 11.9399C96.0429 12.1782 96.3883 12.4994 96.6369 12.9017C96.8856 13.3058 97.0583 13.7565 97.1549 14.2555C97.2516 14.7545 97.3 15.2708 97.3 15.8009V22.5007Z"
    fill="#303030" />
  <path
    d="M123.822 7.50049H126.598V18.8486C126.598 19.3477 126.681 19.6844 126.847 19.857C127.013 20.0314 127.241 20.1178 127.531 20.1178C127.752 20.1178 127.98 20.0902 128.215 20.0349C128.449 19.9796 128.657 19.9106 128.836 19.8277L129.209 21.9395C128.836 22.1208 128.401 22.2589 127.904 22.3556C127.406 22.4506 126.957 22.5007 126.557 22.5007C125.687 22.5007 125.013 22.2693 124.537 21.8031C124.06 21.3403 123.822 20.679 123.822 19.8208V7.50049Z"
    fill="#303030" />
</svg>