<svg width="90" height="50" viewBox="0 0 90 50" fill="none" xmlns="http://www.w3.org/2000/svg">
<path d="M51.7573 13.3047H38.2383V37.596H51.7573V13.3047Z" fill="#FF5F00"/>
<path d="M39.0983 25.4503C39.0983 20.5148 41.4158 16.1372 44.978 13.3047C42.36 11.2446 39.0554 10 35.4503 10C26.9097 10 20 16.9097 20 25.4503C20 33.9909 26.9097 40.9006 35.4503 40.9006C39.0554 40.9006 42.36 39.656 44.978 37.596C41.4158 34.8063 39.0983 30.3858 39.0983 25.4503Z" fill="#EB001B"/>
<path d="M69.9995 25.4503C69.9995 33.9909 63.0898 40.9006 54.5492 40.9006C50.9441 40.9006 47.6395 39.656 45.0215 37.596C48.6266 34.7634 50.9012 30.3858 50.9012 25.4503C50.9012 20.5148 48.5836 16.1372 45.0215 13.3047C47.6395 11.2446 50.9441 10 54.5492 10C63.0898 10 69.9995 16.9526 69.9995 25.4503Z" fill="#F79E1B"/>
<rect x="0.5" y="0.5" width="89" height="49" rx="1.5" stroke="#303030" stroke-opacity="0.3"/>
</svg>
