<svg width="120" height="120" viewBox="0 0 120 120" fill="none" xmlns="http://www.w3.org/2000/svg">
<path d="M54.1267 8.69125L54.9659 12.3562L53.2875 12.775L52.7631 10.6808L45.1057 12.4609L45.6302 14.5551L43.847 14.974L43.0078 11.309L43.4274 11.2043C44.791 10.8902 44.5812 8.48182 44.0568 5.54988L43.4274 2.30381L50.7701 0.628418L52.6582 9.11009L54.1267 8.69125ZM45.7351 10.6808L50.7701 9.52894L49.3015 2.61795L45.4204 3.45564L45.7351 5.23575C46.1547 7.53941 46.3645 9.63365 45.7351 10.6808Z" fill="white"/>
<path d="M55.909 0H57.7971L57.6922 7.32984L63.3566 0.104712H65.1398L64.93 10.3665H63.0419L63.1468 3.14136L57.4824 10.3665H55.6992L55.909 0Z" fill="white"/>
<path d="M76.4716 9.84286C76.052 11.623 74.4786 12.3559 72.066 11.7277L67.3457 10.6806L69.6534 0.73291L74.1639 1.78003C76.3667 2.30359 77.5205 3.56014 77.101 5.13082C76.8912 6.17794 76.1569 6.80621 75.1079 7.01563C76.2618 7.64391 76.7863 8.58631 76.4716 9.84286ZM74.6884 9.3193C74.8982 8.27218 74.3737 7.74862 73.01 7.43448L70.1779 6.80621L69.5485 9.73815L72.3807 10.3664C73.6394 10.6806 74.3737 10.2617 74.6884 9.3193ZM70.4926 5.34024L73.01 5.8638C74.1639 6.17794 75.003 5.75909 75.2128 4.92139C75.4226 3.97898 74.8982 3.35071 73.7443 3.03658L71.2268 2.51302L70.4926 5.34024Z" fill="white"/>
<path d="M81.9226 3.979L83.6009 4.8167L80.4541 11.4136L88.6359 7.22508L90.2093 7.95806L85.6988 17.1727L84.0205 16.335L87.1673 9.73817L78.9855 13.9266L77.4121 13.1937L81.9226 3.979Z" fill="white"/>
<path d="M98.8117 16.2306L96.0844 14.1364L90.8396 21.0474L89.3711 19.8956L94.6158 12.9846L91.8886 10.8903L92.8326 9.63379L99.7557 14.8694L98.8117 16.2306Z" fill="white"/>
<path d="M102.272 17.1724L103.531 18.5336L98.0762 23.3504L107.202 22.7221L108.356 24.0834L100.594 30.8896L99.3349 29.5284L104.789 24.7116L95.6636 25.3399L94.5098 23.9786L102.272 17.1724Z" fill="white"/>
<path d="M105.942 29.6338C108.67 28.1678 111.711 29.1102 113.18 31.9374C114.019 33.4034 114.124 34.9741 113.6 36.3353L112.026 35.8118C112.341 34.7647 112.236 33.7175 111.711 32.8798C110.663 30.995 108.67 30.3668 106.781 31.4139C104.893 32.461 104.369 34.4505 105.418 36.3353C105.942 37.2777 106.677 37.906 107.83 38.1154L107.411 39.7908C105.942 39.4767 104.788 38.5343 103.949 37.0683C102.481 34.2411 103.32 31.0997 105.942 29.6338Z" fill="white"/>
<path d="M118.534 45.9689L108.674 49.0056L108.149 47.2255L110.877 46.3878L110.142 43.9794L110.037 43.77L106.786 42.8276L106.156 40.9427L109.828 42.0946C109.932 40.6286 110.772 39.4768 112.345 38.9532C114.653 38.2202 116.436 39.4768 117.275 41.9899L118.534 45.9689ZM112.974 40.7333C111.716 41.1522 111.191 42.0946 111.611 43.5605L112.345 45.8642L116.436 44.6077L115.702 42.4087C115.282 40.9427 114.338 40.3145 112.974 40.7333Z" fill="white"/>
<path d="M112.657 63.8744C110.874 63.8744 109.825 62.6179 109.72 60.0001L109.615 55.1833L119.895 54.9739L120 59.5812C120 61.8849 119.161 63.2461 117.377 63.2461C116.329 63.2461 115.489 62.7226 115.07 61.7802C114.86 63.1414 114.021 63.8744 112.657 63.8744ZM112.762 61.9896C113.811 61.9896 114.231 61.2566 114.231 59.8953V56.9634H111.189V59.8953C111.294 61.3613 111.818 61.9896 112.762 61.9896ZM115.594 56.9634V59.4765C115.594 60.733 116.119 61.3613 117.063 61.3613C118.007 61.3613 118.531 60.6283 118.531 59.4765V56.9634H115.594Z" fill="white"/>
<path d="M119.58 67.225L119.37 69.1098L109.195 67.7486L109.405 65.8638L119.58 67.225Z" fill="white"/>
<path d="M107.517 80.3141L103.846 79.1623L104.37 77.4869L106.468 78.1152L108.776 70.5759L106.678 69.9476L107.202 68.2722L110.874 69.4241L110.769 69.8429C110.454 71.2042 112.552 72.1466 115.384 73.1937L118.426 74.2408L116.223 81.4659L107.937 78.9529L107.517 80.3141ZM110.035 72.0419L108.566 77.068L115.279 79.0576L116.433 75.1832L114.755 74.5549C112.552 73.9267 110.559 73.089 110.035 72.0419Z" fill="white"/>
<path d="M102.905 88.4817L101.541 87.7487L105.317 81.0471L114.338 85.9686L110.667 92.5654L109.303 91.8325L112.031 86.911L109.723 85.6545L107.31 89.9476L105.947 89.2147L108.359 84.9215L105.842 83.5602L102.905 88.4817Z" fill="white"/>
<path d="M105.105 91.8324C107.413 93.8219 107.518 97.068 105.42 99.4764C103.322 101.885 100.07 102.199 97.7624 100.209C95.4547 98.2199 95.3498 94.9738 97.4477 92.5654C99.5456 90.157 102.797 89.8429 105.105 91.8324ZM99.0211 98.6387C100.595 100 102.797 99.8952 104.161 98.3246C105.525 96.7539 105.42 94.6596 103.846 93.1937C102.273 91.8324 100.07 91.9371 98.7065 93.5078C97.3428 95.0785 97.4477 97.2774 99.0211 98.6387Z" fill="white"/>
<path d="M89.1576 106.492C89.5772 107.33 89.3674 108.272 88.6332 108.691C87.8989 109.11 86.9548 108.901 86.4304 108.168C85.9059 107.33 86.2206 106.388 86.9548 105.969C87.6891 105.445 88.6332 105.655 89.1576 106.492Z" fill="white"/>
<path d="M65.1399 111.309L64.3008 107.644L65.9791 107.33L66.3987 109.424L74.1609 107.749L73.7413 105.654L75.5246 105.236L76.2588 109.005L75.8392 109.11C74.4756 109.424 74.6854 111.832 75.2099 114.764L75.7343 118.01L68.3917 119.581L66.6085 111.099L65.1399 111.309ZM73.5316 109.529L68.3917 110.576L69.8602 117.487L73.8462 116.649L73.5316 114.869C73.2169 112.565 73.0071 110.471 73.5316 109.529Z" fill="white"/>
<path d="M63.3577 120H61.4696L61.5745 112.67L55.9102 119.791H54.127L54.3367 109.529H56.2249L56.12 116.754L61.7843 109.634H63.5675L63.3577 120Z" fill="white"/>
<path d="M42.7966 109.843C43.2162 108.168 44.7896 107.435 47.3071 107.958L52.0274 109.11L49.6148 119.058L45.1043 118.01C42.9015 117.487 41.7477 116.23 42.1672 114.555C42.4819 113.508 43.1113 112.88 44.1602 112.67C43.0064 112.042 42.4819 111.099 42.7966 109.843ZM48.7756 114.45L46.2581 113.822C45.1043 113.508 44.2651 113.822 44.0553 114.764C43.8456 115.707 44.37 116.335 45.5239 116.649L48.0414 117.277L48.7756 114.45ZM44.6847 110.471C44.4749 111.518 44.9994 112.042 46.2581 112.356L49.0903 113.089L49.8246 110.157L46.9924 109.424C45.7337 109.11 44.8945 109.424 44.6847 110.471Z" fill="white"/>
<path d="M37.342 115.707L35.6637 114.869L38.9154 108.377L30.7336 112.461L29.1602 111.623L33.7755 102.408L35.4539 103.246L32.2021 109.738L40.3839 105.655L41.9574 106.492L37.342 115.707Z" fill="white"/>
<path d="M20.5607 103.246L23.2879 105.34L28.6376 98.5342L30.1061 99.686L24.7565 106.492L27.3789 108.587L26.3299 109.843L19.5117 104.503L20.5607 103.246Z" fill="white"/>
<path d="M17.2017 102.199L15.9429 100.733L21.5024 96.021L12.3765 96.5445L11.2227 95.1833L19.0898 88.5864L20.3485 90.0524L14.7891 94.7644L23.915 94.2409L25.0688 95.6021L17.2017 102.199Z" fill="white"/>
<path d="M13.6342 89.6336C10.907 91.0996 7.865 90.0525 6.39647 87.2252C5.6622 85.7593 5.45241 84.1886 5.97689 82.8273L7.55032 83.3509C7.23563 84.398 7.23563 85.3404 7.76011 86.2828C8.70416 88.1676 10.8021 88.7959 12.6902 87.8535C14.5783 86.9111 15.2077 84.8168 14.1587 82.932C13.6342 81.9896 12.9 81.3614 11.7461 81.0472L12.1657 79.3718C13.6342 79.686 14.7881 80.7331 15.6272 82.199C17.2007 85.131 16.3615 88.2723 13.6342 89.6336Z" fill="white"/>
<path d="M1.36328 73.0889L11.2234 70.157L11.7479 71.9371L9.02062 72.7748L9.75489 75.1832L9.85979 75.3926L13.1115 76.4397L13.636 78.3245L9.96468 77.068C9.85979 78.5339 9.02062 79.6858 7.4472 80.1046C5.13951 80.7329 3.35629 79.5811 2.62202 77.068L1.36328 73.0889ZM6.81783 78.4292C8.07657 78.0104 8.60104 77.068 8.18146 75.602L7.4472 73.2983L3.35629 74.4502L3.98566 76.6491C4.51013 78.2198 5.45419 78.8481 6.81783 78.4292Z" fill="white"/>
<path d="M7.34266 55.2881C9.12588 55.2881 10.1748 56.5446 10.2797 59.1624L10.3846 63.9792L0.104895 64.1886L0 59.5813C0 57.2776 0.839161 55.9164 2.62238 55.9164C3.67133 55.9164 4.51049 56.4399 4.93007 57.3823C5.24476 56.1258 6.08392 55.3928 7.34266 55.2881ZM4.40559 62.3038V59.7907C4.40559 58.5342 3.88112 57.9059 2.93706 57.9059C1.99301 57.9059 1.46853 58.6389 1.46853 59.7907V62.3038H4.40559ZM7.23776 57.2776C6.18881 57.2776 5.76923 58.0106 5.76923 59.3719V62.3038H8.81119V59.3719C8.81119 57.9059 8.28671 57.2776 7.23776 57.2776Z" fill="white"/>
<path d="M0.525391 51.9371L0.840076 50.0522L11.0149 51.6229L10.7002 53.403L0.525391 51.9371Z" fill="white"/>
<path d="M12.7972 38.9531L16.4685 40.1049L15.944 41.7803L13.8461 41.1521L11.4336 48.6913L13.5315 49.3196L13.007 50.995L9.33565 49.8432L9.44055 49.4243C9.86013 48.0631 7.65733 47.0159 4.82516 46.0735L1.7832 44.9217L4.0909 37.8013L12.3776 40.4191L12.7972 38.9531ZM10.1748 47.1206L11.7482 42.1992L5.03495 40.1049L3.77621 43.9793L5.45453 44.6076C7.76222 45.3405 9.65034 46.1782 10.1748 47.1206Z" fill="white"/>
<path d="M17.5156 30.8902L18.8792 31.7279L14.9981 38.4294L6.08203 33.2985L9.85825 26.8064L11.2219 27.6441L8.49462 32.4608L10.8023 33.8221L13.3198 29.5289L14.6834 30.2619L12.1659 34.5551L14.5785 35.9163L17.5156 30.8902Z" fill="white"/>
<path d="M15.4195 27.5388C13.1118 25.5493 13.0069 22.3032 15.2097 19.8948C17.4125 17.4864 20.5593 17.277 22.867 19.2665C25.1747 21.2561 25.2796 24.5021 23.0768 26.9105C20.874 29.3189 17.7272 29.5283 15.4195 27.5388ZM21.6083 20.7325C20.0349 19.3713 17.937 19.476 16.4684 21.0466C15.1048 22.6173 15.2097 24.7116 16.7831 26.1775C18.3565 27.6435 20.4544 27.4341 21.923 25.8634C23.1817 24.2927 23.1817 22.0938 21.6083 20.7325Z" fill="white"/>
<path d="M31.5746 13.0888C31.1551 12.2511 31.4698 11.3087 32.204 10.8898C32.9383 10.471 33.8823 10.6804 34.4068 11.5181C34.8264 12.3558 34.5117 13.2982 33.7774 13.7171C32.9383 14.1359 31.9942 13.9265 31.5746 13.0888Z" fill="white"/>
</svg>
