<svg width="121" height="122" viewBox="0 0 121 122" fill="none" xmlns="http://www.w3.org/2000/svg">
<path d="M46.6817 108.263L45.0413 119.165L46.672 119.415L51.9927 112.851L55.1488 120.711L56.7949 120.962L58.4661 110.065L56.5738 109.775L55.4804 116.906L52.8444 110.48L51.9521 110.343L47.497 115.78L48.5893 108.554L46.6817 108.263Z" fill="#303030"/>
<path d="M43.0943 106.923L41.3981 106.104L32.7223 110.593L36.1272 103.556L34.3328 102.688L29.5275 112.619L31.2238 113.439L39.9064 108.936L36.4947 115.987L38.2891 116.854L43.0943 106.923Z" fill="#303030"/>
<path d="M18.4247 103.961L21.8461 100.943C24.1726 98.8946 25.6391 98.066 26.5473 99.0289C26.6648 99.1535 26.7495 99.2662 26.8221 99.4119L28.2098 98.2936C27.9899 97.9229 27.8006 97.6305 27.5655 97.3813C25.9521 95.6707 23.811 96.8153 20.5603 99.694L18.496 101.516L15.547 98.3893L22.2906 92.0177L20.923 90.5677L12.9221 98.1272L18.4247 103.961Z" fill="#303030"/>
<path d="M4.46696 83.5279C5.63755 86.1834 8.30045 87.4668 10.9964 86.7585L11.7013 88.3576L7.56889 90.1747L8.37446 92.0021L18.4535 87.5701L17.648 85.7427L13.3716 87.6231L12.6793 86.0527C15.12 84.5703 16.0298 81.6818 14.834 78.9692C13.525 75.9997 10.3672 74.7634 7.37224 76.0804C4.37731 77.3973 3.15791 80.5583 4.46696 83.5279ZM13.1926 79.691C14.0107 81.547 13.2065 83.6221 11.1043 84.5465C9.00208 85.4709 6.92656 84.6621 6.10841 82.8061C5.28396 80.9358 6.09448 78.875 8.19669 77.9506C10.2989 77.0262 12.3681 77.8208 13.1926 79.691Z" fill="#303030"/>
<path d="M11.9297 70.7931L11.4027 65.9111C11.1065 63.1678 9.72024 61.7491 7.54798 61.9828C5.48511 62.2048 4.50882 63.7052 4.7899 66.309L5.13623 69.5172L2.44825 69.8065L1.75057 63.3435L0.078392 63.5234L0.990234 71.9702L11.9297 70.7931ZM10.1528 68.9775L6.69901 69.3491L6.39785 66.5593C6.22719 64.9785 6.68884 64.1292 7.82967 64.0064C8.98612 63.882 9.68428 64.6378 9.85159 66.1877L10.1528 68.9775Z" fill="#303030"/>
<path d="M10.9406 58.652L11.2111 56.7847L4.33561 49.8663L12.0518 50.9822L12.338 49.0068L1.4482 47.432L1.17766 49.2993L8.06874 56.2199L0.336973 55.1018L0.0507812 57.0771L10.9406 58.652Z" fill="#303030"/>
<path d="M18.4006 34.4913L8.43686 29.8112L7.72887 31.3063L12.4803 38.2853L4.04865 39.0782L3.33398 40.5874L13.2844 45.2957L14.1059 43.5608L7.59552 40.4802L14.505 39.7785L14.8923 38.9604L10.97 33.1335L17.5724 36.2403L18.4006 34.4913Z" fill="#303030"/>
<path d="M24.3016 27.8637C26.596 25.3828 26.5343 21.9293 24.1349 19.7068C21.7355 17.4842 18.2903 17.6893 15.9959 20.1702C13.7015 22.6512 13.7747 26.1153 16.1626 28.3272C18.5505 30.5391 22.0072 30.3447 24.3016 27.8637ZM22.9865 26.6456C21.4957 28.2577 19.1973 28.3575 17.5477 26.8295C15.8981 25.3015 15.8201 23.0004 17.311 21.3884C18.8018 19.7763 21.1002 19.6765 22.7498 21.2045C24.3994 22.7325 24.4774 25.0336 22.9865 26.6456Z" fill="#303030"/>
<path d="M36.8695 5.56391L28.6543 9.74414L29.4411 11.2886L32.6467 9.65749L36.8671 17.9416L38.6572 17.0307L34.4369 8.74659L37.6563 7.10839L36.8695 5.56391Z" fill="#303030"/>
<path d="M45.7566 12.384L45.0249 9.43299L50.1343 8.17057L49.7287 6.53451L44.6192 7.79693L43.9292 5.0141L49.6887 3.59107L49.2754 1.92443L41.5508 3.83301L44.2047 14.5362L52.141 12.5753L51.7277 10.9087L45.7566 12.384Z" fill="#303030"/>
<path d="M55.4706 9.8107C54.7574 9.87384 54.2608 10.4391 54.3305 11.2228C54.3806 11.7871 54.7114 12.1685 55.1622 12.3182L54.7553 14.7712L56.011 14.66L56.6052 12.38C56.8201 11.6343 56.8726 11.3453 56.8419 11.0005C56.7737 10.2324 56.1992 9.74619 55.4706 9.8107Z" fill="#303030"/>
<path d="M78.7694 13.5826L81.1188 4.58607L79.1898 4.08452L76.8404 13.0811L72.9672 12.0741L75.3166 3.07751L73.3876 2.57596L71.0382 11.5725L67.1499 10.5616L69.4994 1.56503L67.5703 1.06348L64.7829 11.7374L78.045 15.1855L77.4517 17.4575L79.2602 17.9277L80.2915 13.9784L78.7694 13.5826Z" fill="#303030"/>
<path d="M86.2903 20.0849C89.129 21.9156 92.5185 21.2526 94.2926 18.4982C96.0668 15.7438 95.2702 12.3812 92.4316 10.5506C89.593 8.71991 86.195 9.39617 84.4294 12.1373C82.6637 14.8784 83.4517 18.2543 86.2903 20.0849ZM87.2627 18.5753C85.4183 17.3858 84.9233 15.1361 86.143 13.2424C87.3627 11.3488 89.6148 10.8707 91.4593 12.0602C93.3037 13.2497 93.7987 15.4994 92.579 17.3931C91.3592 19.2867 89.1072 19.7648 87.2627 18.5753Z" fill="#303030"/>
<path d="M108.653 26.08L106.051 22.4204L97.0905 28.8071L98.2652 30.459L100.851 28.616L102.279 30.6237C103.942 32.9618 106.188 33.5436 108.159 32.1385C110.143 30.7243 110.316 28.4181 108.653 26.08ZM103.633 29.5438L102.259 27.6124L105.818 25.0759L107.191 27.0074C108.221 28.456 108.102 29.671 106.975 30.4739C105.849 31.2768 104.663 30.9924 103.633 29.5438Z" fill="#303030"/>
<path d="M105.31 43.4744C106.516 46.6397 109.64 48.1236 112.697 46.9605C115.754 45.7973 117.099 42.6134 115.894 39.448C114.688 36.2826 111.55 34.8043 108.507 35.9619C105.465 37.1195 104.105 40.309 105.31 43.4744ZM106.986 42.8369C106.203 40.7801 107.133 38.6725 109.235 37.8728C111.337 37.0731 113.435 38.0288 114.218 40.0855C115.001 42.1423 114.071 44.2499 111.969 45.0496C109.867 45.8492 107.77 44.8936 106.986 42.8369Z" fill="#303030"/>
<path d="M108.214 51.8641L108.657 56.7537C108.905 59.5012 110.267 60.9434 112.443 60.7472C114.509 60.5608 115.511 59.0777 115.275 56.4699L114.984 53.2567L117.677 53.0139L118.262 59.4868L119.937 59.3358L119.172 50.876L108.214 51.8641ZM109.959 53.7098L113.419 53.3979L113.672 56.1919C113.815 57.7752 113.339 58.6163 112.196 58.7193C111.038 58.8238 110.353 58.0562 110.212 56.5039L109.959 53.7098Z" fill="#303030"/>
<path d="M108.784 64.031L108.48 65.8937L115.233 72.9324L107.537 71.6818L107.216 73.6523L118.077 75.4172L118.381 73.5545L111.612 66.5132L119.324 67.7663L119.645 65.7959L108.784 64.031Z" fill="#303030"/>
<path d="M100.953 88.055L110.832 92.9123L111.566 91.4301L106.94 84.3676L115.384 83.7256L116.125 82.2295L106.261 77.3443L105.408 79.0641L111.863 82.2605L104.942 82.8385L104.54 83.6495L108.358 89.5454L101.812 86.3212L100.953 88.055Z" fill="#303030"/>
<path d="M94.9874 94.5901C92.6494 97.0296 92.6498 100.484 95.0093 102.749C97.3688 105.014 100.817 104.87 103.155 102.431C105.493 99.9911 105.481 96.5263 103.133 94.2721C100.785 92.0179 97.3254 92.1505 94.9874 94.5901ZM96.2806 95.8315C97.7997 94.2464 100.099 94.1876 101.722 95.7448C103.344 97.302 103.381 99.6041 101.862 101.189C100.343 102.774 98.0429 102.833 96.4207 101.276C94.7986 99.7187 94.7614 97.4166 96.2806 95.8315Z" fill="#303030"/>
<path d="M90.6294 103.398L89.3655 104.28L93.277 110.528L95.1665 109.21L90.6294 103.398ZM87.8306 100.766C87.2433 101.175 87.1384 101.92 87.5271 102.474C87.9158 103.027 88.6445 103.171 89.2318 102.761C89.8318 102.343 89.9585 101.602 89.5698 101.048C89.1811 100.495 88.4306 100.347 87.8306 100.766Z" fill="#303030"/>
<path d="M75.0771 110.168C74.2126 110.429 73.6728 111.333 73.9648 112.298C74.2523 113.249 75.2029 113.703 76.0673 113.442C76.9318 113.181 77.4568 112.282 77.1693 111.331C76.8772 110.365 75.9416 109.907 75.0771 110.168Z" fill="#303030"/>
</svg>
