<svg width="100" height="100" viewBox="0 0 100 100" fill="none" xmlns="http://www.w3.org/2000/svg">
<path d="M42.1805 94.8776C41.297 95.1363 40.7201 95.7644 40.5965 96.7406C40.4054 98.2506 41.5109 99.2367 43.5205 99.4906L47.5527 100L48.7063 90.8882L44.4293 90.3478C42.1878 90.0646 40.8952 90.8667 40.6958 92.4418C40.5508 93.5873 41.0864 94.422 42.1805 94.8776ZM46.0686 98.49L43.827 98.2068C42.7449 98.0701 42.2212 97.5542 42.33 96.6951C42.4371 95.849 43.0729 95.4797 44.155 95.6164L46.3965 95.8996L46.0686 98.49ZM44.3161 91.656L46.8926 91.9815L46.5531 94.663L43.9766 94.3375C42.8172 94.191 42.2515 93.6964 42.3669 92.7852C42.4823 91.874 43.1567 91.5095 44.3161 91.656Z" fill="#303030"/>
<path d="M30.2006 95.9621L36.0059 98.043L39.1076 89.3972L37.5432 88.8365L34.9411 96.128L30.7002 94.6079L30.2006 95.9621Z" fill="#303030"/>
<path d="M29.5337 84.9717C27.1052 83.5428 24.3028 84.2083 22.9185 86.5606C21.5341 88.9129 22.3131 91.6854 24.7417 93.1143C27.1703 94.5431 29.9792 93.8664 31.3569 91.5254C32.7346 89.1844 31.9623 86.4005 29.5337 84.9717ZM28.775 86.2609C30.353 87.1893 30.8426 89.0456 29.8908 90.6628C28.9391 92.28 27.0785 92.7535 25.5004 91.825C23.9224 90.8966 23.4328 89.0404 24.3846 87.4232C25.3363 85.8059 27.197 85.3325 28.775 86.2609Z" fill="#303030"/>
<path d="M14.5845 85.2124L17.2207 87.8662L23.7357 81.3949L22.5457 80.197L20.6657 82.0644L19.2195 80.6085C17.5352 78.913 15.6076 78.7407 14.1743 80.1644C12.7317 81.5974 12.9003 83.5168 14.5845 85.2124ZM18.2506 81.6807L19.6419 83.0813L17.0545 85.6514L15.6632 84.2507C14.6197 83.2002 14.5544 82.1851 15.3734 81.3716C16.1924 80.558 17.2071 80.6302 18.2506 81.6807Z" fill="#303030"/>
<path d="M6.62126 74.7257L12.6497 74.1186L9.58835 79.3056L10.5703 80.8213L14.3447 74.0579L14.6096 74.0567C15.3207 74.045 15.7701 74.2803 16.0597 74.7274C16.2081 74.9564 16.3084 75.2319 16.397 75.5616L17.7457 75.1834C17.6636 74.6948 17.4934 74.2633 17.2602 73.9034C16.6598 72.9766 15.5875 72.4791 14.0833 72.6173L5.71701 73.3299L6.62126 74.7257Z" fill="#303030"/>
<path d="M8.31161 60.115C8.13493 59.3823 7.40893 58.8889 6.59302 59.0854C5.78985 59.2788 5.36847 60.0485 5.54515 60.7812C5.72183 61.5138 6.44478 61.9947 7.24795 61.8013C8.06386 61.6048 8.48829 60.8477 8.31161 60.115Z" fill="#303030"/>
<path d="M5.05873 42.7055C4.79001 41.8249 4.15559 41.2556 3.17828 41.1438C1.66671 40.971 0.693699 42.0888 0.462959 44.1021L0 48.1416L9.12155 49.1844L9.61262 44.8997C9.86998 42.6541 9.05333 41.371 7.4766 41.1907C6.3299 41.0596 5.50163 41.6056 5.05873 42.7055ZM1.4924 46.6386L1.74977 44.393C1.87401 43.309 2.38362 42.7789 3.24365 42.8772C4.09065 42.974 4.46714 43.6054 4.3429 44.6895L4.08553 46.9351L1.4924 46.6386ZM8.30362 44.8024L8.0078 47.3835L5.32346 47.0766L5.61928 44.4955C5.7524 43.334 6.24038 42.7622 7.15253 42.8665C8.06469 42.9707 8.43674 43.6409 8.30362 44.8024Z" fill="#303030"/>
<path d="M3.77424 30.8605L1.76172 36.6953L10.4412 39.6857L10.9835 38.1134L3.66372 35.6052L5.13393 31.3427L3.77424 30.8605Z" fill="#303030"/>
<path d="M14.74 29.8924C16.1406 27.4456 15.4431 24.6514 13.0755 23.2967C10.7079 21.942 7.94507 22.7562 6.54453 25.2031C5.14399 27.65 5.85287 30.4506 8.20907 31.7988C10.5653 33.147 13.3395 32.3393 14.74 29.8924ZM13.4424 29.1499C12.5324 30.7399 10.6823 31.253 9.05456 30.3216C7.42685 29.3903 6.93212 27.5355 7.84215 25.9456C8.75218 24.3557 10.6023 23.8425 12.23 24.7739C13.8577 25.7052 14.3524 27.56 13.4424 29.1499Z" fill="#303030"/>
<path d="M14.3634 15.139L11.7422 17.8076L18.2929 24.2427L19.4761 23.0381L17.5857 21.1811L19.0238 19.7171C20.6984 18.0122 20.847 16.0825 19.4058 14.6668C17.9553 13.2419 16.0381 13.434 14.3634 15.139ZM17.9398 18.7615L16.5563 20.1699L13.9548 17.6143L15.3382 16.2058C16.3758 15.1495 17.39 15.0716 18.2135 15.8806C19.037 16.6896 18.9773 17.7051 17.9398 18.7615Z" fill="#303030"/>
<path d="M24.8311 6.93856L25.5147 12.9606L20.29 9.95781L18.7871 10.957L25.5969 14.6551L25.6015 14.9199C25.6222 15.631 25.3926 16.0831 24.9493 16.3778C24.7222 16.5288 24.448 16.6323 24.1196 16.7246L24.5148 18.0691C25.0022 17.9814 25.4315 17.8063 25.7883 17.5691C26.7074 16.9581 27.1911 15.8801 27.0338 14.3773L26.2151 6.01841L24.8311 6.93856Z" fill="#303030"/>
<path d="M39.4254 8.38559C40.1552 8.20012 40.6389 7.46789 40.4318 6.65388C40.228 5.8526 39.4533 5.44014 38.7234 5.62561C37.9936 5.81108 37.5225 6.54012 37.7263 7.34141C37.9333 8.15541 38.6955 8.57107 39.4254 8.38559Z" fill="#303030"/>
<path d="M56.7696 4.98951C57.6466 4.70949 58.208 4.06773 58.3075 3.08891C58.4615 1.57501 57.3318 0.616244 55.316 0.411267L51.2715 0L50.3425 9.13561L54.6325 9.57184C56.8809 9.80047 58.1536 8.96733 58.3142 7.38817C58.431 6.23969 57.8748 5.41836 56.7696 4.98951ZM52.7928 1.47327L55.0411 1.7019C56.1265 1.81227 56.6629 2.31513 56.5753 3.17649C56.4891 4.02479 55.8625 4.4094 54.777 4.29902L52.5287 4.0704L52.7928 1.47327ZM54.7135 8.2615L52.1292 7.99871L52.4026 5.31023L54.9869 5.57302C56.1499 5.69128 56.7276 6.17197 56.6347 7.08553C56.5418 7.9991 55.8765 8.37976 54.7135 8.2615Z" fill="#303030"/>
<path d="M68.6752 3.59978L62.8203 1.66309L59.933 10.3826L61.5108 10.9045L63.932 3.55111L68.2092 4.96592L68.6752 3.59978Z" fill="#303030"/>
<path d="M69.7443 14.5494C72.2066 15.9189 74.992 15.1858 76.3191 12.8007C77.6463 10.4157 76.8007 7.66298 74.3384 6.29342C71.8761 4.92387 69.0843 5.66845 67.7635 8.04203C66.4427 10.4156 67.2819 13.1798 69.7443 14.5494ZM70.4717 13.2422C68.8717 12.3523 68.3375 10.5085 69.2499 8.86881C70.1624 7.22909 72.011 6.71072 73.611 7.60061C75.2109 8.4905 75.7451 10.3342 74.8327 11.974C73.9202 13.6137 72.0716 14.1321 70.4717 13.2422Z" fill="#303030"/>
<path d="M84.5004 13.9398L81.8008 11.3506L75.4442 17.9775L76.6628 19.1463L78.4971 17.2339L79.9782 18.6544C81.7029 20.3087 83.6342 20.4342 85.0327 18.9763C86.4402 17.5089 86.2252 15.5941 84.5004 13.9398ZM80.9208 17.5591L79.496 16.1926L82.0205 13.5607L83.4453 14.9273C84.5139 15.9522 84.6038 16.9655 83.8047 17.7986C83.0056 18.6317 81.9894 18.584 80.9208 17.5591Z" fill="#303030"/>
<path d="M92.7426 24.2958L86.7304 25.0479L89.6665 19.7886L88.6484 18.2969L85.0372 25.1493L84.7725 25.1569C84.0618 25.1857 83.607 24.9613 83.3067 24.5213C83.1529 24.2959 83.0459 24.0228 82.9495 23.6954L81.6102 24.1059C81.7041 24.5924 81.8846 25.0198 82.1263 25.3739C82.7488 26.2861 83.8327 26.7576 85.3331 26.5832L93.68 25.6695L92.7426 24.2958Z" fill="#303030"/>
<path d="M91.5425 38.9648C91.7368 39.6929 92.4745 40.1686 93.2854 39.9524C94.0837 39.7397 94.4864 38.96 94.2921 38.2319C94.0977 37.5038 93.3634 37.0407 92.5651 37.2534C91.7542 37.4696 91.3482 38.2367 91.5425 38.9648Z" fill="#303030"/>
<path d="M95.0759 56.2421C95.3662 57.1159 96.0144 57.6697 96.9942 57.7575C98.5096 57.8933 99.455 56.752 99.6363 54.7335L100 50.6836L90.8551 49.8639L90.4693 54.1596C90.2671 56.411 91.115 57.674 92.6958 57.8157C93.8454 57.9187 94.6601 57.3526 95.0759 56.2421ZM98.5448 52.2227L98.3426 54.4741C98.245 55.561 97.7485 56.1034 96.8863 56.0261C96.0372 55.95 95.6453 55.3279 95.7429 54.2411L95.9451 51.9897L98.5448 52.2227ZM91.7804 54.225L92.0128 51.6372L94.704 51.8784L94.4716 54.4662C94.367 55.6307 93.8932 56.2143 92.9787 56.1324C92.0642 56.0504 91.6758 55.3895 91.7804 54.225Z" fill="#303030"/>
<path d="M96.5636 68.1112L98.4336 62.2285L89.6843 59.4505L89.1804 61.0357L96.5587 63.3648L95.1926 67.6623L96.5636 68.1112Z" fill="#303030"/>
<path d="M85.645 69.288C84.304 71.7679 85.0689 74.5443 87.4686 75.8412C89.8683 77.1381 92.6106 76.2573 93.9516 73.7773C95.2925 71.2973 94.5161 68.5148 92.128 67.2241C89.7398 65.9334 86.9859 66.808 85.645 69.288ZM86.9602 69.9988C87.8315 68.3873 89.6687 67.8296 91.3184 68.7212C92.9682 69.6128 93.5077 71.4551 92.6364 73.0665C91.7651 74.6779 89.9279 75.2357 88.2781 74.344C86.6283 73.4524 86.0889 71.6102 86.9602 69.9988Z" fill="#303030"/>
<path d="M86.4839 84.0407L89.041 81.3105L82.3384 75.0338L81.1842 76.2661L83.1184 78.0774L81.7155 79.5752C80.0818 81.3195 79.9793 83.252 81.4538 84.6329C82.938 86.0227 84.8502 85.7849 86.4839 84.0407ZM82.822 80.5047L84.1716 79.0638L86.8335 81.5565L85.4839 82.9974C84.4718 84.0781 83.4596 84.1801 82.617 83.391C81.7743 82.602 81.8099 81.5854 82.822 80.5047Z" fill="#303030"/>
<path d="M76.2454 92.5202L75.4177 86.516L80.7129 89.3925L82.1914 88.3574L75.2949 84.8238L75.284 84.5592C75.2463 83.8487 75.4649 83.3913 75.901 83.086C76.1244 82.9296 76.396 82.8195 76.7222 82.7193L76.2949 81.3846C75.8097 81.484 75.3847 81.6694 75.0337 81.9151C74.1295 82.5481 73.6718 83.6375 73.8651 85.1361L74.8839 93.4734L76.2454 92.5202Z" fill="#303030"/>
<path d="M61.6906 91.3708C60.9655 91.5738 60.4997 92.3174 60.7263 93.126C60.9494 93.9221 61.7339 94.3157 62.4591 94.1127C63.1842 93.9098 63.6375 93.1697 63.4144 92.3736C63.1878 91.5649 62.4158 91.1678 61.6906 91.3708Z" fill="#303030"/>
</svg>
