<svg width="19" height="20" viewBox="0 0 19 20" fill="none" xmlns="http://www.w3.org/2000/svg">
<path d="M6.626 20C5.17014 20 3.7971 19.5355 2.6553 18.6566C2.44202 18.4926 2.23694 18.3133 2.04553 18.1242C0.712721 16.807 0.0420179 15.0527 0.157252 13.1844C0.244362 11.7723 0.813112 10.4109 1.7596 9.35117C3.01311 7.94766 4.74124 7.17461 6.62639 7.17461C6.95022 7.17461 7.27717 7.19883 7.59905 7.24648L8.09905 7.3207V11.7578L7.32913 11.5035C7.10491 11.4293 6.87171 11.3918 6.63577 11.3918C6.03967 11.3918 5.48147 11.6254 5.06389 12.0492C4.64827 12.4711 4.42444 13.0289 4.43303 13.6207C4.44436 14.3836 4.84631 15.075 5.50803 15.4711C5.81272 15.6531 6.1596 15.7598 6.51194 15.7793C6.79006 15.7945 7.06467 15.7582 7.32874 15.6711C8.23147 15.373 8.83811 14.5355 8.83811 13.5875L8.84202 8.98594V0H13.0826L13.0877 0.580469C13.0901 0.843359 13.117 1.10625 13.1678 1.36094C13.367 2.3625 13.9287 3.25508 14.7494 3.87383C15.478 4.42344 16.3475 4.71367 17.2631 4.71367C17.2846 4.71367 17.2846 4.71367 17.4803 4.72734L18.0252 4.76562V8.35938V8.94531L17.8299 8.94492H17.4405C17.4373 8.94492 17.4342 8.94492 17.4307 8.94492H17.2436C17.2428 8.94492 17.2416 8.94492 17.2405 8.94492C16.1112 8.94492 15.053 8.72969 14.0041 8.28711C13.6916 8.15508 13.3873 8.0043 13.0936 7.83594L13.1069 13.6098C13.0998 15.3176 12.4248 16.9195 11.2065 18.1238C10.2178 19.1008 8.97014 19.725 7.59827 19.9281C7.27835 19.9758 6.95139 20 6.626 20ZM6.626 8.34648C5.07952 8.34648 3.66155 8.98047 2.63342 10.1316C1.86155 10.9961 1.39749 12.1059 1.32639 13.2562C1.23264 14.7816 1.7803 16.2145 2.86897 17.2902C3.02639 17.4457 3.19475 17.593 3.36975 17.7277C4.30491 18.4477 5.43108 18.8281 6.626 18.8281C6.89397 18.8281 7.16311 18.8082 7.42678 18.7691C8.55061 18.6027 9.57288 18.0914 10.383 17.2906C11.3783 16.307 11.9295 14.9996 11.9354 13.609L11.917 5.54688L12.8635 6.27695C13.3522 6.65391 13.8897 6.96719 14.4604 7.2082C15.2405 7.5375 16.0268 7.72031 16.853 7.76367V5.87109C15.8319 5.79453 14.8674 5.43164 14.0436 4.81016C12.9928 4.01797 12.2737 2.87422 12.0182 1.59023C11.9908 1.45234 11.9686 1.31289 11.9522 1.17227H10.0135V8.98633L10.0096 13.5879C10.0096 15.0422 9.07991 16.3266 7.69592 16.7836C7.29241 16.9168 6.87249 16.9723 6.44749 16.9492C5.90608 16.9195 5.37327 16.7559 4.90608 16.4766C3.89319 15.8707 3.27796 14.8094 3.26077 13.6379C3.24749 12.7301 3.59085 11.8738 4.22835 11.2266C4.8678 10.5773 5.72249 10.2199 6.63499 10.2199C6.73264 10.2199 6.82952 10.2242 6.92639 10.2324V8.35469C6.82639 8.34922 6.726 8.34648 6.626 8.34648Z" fill="#303030"/>
</svg>
