<svg width="90" height="50" viewBox="0 0 90 50" fill="none" xmlns="http://www.w3.org/2000/svg">
<path d="M41.0106 34.1408H36.1147L39.1745 15.336H44.0709L41.0106 34.1408ZM31.996 15.336L27.3285 28.2701L26.7762 25.4849L26.7767 25.4859L25.1293 17.0292C25.1293 17.0292 24.9301 15.336 22.8068 15.336H15.0905L15 15.6544C15 15.6544 17.3597 16.1454 20.1212 17.8038L24.3747 34.1413H29.4759L37.2651 15.336H31.996ZM70.5045 34.1408H75L71.0805 15.3355H67.1449C65.3275 15.3355 64.8848 16.7369 64.8848 16.7369L57.583 34.1408H62.6866L63.7072 31.3476H69.9311L70.5045 34.1408ZM65.1172 27.4889L67.6896 20.4517L69.1368 27.4889H65.1172ZM57.9658 19.8581L58.6645 15.8199C58.6645 15.8199 56.5086 15 54.2611 15C51.8315 15 46.0619 16.0619 46.0619 21.2254C46.0619 26.0835 52.8335 26.1439 52.8335 28.6957C52.8335 31.2475 46.7596 30.7902 44.755 29.1811L44.0272 33.4034C44.0272 33.4034 46.2133 34.4653 49.5533 34.4653C52.8944 34.4653 57.9346 32.7354 57.9346 28.0272C57.9346 23.1378 51.1021 22.6826 51.1021 20.5568C51.1026 18.4306 55.8707 18.7037 57.9658 19.8581Z" fill="#2566AF"/>
<path d="M26.7767 25.4849L25.1293 17.0281C25.1293 17.0281 24.9301 15.335 22.8068 15.335H15.0905L15 15.6534C15 15.6534 18.7088 16.422 22.2661 19.3018C25.6675 22.0543 26.7767 25.4849 26.7767 25.4849Z" fill="#E6A540"/>
<rect x="0.5" y="0.5" width="89" height="49" rx="1.5" stroke="#303030" stroke-opacity="0.3"/>
</svg>
